<?xml version="1.0" encoding="UTF-8"?>
<svg id="Layer_2" data-name="Layer 2" xmlns="http://www.w3.org/2000/svg" viewBox="0 0 1009.76 1009.76">
  <defs>
    <style>
      .cls-1 {
        fill: #231f20;
      }
    </style>
  </defs>
  <g id="Layer_1-2" data-name="Layer 1">
    <g>
      <path class="cls-1" d="m0,710.39v299.37h299.38C144.85,987.08,22.68,864.91,0,710.39Z"/>
      <path class="cls-1" d="m403.41,1009.76h299.37v-299.37c-22.68,154.53-144.85,276.7-299.37,299.37Z"/>
      <path class="cls-1" d="m299.37,306.98H0v299.37c22.68-154.53,144.85-276.7,299.37-299.37Z"/>
      <path class="cls-1" d="m654.57,0c-196.17,0-355.19,159.03-355.19,355.19s159.03,355.19,355.19,355.19,355.19-159.03,355.19-355.19S850.74,0,654.57,0Zm48.21,606.35c-22.68-154.53-144.85-276.7-299.37-299.37h299.37v299.37Z"/>
    </g>
  </g>
</svg>