<?xml version="1.0" encoding="UTF-8"?>
<svg id="Layer_2" data-name="Layer 2" xmlns="http://www.w3.org/2000/svg" viewBox="0 0 1178.8 1178.79">
  <defs>
    <style>
      .cls-1 {
        fill: #231f20;
      }
    </style>
  </defs>
  <g id="Layer_1-2" data-name="Layer 1">
    <path class="cls-1" d="m1107.5,616.92c-26.58-13.75-58.42-23.7-93.06-29.51,34.63-5.81,66.48-15.76,93.06-29.51,45.97-23.78,71.29-56.03,71.29-90.83s-25.32-67.05-71.29-90.83c-44.2-22.86-102.77-35.44-164.93-35.44-44.95,0-87.93,6.67-125.05,18.95,11.97-36.78,18.48-79.19,18.48-123.53,0-62.16-12.59-120.74-35.44-164.93C776.79,25.32,744.53,0,709.74,0s-67.05,25.32-90.83,71.29c-13.75,26.58-23.7,58.42-29.51,93.06-5.81-34.64-15.76-66.48-29.51-93.06C536.11,25.32,503.86,0,469.06,0s-67.05,25.32-90.83,71.29c-22.86,44.2-35.44,102.77-35.44,164.93,0,46.09,6.95,90.18,19.85,127.93-37.42-12.57-80.92-19.38-126.41-19.38-62.16,0-120.73,12.59-164.93,35.44C25.32,404,0,436.25,0,471.05s25.32,67.05,71.29,90.83c26.58,13.75,58.42,23.7,93.06,29.51-34.64,5.81-66.48,15.76-93.06,29.51C25.32,644.67,0,676.93,0,711.72s25.32,67.05,71.29,90.83c44.2,22.86,102.77,35.45,164.93,35.45,44.95,0,87.93-6.67,125.05-18.95-11.97,36.78-18.48,79.19-18.48,123.53,0,62.16,12.59,120.73,35.44,164.93,23.78,45.98,56.03,71.29,90.83,71.29s67.05-25.32,90.83-71.29c13.75-26.58,23.7-58.42,29.51-93.06,5.81,34.64,15.76,66.48,29.51,93.06,23.78,45.98,56.03,71.29,90.83,71.29s67.05-25.32,90.83-71.29c22.86-44.2,35.45-102.77,35.45-164.93,0-46.09-6.95-90.18-19.85-127.93,37.42,12.57,80.92,19.38,126.41,19.38,62.16,0,120.73-12.59,164.93-35.44,45.97-23.78,71.29-56.03,71.29-90.83s-25.32-67.05-71.29-90.83Zm-401.06,89.72c-33.53,1.56-64.52,26.48-87.54,70.99-13.75,26.58-23.7,58.42-29.51,93.06-5.81-34.64-15.76-66.48-29.51-93.06-23.1-44.67-54.24-69.64-87.9-71.03-2.37-32.82-27.13-63.11-70.83-85.72-26.58-13.75-58.42-23.7-93.06-29.51,34.64-5.81,66.48-15.76,93.06-29.51,45.48-23.52,70.66-55.35,71.19-89.72,33.52-1.56,64.52-26.48,87.54-71,13.75-26.58,23.7-58.42,29.51-93.06,5.81,34.64,15.76,66.48,29.51,93.06,23.1,44.67,54.24,69.64,87.9,71.03,2.37,32.82,27.13,63.12,70.83,85.72,26.58,13.75,58.42,23.7,93.06,29.51-34.64,5.81-66.48,15.76-93.06,29.51-45.48,23.52-70.66,55.36-71.19,89.72Zm236.13-348.84c59.49,0,115.29,11.91,157.12,33.54,40.05,20.71,62.1,47.6,62.1,75.73s-22.05,55.01-62.1,75.73c-41.83,21.63-97.63,33.54-157.12,33.54s-115.29-11.91-157.12-33.54c-38.18-19.75-59.77-45.13-61.72-71.82,29.38-5.86,56.28-30.08,76.83-69.82,3.38-6.53,6.46-13.47,9.38-20.59,38.06-14.7,84.04-22.76,132.63-22.76Zm-217.1,95.07c6.13-22.87,26.75-44.33,59.98-61.52.39-.2.82-.37,1.22-.57-.42.83-.78,1.74-1.2,2.57-16.8,32.49-37.7,52.89-59.99,59.52Zm-91.46-373.76c20.71-40.05,47.6-62.1,75.73-62.1s55.01,22.06,75.73,62.1c21.63,41.83,33.54,97.63,33.54,157.12,0,47.98-7.86,93.41-22.21,131.19-6.62,2.76-13.06,5.67-19.16,8.83-40.7,21.05-65.13,48.76-70.21,78.98-27.28-1.18-53.27-22.93-73.41-61.88-21.63-41.83-33.54-97.63-33.54-157.12s11.91-115.29,33.54-157.12Zm-274.22,157.12c0-59.49,11.91-115.29,33.54-157.12,20.71-40.05,47.6-62.1,75.73-62.1s55.01,22.06,75.73,62.1c21.63,41.83,33.54,97.63,33.54,157.12s-11.91,115.29-33.54,157.12c-20.36,39.36-46.7,61.22-74.29,61.96-6.47-28.7-30.39-54.95-69.33-75.09-5.57-2.88-11.37-5.59-17.37-8.14-15.5-38.66-23.99-85.9-23.99-135.85Zm92.24,216.26c-21.11-6.81-40.86-26.11-57.05-56.23,30.14,15.93,49.7,35.4,57.05,56.23Zm-435.03,18.56c0-28.12,22.06-55.01,62.1-75.73,41.83-21.63,97.63-33.54,157.12-33.54,49.4,0,96.13,8.32,134.55,23.5,2.36,5.46,4.82,10.79,7.45,15.88,20.64,39.91,47.68,64.2,77.21,69.92-.02,28.11-22.07,54.99-62.1,75.69-41.83,21.63-97.63,33.54-157.12,33.54s-115.29-11.91-157.12-33.54c-40.05-20.71-62.1-47.6-62.1-75.73Zm219.22,349.94c-59.49,0-115.29-11.91-157.12-33.54-40.05-20.71-62.1-47.6-62.1-75.73s22.06-55.01,62.1-75.73c41.83-21.63,97.63-33.54,157.12-33.54s115.29,11.91,157.12,33.54c38.18,19.75,59.77,45.13,61.72,71.82-29.38,5.86-56.28,30.08-76.83,69.82-3.38,6.53-6.46,13.47-9.38,20.6-38.06,14.69-84.04,22.76-132.63,22.76Zm217.1-95.06c-6.13,22.87-26.74,44.33-59.98,61.52-.39.2-.82.37-1.22.57.42-.83.78-1.74,1.2-2.57,16.8-32.49,37.7-52.88,59.99-59.52Zm91.46,373.76c-20.71,40.05-47.6,62.1-75.73,62.1s-55.01-22.05-75.73-62.1c-21.63-41.83-33.54-97.63-33.54-157.12,0-47.98,7.87-93.41,22.21-131.19,6.62-2.76,13.06-5.67,19.16-8.83,40.7-21.05,65.13-48.76,70.21-78.98,27.28,1.18,53.27,22.93,73.41,61.88,21.63,41.83,33.54,97.63,33.54,157.12s-11.91,115.29-33.54,157.12Zm274.22-157.12c0,59.49-11.91,115.29-33.54,157.12-20.71,40.05-47.6,62.1-75.73,62.1s-55.01-22.05-75.73-62.1c-21.63-41.83-33.54-97.63-33.54-157.12s11.91-115.29,33.54-157.12c20.36-39.36,46.69-61.22,74.29-61.96,6.47,28.7,30.39,54.95,69.34,75.09,5.57,2.88,11.37,5.59,17.37,8.14,15.5,38.66,23.99,85.9,23.99,135.85Zm-92.24-216.26c21.11,6.81,40.86,26.11,57.05,56.24-30.14-15.93-49.7-35.4-57.05-56.24Zm372.93,57.17c-41.83,21.63-97.63,33.54-157.12,33.54-49.4,0-96.13-8.32-134.55-23.5-2.36-5.46-4.82-10.79-7.46-15.88-20.64-39.91-47.68-64.2-77.21-69.92.02-28.11,22.07-54.99,62.1-75.69,41.83-21.63,97.63-33.54,157.12-33.54s115.29,11.91,157.12,33.54c40.05,20.71,62.1,47.6,62.1,75.73s-22.05,55.01-62.1,75.73Z"/>
  </g>
</svg>