<?xml version="1.0" encoding="UTF-8"?>
<svg id="Layer_2" data-name="Layer 2" xmlns="http://www.w3.org/2000/svg" viewBox="0 0 891.78 1161.8">
  <g id="Layer_1-2" data-name="Layer 1">
    <path d="m886.49,525.93l-224.87-218.48.22-.22.75-179.21L536.41.75l-179.21-.75-127.26,126.19-.74,176.61L0,538.7l5.29,367.2,263.39,255.91,367.2-5.29,255.91-263.39-5.29-367.2Zm-531.12-93.27l179.21.75,75.59-74.95,21.07,20.61,1.71,154.95-108.36,110.78-154.95,1.71-110.78-108.36-1.71-154.95,24.42-24.96,73.8,74.42Zm-112.41-40.07l1.85,166.89,119.32,116.71,166.89-1.85,116.71-119.32-1.84-166.89-33.04-32.32,5.25-5.21,46.91,45.88,2.02,182.6-127.69,130.54-182.6,2.02-130.54-127.69-2.02-182.6,49.74-50.86,5.14,5.19-36.09,36.9Zm-37.09,22.51l2.19,197.93,141.5,138.41,197.93-2.19,138.41-141.5-2.19-197.93-63.1-61.72,21.62-21.44,146.7,142.53,4.14,287.46-200.34,206.2-287.46,4.14-206.2-200.34-4.14-287.46,151.72-156.16,24.8,25.01-65.59,67.06Zm414.59,667.95l-338.75,4.88-242.99-236.08-4.88-338.75,198.6-204.4,9.54,9.62-173.32,178.39,4.46,309.62,222.09,215.78,309.62-4.46,215.78-222.09-4.46-309.62-168.97-164.17,9.74-9.66,194.75,189.21,4.88,338.75-236.08,242.99Z"/>
  </g>
</svg>