<?xml version="1.0" encoding="UTF-8"?>
<svg id="Layer_2" data-name="Layer 2" xmlns="http://www.w3.org/2000/svg" viewBox="0 0 1062.85 1062.85">
  <g id="Layer_1-2" data-name="Layer 1">
    <g>
      <polygon points="1062.85 751.55 1062.85 311.3 751.55 0 311.3 0 0 311.3 0 751.55 311.3 1062.85 365.48 1062.85 137.05 834.42 137.05 507.71 368.07 276.7 694.78 276.7 925.8 507.71 925.8 834.42 697.37 1062.85 751.55 1062.85 1062.85 751.55"/>
      <polygon points="797.14 907.2 797.14 687.07 641.49 531.42 421.36 531.42 265.71 687.07 265.71 907.2 421.36 1062.85 448.45 1062.85 334.24 948.63 334.24 785.28 449.75 669.77 613.1 669.77 728.61 785.28 728.61 948.63 614.4 1062.85 641.49 1062.85 797.14 907.2"/>
    </g>
  </g>
</svg>