<?xml version="1.0" encoding="UTF-8"?>
<svg id="Layer_2" data-name="Layer 2" xmlns="http://www.w3.org/2000/svg" viewBox="0 0 1076.83 1114.38">
  <defs>
    <style>
      .cls-1 {
        fill: #231f20;
      }
    </style>
  </defs>
  <g id="Layer_1-2" data-name="Layer 1">
    <g>
      <polygon class="cls-1" points="300.9 523.99 364.24 480.34 378.16 404.69 375.22 400.43 440.69 412.48 495.5 374.7 507.55 309.23 504.69 305.08 560.25 315.3 606.77 283.24 616.99 227.68 615.14 225 664.29 234.04 705.45 205.68 714.49 156.53 700.31 135.95 712.08 153.04 752.91 160.55 787.08 137 794.59 96.18 771.04 62 730.22 54.49 696.04 78.05 688.53 118.87 686.13 115.38 636.97 106.33 595.82 134.7 586.78 183.85 600.96 204.42 584.93 181.17 529.37 170.94 482.85 203 472.63 258.56 504 304.08 469.77 254.41 404.3 242.37 349.49 280.15 337.44 345.62 356.33 373.02 334.5 341.36 258.86 327.44 195.52 371.09 181.6 446.74 203.43 478.41 178.02 441.54 89.94 425.33 16.2 476.15 0 564.23 50.82 637.97 138.89 654.17 212.63 603.35 228.84 515.28 225.25 510.07 300.9 523.99"/>
      <polygon class="cls-1" points="817.7 95.41 840.36 79.78 845.34 52.71 843.51 50.06 864.25 53.87 881.61 41.91 885.42 21.17 873.46 3.81 852.72 0 835.37 11.96 831.55 32.7 829.72 30.04 802.65 25.06 779.98 40.69 775 67.76 790.62 90.42 817.7 95.41"/>
      <polygon class="cls-1" points="549.36 731.81 597.93 672.16 590.1 595.64 586.09 592.37 652.32 585.59 694.35 533.97 687.57 467.75 683.67 464.57 739.87 458.82 775.54 415.01 769.79 358.81 767.26 356.75 816.98 351.67 848.54 312.91 843.45 263.19 840.17 260.52 881.46 256.29 907.66 224.11 903.44 182.82 898.02 178.41 925.4 175.61 942.79 154.26 939.98 126.88 937.49 124.84 958.46 122.7 971.77 106.35 969.62 85.37 953.28 72.06 932.3 74.21 918.99 90.56 921.14 111.53 918.64 109.49 891.25 112.3 873.87 133.64 876.67 161.03 887.35 169.72 871.25 156.61 829.97 160.84 803.76 193.02 807.98 234.31 824.07 247.41 804.7 231.64 754.98 236.72 723.42 275.48 728.51 325.2 747.89 340.97 725.98 323.14 669.78 328.89 634.11 372.7 639.86 428.9 635.95 425.71 569.73 432.49 527.69 484.11 534.47 550.33 530.46 547.07 453.94 554.9 405.37 614.54 413.2 691.06 408.3 687.08 319.21 696.19 262.66 765.63 271.78 854.72 341.22 911.27 430.31 902.15 486.86 832.71 477.74 743.62 443.02 715.35 472.84 739.64 549.36 731.81"/>
      <polygon class="cls-1" points="1068.59 185.23 1076.83 165.82 1068.93 146.27 1049.53 138.03 1029.98 145.93 1021.74 165.34 1029.63 184.88 1026.67 183.62 1001.14 193.93 990.39 219.27 1000.7 244.8 994.26 242.06 955.78 257.61 939.56 295.81 955.1 334.3 955.78 334.59 951.2 332.64 904.86 351.36 885.33 397.36 904.05 443.7 927.05 453.47 901.05 442.43 848.67 463.59 826.59 515.59 847.74 567.97 843.11 566 781.38 590.93 755.36 652.21 780.3 713.93 775.53 711.91 704.21 740.72 674.15 811.52 702.96 882.84 697.14 880.37 614.11 913.91 579.11 996.34 612.65 1079.38 695.08 1114.38 778.11 1080.84 813.11 998.41 779.57 915.37 738.36 897.87 773.76 912.9 845.08 884.1 875.14 813.29 846.33 741.97 841.57 739.95 903.3 715.02 929.31 653.74 904.38 592.02 873.74 579.01 899.74 590.05 952.13 568.89 974.21 516.89 953.05 464.51 950.05 463.24 996.39 444.52 1015.92 398.51 997.2 352.17 993.31 350.52 1031.79 334.97 1048.01 296.77 1032.47 258.29 1013.36 250.17 1026.03 255.55 1051.56 245.25 1062.31 219.91 1052 194.38 1044.04 191 1049.04 193.12 1068.59 185.23"/>
    </g>
  </g>
</svg>