<?xml version="1.0" encoding="UTF-8"?>
<svg id="Layer_2" data-name="Layer 2" xmlns="http://www.w3.org/2000/svg" viewBox="0 0 1148.76 1125.99">
  <g id="Layer_1-2" data-name="Layer 1">
    <g>
      <path d="m570.85,631.19c-31.37,22.26-38.75,65.73-16.49,97.1,22.26,31.37,65.73,38.75,97.1,16.49,31.37-22.26,38.75-65.73,16.49-97.1-22.26-31.37-65.73-38.75-97.1-16.49Z"/>
      <path d="m1148.76,420.36c0-58.12-47.12-105.24-105.24-105.24-13.76,0-26.86,2.72-38.9,7.52-13.32-24.45-28.7-47.6-45.72-69.41,6.68-10.43,10.67-22.75,10.67-36.05,0-37.03-30.02-67.05-67.05-67.05-13.57,0-26.15,4.1-36.7,11.02-35.39-26.96-74.43-49.33-116.23-66.32-.12-52.4-42.6-94.84-95.02-94.84-39.31,0-73.02,23.87-87.49,57.89-2.53-.04-5.02-.19-7.56-.19-58.24,0-114.15,10-166.27,28.17-18.69-28.69-51-47.7-87.8-47.7-57.87,0-104.77,46.91-104.77,104.77,0,18.64,4.92,36.1,13.45,51.26-32.95,30.78-61.81,65.84-85.64,104.37-10.96-4.55-22.97-7.12-35.58-7.12-51.31,0-92.9,41.59-92.9,92.9,0,40.29,25.8,74.25,61.66,87.13-5.59,30.08-8.66,61.05-8.66,92.73,0,28.37,2.46,56.17,6.97,83.28-3.31,1.9-6.57,3.95-9.75,6.2-53.67,38.09-66.31,112.48-28.22,166.15,30.16,42.51,83.07,59.15,130.45,45.37,19.84,26.75,42.2,51.52,66.81,73.88-11.27,22.31-10.42,49.84,5.05,71.64,22.26,31.37,65.73,38.75,97.1,16.49,4.28-3.04,8.02-6.54,11.4-10.28,41.27,20.75,85.72,36.01,132.45,44.84,1.5,8.44,4.11,16.81,8.57,24.7,21.14,37.38,68.59,50.54,105.96,29.4,19.19-10.86,31.87-28.68,36.92-48.48,45.98-5.19,90.08-16.59,131.52-33.29,34.79,47.67,101.5,58.71,149.78,24.46,47.13-33.44,59.24-97.7,28.62-145.93,23.39-24.63,44.34-51.57,62.45-80.49,6.08,1.41,12.35,2.32,18.86,2.32,46.17,0,83.59-37.42,83.59-83.59,0-29.76-15.67-55.72-39.09-70.53,8.8-37.33,13.59-76.18,13.59-116.15,0-13.7-.7-27.24-1.78-40.67,48.19-9.63,84.51-52.15,84.51-103.18Zm-140.82,246.94c-46.17,0-83.59,37.42-83.59,83.59,0,23.38,9.65,44.47,25.13,59.64-15.87,25.04-34.07,48.44-54.32,69.92-36.15-23.96-84.73-24.75-122.23,1.86-36.29,25.75-51.85,69.78-43.14,110.7-36.36,14.49-74.97,24.48-115.17,29.29-1.49-4.19-3.17-8.36-5.44-12.36-21.14-37.38-68.59-50.54-105.96-29.4-15.2,8.6-26.14,21.63-32.65,36.48-42.48-8.33-82.85-22.55-120.31-41.69,1.1-15.53-2.64-31.49-12.36-45.18-19.82-27.93-56.41-36.7-86.35-22.6-21.41-19.23-40.99-40.44-58.51-63.32,49.42-39.06,60.21-110.34,23.33-162.3-26.54-37.4-70.7-54.81-113.21-49.08-3.36-22.4-5.13-45.31-5.13-68.64,0-30.21,3.01-59.73,8.58-88.33,44.76-6.67,79.2-44.91,79.2-91.52,0-22.31-8.19-42.51-21.29-58.52,21.97-36.27,48.85-69.21,79.62-98.07,17.25,12.49,38.39,19.94,61.32,19.94,57.87,0,104.77-46.91,104.77-104.77,0-5.07-.48-10.01-1.18-14.89,47.2-16.33,97.79-25.32,150.47-25.32.26,0,.52.02.78.02,3.99,48.83,44.42,87.34,94.27,87.34,36.6,0,68-20.92,83.88-51.25,36.03,15.21,69.7,34.93,100.39,58.35-1.99,6.35-3.37,12.98-3.37,19.98,0,37.03,30.02,67.05,67.05,67.05,7.26,0,14.13-1.45,20.68-3.59,16.5,21.12,31.24,43.66,43.92,67.49-17.83,18.86-28.84,44.24-28.84,72.24,0,49.68,34.46,91.21,80.76,102.26,1.23,13.71,1.97,27.56,1.97,41.59,0,35.49-4.16,70-11.78,103.22-.44,0-.84-.13-1.28-.13Z"/>
      <path d="m849.41,481.04c24.58,0,44.5-19.92,44.5-44.5s-19.92-44.5-44.5-44.5-44.5,19.92-44.5,44.5,19.92,44.5,44.5,44.5Z"/>
      <circle cx="734.31" cy="300.77" r="83.59" transform="translate(2.4 607.33) rotate(-45)"/>
      <path d="m666.12,458.16c0-54.61-44.27-98.88-98.88-98.88s-98.88,44.27-98.88,98.88,44.27,98.88,98.88,98.88,98.88-44.27,98.88-98.88Z"/>
      <circle cx="924.35" cy="596.63" r="51.81"/>
      <path d="m515.65,290.9c32.28,0,58.44-26.17,58.44-58.44s-26.17-58.44-58.44-58.44-58.44,26.16-58.44,58.44,26.17,58.44,58.44,58.44Z"/>
      <path d="m341.37,654.08c23.9,33.68,70.59,41.61,104.27,17.71,33.68-23.9,41.61-70.58,17.71-104.27-23.9-33.68-70.59-41.61-104.27-17.71-33.68,23.9-41.61,70.58-17.71,104.27Z"/>
      <path d="m353.99,766.32c-37.65,26.72-46.51,78.9-19.8,116.55,26.72,37.65,78.9,46.51,116.55,19.8,37.65-26.72,46.51-78.9,19.8-116.55-26.72-37.65-78.9-46.51-116.55-19.8Z"/>
      <path d="m173.27,491.01c-29.72,21.09-36.71,62.28-15.63,91.99,21.09,29.72,62.27,36.71,91.99,15.63,29.72-21.09,36.71-62.27,15.63-91.99-21.09-29.72-62.28-36.71-91.99-15.63Z"/>
      <path d="m793.27,611.88c26.32-18.68,32.52-55.16,13.84-81.48-18.68-26.32-55.16-32.52-81.48-13.84-26.32,18.68-32.52,55.16-13.84,81.48,18.68,26.32,55.16,32.52,81.48,13.84Z"/>
      <path d="m368.67,407.26c31.99-22.7,39.52-67.03,16.82-99.01-22.7-31.99-67.03-39.52-99.01-16.82-31.99,22.7-39.52,67.03-16.82,99.01,22.7,31.99,67.03,39.52,99.01,16.82Z"/>
      <path d="m768.62,706.49c-28.25,20.04-34.9,59.19-14.85,87.44,20.05,28.25,59.2,34.9,87.44,14.85,28.25-20.04,34.9-59.2,14.85-87.44-20.04-28.25-59.19-34.9-87.44-14.85Z"/>
      <path d="m579.34,825.24c-24.76,17.57-30.59,51.88-13.02,76.64,17.57,24.76,51.88,30.59,76.64,13.02,24.76-17.57,30.59-51.88,13.02-76.64-17.57-24.76-51.88-30.59-76.64-13.02Z"/>
    </g>
  </g>
</svg>