<?xml version="1.0" encoding="UTF-8"?>
<svg id="Layer_2" data-name="Layer 2" xmlns="http://www.w3.org/2000/svg" viewBox="0 0 721.04 1081.88">
  <defs>
    <style>
      .cls-1 {
        fill: #231f20;
      }
    </style>
  </defs>
  <g id="Layer_1-2" data-name="Layer 1">
    <g>
      <path class="cls-1" d="m720.57,138.14c-.02-36.92-14.42-71.62-40.54-97.72C653.93,14.36,619.24,0,582.27,0L138.14.26c-36.92.02-71.62,14.42-97.72,40.54C14.34,66.92-.02,101.64,0,138.56l.47,805.18c.02,36.92,14.42,71.62,40.54,97.72,26.1,26.07,60.79,40.43,97.68,40.43h.08l444.12-.26c36.92-.02,71.62-14.42,97.72-40.54,26.09-26.12,40.45-60.84,40.43-97.76l-.47-805.18Zm-55.39,805.21c.03,45.42-36.9,82.39-82.32,82.41l-444.17.26c-21.98,0-42.65-8.56-58.21-24.09-15.57-15.55-24.15-36.23-24.16-58.23l-.13-225.69c15.18,25.99,33.47,50.37,55.33,72.21,66.53,66.45,154.96,103.06,248.99,103.06h.21c94.11-.06,182.57-36.76,249.08-103.34,21.84-21.86,40.09-46.27,55.24-72.27l.13,225.69ZM55.86,138.53c-.01-22,8.54-42.69,24.09-58.26,15.55-15.57,36.23-24.15,58.23-24.16l444.12-.26h.06c21.98,0,42.65,8.56,58.21,24.09,15.57,15.55,24.15,36.23,24.16,58.23l.13,225.69c-15.18-25.99-33.47-50.37-55.33-72.21-66.53-66.46-154.96-103.05-248.99-103.05h-.21c-94.11.05-182.57,36.76-249.08,103.34-21.84,21.86-40.09,46.27-55.24,72.27l-.13-225.69Zm304.84,704.48h-.19c-80.62,0-156.43-31.38-213.47-88.35-57.09-57.02-88.55-132.86-88.6-213.55-.05-80.69,31.33-156.56,88.35-213.65,57.02-57.09,132.86-88.55,213.54-88.6h.19c80.62,0,156.43,31.38,213.47,88.35,57.09,57.02,88.55,132.86,88.6,213.55.05,80.69-31.33,156.56-88.35,213.65-57.02,57.09-132.86,88.55-213.54,88.6Z"/>
      <path class="cls-1" d="m561.47,339.76c-53.69-53.63-125.06-83.17-200.94-83.17h-.17c-75.95.04-147.34,29.66-201.01,83.4-53.68,53.74-83.21,125.16-83.17,201.11.04,75.95,29.66,147.34,83.4,201.01,53.69,53.63,125.06,83.17,200.94,83.17h.17c75.95-.05,147.34-29.66,201.01-83.4,53.68-53.74,83.21-125.16,83.17-201.11-.05-75.95-29.66-147.34-83.4-201.01Zm27.54,201.05c.04,61.03-23.7,118.42-66.83,161.6-43.13,43.18-100.5,66.98-161.52,67.02h-.14c-60.98,0-118.33-23.74-161.47-66.83-43.18-43.13-66.98-100.5-67.02-161.53-.04-61.03,23.7-118.43,66.83-161.61,43.13-43.18,100.5-66.98,161.52-67.02h.14c60.98,0,118.32,23.73,161.47,66.83,43.18,43.13,66.98,100.5,67.02,161.53Z"/>
      <path class="cls-1" d="m360.52,419.2h-.07c-32.57.02-63.14,12.69-86.1,35.67-22.99,23.02-35.64,53.61-35.62,86.14.02,32.53,12.71,63.11,35.72,86.1,22.96,22.94,53.53,35.57,86.07,35.57s63.2-12.67,86.17-35.67c47.46-47.52,47.41-124.78-.1-172.24-22.97-22.94-53.53-35.57-86.07-35.57Z"/>
    </g>
  </g>
</svg>