<?xml version="1.0" encoding="UTF-8"?>
<svg id="Layer_2" data-name="Layer 2" xmlns="http://www.w3.org/2000/svg" viewBox="0 0 830.54 1171.58">
  <g id="Layer_1-2" data-name="Layer 1">
    <path d="m663.98,585.96c91.99,0,166.56-74.57,166.56-166.57s-74.57-166.57-166.56-166.57h-59.19C604.57,113.15,519.88,0,415.43,0s-189.38,113.43-189.38,253.36h378.61v164.68H225.89v-165.22h-59.33C74.57,252.83,0,327.4,0,419.39s74.57,166.57,166.57,166.57C74.57,585.96,0,660.53,0,752.52s74.57,166.57,166.57,166.57h59.22c.16,139.25,84.33,252.17,188.56,252.49,104.52.32,189.6-112.7,190.14-252.49h59.49c91.99,0,166.56-74.57,166.56-166.57s-74.57-166.57-166.56-166.57Zm-59.33,165.22H225.89v-165.22h378.76v165.22Z"/>
  </g>
</svg>