<?xml version="1.0" encoding="UTF-8"?>
<svg id="Layer_2" data-name="Layer 2" xmlns="http://www.w3.org/2000/svg" viewBox="0 0 1068.11 1068.11">
  <defs>
    <style>
      .cls-1 {
        fill: #231f20;
      }
    </style>
  </defs>
  <g id="Layer_1-2" data-name="Layer 1">
    <g>
      <path d="m856.9,0H211.21C94.56,0,0,94.56,0,211.21v645.7c0,116.65,94.56,211.21,211.21,211.21h645.7c116.65,0,211.21-94.56,211.21-211.21V211.21c0-116.65-94.56-211.21-211.21-211.21Zm-7.48,901.64c-117.74,106.48-354.38,36.66-528.56-155.94-174.17-192.6-219.92-435.05-102.18-541.52,117.74-106.48,354.38-36.66,528.56,155.94,174.17,192.6,219.92,435.05,102.18,541.52Z"/>
      <g>
        <path class="cls-1" d="m703.22,534.06c-160.26,4.82-164.25,8.72-169.17,165.73-4.92-157.01-8.9-160.91-169.17-165.73,160.26-4.82,164.25-8.72,169.17-165.73,4.92,157.01,8.9,160.91,169.17,165.73Z"/>
        <path class="cls-1" d="m541.91,700.03h-15.7c-2.36-75.3-4.5-115.49-23.97-134.57-19.54-19.14-60.61-21.24-137.58-23.55v-15.7c76.97-2.31,118.04-4.41,137.58-23.55,19.48-19.08,21.62-59.27,23.97-134.57h15.7c2.36,75.3,4.5,115.49,23.97,134.57,19.54,19.14,60.61,21.24,137.58,23.55v15.7c-76.97,2.31-118.04,4.41-137.58,23.55-19.48,19.08-21.62,59.27-23.97,134.57Zm-71.49-165.97c18.89,3.92,32.48,10.06,42.81,20.18,10.51,10.3,16.83,23.88,20.83,42.86,4-18.97,10.32-32.56,20.83-42.86,10.33-10.12,23.92-16.26,42.81-20.18-18.89-3.92-32.48-10.06-42.81-20.18-10.51-10.3-16.83-23.88-20.83-42.86-4,18.97-10.32,32.56-20.83,42.86-10.33,10.12-23.92,16.26-42.81,20.18Z"/>
      </g>
    </g>
  </g>
</svg>