<?xml version="1.0" encoding="UTF-8"?>
<svg id="Layer_2" data-name="Layer 2" xmlns="http://www.w3.org/2000/svg" viewBox="0 0 1165.7 1165.81">
  <defs>
    <style>
      .cls-1 {
        fill: #231f20;
      }
    </style>
  </defs>
  <g id="Layer_1-2" data-name="Layer 1">
    <path class="cls-1" d="m1165.7,574.79l-141.37-227.38-422.99,217.33,210.84-427.03L582.57,0l-229.26,138.3,212.45,427.52-430.85-206.25L0,590.84l141.08,227.56,423.64-216.98-211.2,426.38,229.44,138.01,229.44-138.01-211.4-426.78,430.09,205.21,134.62-231.44Zm-211.32,23.41l37.86,144.53-294.98-140.74,257.12-3.78Zm32.99-186.16l-33.59,145.58-257.12,3.78,290.7-149.36Zm119.06,183.93l-76.31,131.2-33.94-129.58,110.25-1.62Zm-.6-40.59l-110.25,1.62,30.11-130.52,80.14,128.9ZM432.39,138l129.96-78.4.14,110.26-130.11-31.86Zm130.16,73.66l.33,257.15-145.45-292.68,145.11,35.54Zm40.92,257.1l-.33-257.15,145.02-35.91-144.69,293.06Zm-.53-409.21l130.17,78.07-130.03,32.2-.14-110.26Zm.31,894.62v-257.15l145.07,292.87-145.07-35.72Zm130.06,73.83l-130.06,78.23v-110.26l130.06,32.03Zm-315.72-38.11l145.07-292.87v257.15l-145.07,35.72Zm145.07,6.08v110.26l-130.06-78.23,130.06-32.03Zm-93.64-391.14l-290.9,148.99,33.77-145.54,257.12-3.45Zm-257.67-37.13l-37.67-144.58,294.8,141.12-257.12,3.46Zm-75.57-129.06l33.77,129.62-110.25,1.48,76.48-131.1Zm34.32,170.21l-30.28,130.48-79.97-129,110.25-1.48Z"/>
  </g>
</svg>