<?xml version="1.0" encoding="UTF-8"?>
<svg id="Layer_2" data-name="Layer 2" xmlns="http://www.w3.org/2000/svg" viewBox="0 0 1367.07 1018.31">
  <defs>
    <style>
      .cls-1 {
        fill: #231f20;
      }
    </style>
  </defs>
  <g id="Layer_1-2" data-name="Layer 1">
    <path class="cls-1" d="m1016.86,387.84l350.21-196.39-343.71,126.15,315.28-245.33-349.77,198.2L1231.18,5.78l-313.65,246.34L1057.68,0l-239.69,264.77,21.06-209.14-136.82,251.27-100.57-140.94-17.45,207.46-210.06-55.73,104.02,138.63-294.22,36.19,212.95,53.08-342.89,123.75,296.19-38.88L0,826.86l343.71-126.15L28.44,946.05l349.77-198.2-242.32,264.69,313.65-246.34-140.14,252.12,239.69-264.77-21.06,209.14,136.82-251.27,100.57,140.93,17.45-207.46,210.06,55.73-104.03-138.63,294.22-36.19-212.95-53.08,342.89-123.75-296.2,38.88Zm-288.5,194.88c-92.07,60.12-188.17,76.55-214.24,36.63-26.07-39.92,27.63-121.3,119.7-181.42,92.07-60.12,188.17-76.55,214.24-36.63,26.07,39.92-27.63,121.3-119.7,181.42Z"/>
  </g>
</svg>