<?xml version="1.0" encoding="UTF-8"?>
<svg id="Layer_2" data-name="Layer 2" xmlns="http://www.w3.org/2000/svg" viewBox="0 0 1103.82 1103.53">
  <defs>
    <style>
      .cls-1 {
        fill: #231f20;
      }
    </style>
  </defs>
  <g id="Layer_1-2" data-name="Layer 1">
    <g>
      <g>
        <g>
          <path class="cls-1" d="m255.76,255.61c67.78,275.72-103.01,273.49-42.39-.55-274.04,60.62-276.27-110.16-.55-42.39-67.78-275.72,103.01-273.49,42.39.55,274.04-60.62,276.27,110.16.55,42.39Z"/>
          <path class="cls-1" d="m237.45,468.28c-4.68,0-9.38-1.47-13.79-4.41-14.42-9.62-24.54-33.45-28.51-67.1-4.28-36.33-1.03-82.09,9.38-132.87-50.78,10.42-96.54,13.66-132.87,9.38-33.65-3.96-57.48-14.09-67.1-28.51-5.97-8.95-5.87-19.11.27-27.86,9.81-13.98,33.64-23.3,67.11-26.23,35.97-3.16,81.32,1.28,131.72,12.83-11.55-50.4-15.99-95.75-12.83-131.72,2.94-33.47,12.25-57.3,26.23-67.11,8.76-6.14,18.91-6.24,27.86-.27,14.42,9.62,24.54,33.45,28.51,67.1,4.28,36.33,1.03,82.09-9.38,132.87,50.78-10.42,96.54-13.66,132.87-9.38,33.65,3.96,57.48,14.09,67.1,28.51,5.97,8.95,5.87,19.11-.27,27.86-9.81,13.98-33.64,23.3-67.11,26.23-35.97,3.16-81.32-1.28-131.72-12.83,11.55,50.4,15.99,95.75,12.83,131.72-2.94,33.47-12.25,57.3-26.23,67.11-4.44,3.12-9.25,4.68-14.07,4.68Zm-15.13-222.17l-2.3,10.41c-8.24,37.25-16.9,91.55-11.35,138.65,5.02,42.63,18.53,54.7,22.55,57.38,4.33,2.89,8.3,2.86,12.5-.09,3.87-2.71,16.78-14.86,20.49-57.17,4.11-46.8-5.92-100.92-15.05-138.07l-2.68-10.91,10.91,2.68c37.15,9.13,91.27,19.16,138.07,15.05,42.31-3.71,54.45-16.63,57.17-20.49,2.95-4.2,2.98-8.18.09-12.5-2.68-4.02-14.75-17.53-57.38-22.55-47.11-5.55-101.4,3.11-138.65,11.35l-10.41,2.3,2.3-10.41c8.24-37.25,16.9-91.55,11.35-138.65-5.02-42.64-18.53-54.7-22.55-57.38-4.33-2.89-8.3-2.86-12.5.09-3.87,2.71-16.78,14.86-20.49,57.17-4.11,46.8,5.92,100.92,15.05,138.07l2.68,10.91-10.91-2.68c-37.15-9.13-91.27-19.16-138.07-15.05-42.31,3.71-54.45,16.63-57.17,20.49-2.95,4.2-2.98,8.18-.09,12.5,2.68,4.02,14.75,17.53,57.38,22.55,47.1,5.55,101.4-3.11,138.65-11.35l10.41-2.3Z"/>
        </g>
        <g>
          <path class="cls-1" d="m468.28,468.14c67.78,275.72-103.01,273.49-42.39-.55-274.04,60.62-276.27-110.16-.55-42.39-67.78-275.72,103.01-273.49,42.39.55,274.04-60.62,276.27,110.16.55,42.39Z"/>
          <path class="cls-1" d="m449.98,680.81c-4.68,0-9.38-1.47-13.79-4.41-14.42-9.62-24.54-33.45-28.51-67.1-4.28-36.33-1.03-82.09,9.38-132.87-50.78,10.42-96.54,13.66-132.87,9.38-33.65-3.96-57.48-14.09-67.1-28.51-5.97-8.95-5.87-19.11.27-27.86,9.81-13.98,33.64-23.3,67.11-26.23,35.97-3.16,81.32,1.28,131.72,12.83-11.55-50.4-15.99-95.75-12.83-131.72,2.94-33.47,12.25-57.3,26.23-67.11,8.76-6.14,18.91-6.24,27.86-.27,14.42,9.62,24.54,33.45,28.51,67.1,4.28,36.33,1.03,82.09-9.38,132.87,50.78-10.42,96.54-13.66,132.87-9.38,33.65,3.96,57.48,14.09,67.1,28.51,5.97,8.95,5.87,19.11-.27,27.86-9.81,13.98-33.64,23.3-67.11,26.23-35.97,3.16-81.32-1.28-131.72-12.83,11.55,50.4,15.99,95.75,12.83,131.72-2.94,33.47-12.25,57.3-26.23,67.11-4.44,3.12-9.25,4.68-14.07,4.68Zm-15.13-222.17l-2.3,10.41c-8.24,37.25-16.9,91.55-11.35,138.65,5.02,42.63,18.53,54.7,22.55,57.38,4.33,2.89,8.3,2.86,12.5-.09,3.87-2.71,16.78-14.86,20.49-57.17,4.11-46.8-5.92-100.92-15.05-138.07l-2.68-10.91,10.91,2.68c37.15,9.13,91.27,19.16,138.07,15.05,42.31-3.71,54.45-16.63,57.17-20.49,2.95-4.2,2.98-8.18.09-12.5-2.68-4.02-14.75-17.53-57.38-22.55-47.11-5.55-101.4,3.11-138.65,11.35l-10.41,2.3,2.3-10.41c8.24-37.25,16.9-91.55,11.35-138.65-5.02-42.64-18.53-54.7-22.55-57.38-4.33-2.89-8.3-2.86-12.5.09-3.87,2.71-16.78,14.86-20.49,57.17-4.11,46.8,5.92,100.92,15.05,138.07l2.68,10.91-10.91-2.68c-37.15-9.13-91.27-19.16-138.07-15.05-42.31,3.71-54.45,16.63-57.17,20.49-2.95,4.2-2.98,8.18-.09,12.5,2.68,4.02,14.75,17.53,57.38,22.55,47.1,5.55,101.4-3.11,138.65-11.35l10.41-2.3Z"/>
        </g>
        <g>
          <path class="cls-1" d="m678.47,678.33c67.78,275.72-103.01,273.49-42.39-.55-274.04,60.62-276.27-110.16-.55-42.39-67.78-275.72,103.01-273.49,42.39.55,274.04-60.62,276.27,110.16.55,42.39Z"/>
          <path class="cls-1" d="m660.17,891c-4.68,0-9.38-1.47-13.79-4.41-14.42-9.62-24.54-33.45-28.51-67.1-4.28-36.33-1.03-82.09,9.38-132.87-50.78,10.42-96.54,13.66-132.87,9.38-33.65-3.96-57.48-14.09-67.1-28.51-5.97-8.95-5.87-19.11.27-27.86,9.81-13.98,33.64-23.3,67.11-26.23,35.97-3.16,81.32,1.28,131.72,12.83-11.55-50.4-15.99-95.75-12.83-131.72,2.94-33.47,12.25-57.3,26.23-67.11,8.76-6.14,18.91-6.24,27.86-.27,14.42,9.62,24.54,33.45,28.51,67.1,4.28,36.33,1.03,82.09-9.38,132.87,50.78-10.42,96.54-13.66,132.87-9.38,33.65,3.96,57.48,14.09,67.1,28.51,5.97,8.95,5.87,19.11-.27,27.86-9.81,13.98-33.64,23.3-67.11,26.23-35.97,3.16-81.32-1.28-131.72-12.83,11.55,50.4,15.99,95.75,12.83,131.72-2.94,33.47-12.25,57.3-26.23,67.11-4.44,3.12-9.25,4.68-14.07,4.68Zm-15.13-222.17l-2.3,10.41c-8.24,37.25-16.9,91.55-11.35,138.65,5.02,42.63,18.53,54.7,22.55,57.38,4.33,2.89,8.3,2.86,12.5-.09,3.87-2.71,16.78-14.86,20.49-57.17,4.11-46.8-5.92-100.92-15.05-138.07l-2.68-10.91,10.91,2.68c37.15,9.13,91.27,19.16,138.07,15.05,42.31-3.71,54.45-16.63,57.17-20.49,2.95-4.2,2.98-8.18.09-12.5-2.68-4.02-14.75-17.53-57.38-22.55-47.11-5.55-101.4,3.11-138.65,11.35l-10.41,2.3,2.3-10.41c8.24-37.25,16.9-91.55,11.35-138.65-5.02-42.64-18.53-54.7-22.55-57.38-4.33-2.89-8.3-2.86-12.5.09-3.87,2.71-16.78,14.86-20.49,57.17-4.11,46.8,5.92,100.92,15.05,138.07l2.68,10.91-10.91-2.68c-37.15-9.13-91.27-19.16-138.07-15.05-42.31,3.71-54.45,16.63-57.17,20.49-2.95,4.2-2.98,8.18-.09,12.5,2.68,4.02,14.75,17.53,57.38,22.55,47.1,5.55,101.4-3.11,138.65-11.35l10.41-2.3Z"/>
        </g>
        <g>
          <path class="cls-1" d="m891,890.86c67.78,275.72-103.01,273.49-42.39-.55-274.04,60.62-276.27-110.16-.55-42.39-67.78-275.72,103.01-273.49,42.39.55,274.04-60.62,276.27,110.16.55,42.39Z"/>
          <path class="cls-1" d="m872.69,1103.53c-4.68,0-9.38-1.47-13.79-4.41-14.42-9.62-24.54-33.45-28.51-67.1-4.28-36.33-1.03-82.09,9.38-132.87-50.78,10.42-96.54,13.66-132.87,9.38-33.65-3.96-57.48-14.09-67.1-28.51-5.97-8.95-5.87-19.11.27-27.86,9.81-13.98,33.64-23.3,67.11-26.23,35.97-3.16,81.32,1.28,131.72,12.83-11.55-50.4-15.99-95.75-12.83-131.72,2.94-33.47,12.25-57.3,26.23-67.11,8.76-6.14,18.91-6.24,27.86-.27,14.42,9.62,24.54,33.45,28.51,67.1,4.28,36.33,1.03,82.09-9.38,132.87,50.78-10.42,96.54-13.66,132.87-9.38,33.65,3.96,57.48,14.09,67.1,28.51,5.97,8.95,5.87,19.11-.27,27.86-9.81,13.98-33.64,23.3-67.11,26.23-35.97,3.16-81.32-1.28-131.72-12.83,11.55,50.4,15.99,95.75,12.83,131.72-2.94,33.47-12.25,57.3-26.23,67.11-4.44,3.12-9.25,4.68-14.07,4.68Zm-15.13-222.17l-2.3,10.41c-8.24,37.25-16.9,91.55-11.35,138.65,5.02,42.63,18.53,54.7,22.55,57.38,4.33,2.89,8.3,2.86,12.5-.09,3.87-2.71,16.78-14.86,20.49-57.17,4.11-46.8-5.92-100.92-15.05-138.07l-2.68-10.91,10.91,2.68c37.15,9.13,91.27,19.16,138.07,15.05,42.31-3.71,54.45-16.63,57.17-20.49,2.95-4.2,2.98-8.18.09-12.5-2.68-4.02-14.75-17.53-57.38-22.55-47.11-5.55-101.4,3.11-138.65,11.35l-10.41,2.3,2.3-10.41c8.24-37.25,16.9-91.55,11.35-138.65-5.02-42.64-18.53-54.7-22.55-57.38-4.33-2.89-8.3-2.86-12.5.09-3.87,2.71-16.78,14.86-20.49,57.17-4.11,46.8,5.92,100.92,15.05,138.07l2.68,10.91-10.91-2.68c-37.15-9.13-91.27-19.16-138.07-15.05-42.31,3.71-54.45,16.63-57.17,20.49-2.95,4.2-2.98,8.18-.09,12.5,2.68,4.02,14.75,17.53,57.38,22.55,47.1,5.55,101.4-3.11,138.65-11.35l10.41-2.3Z"/>
        </g>
      </g>
      <g>
        <g>
          <path class="cls-1" d="m848.2,255.74c-275.75,67.65-273.45-103.13.57-42.38-60.5-274.07,110.29-276.22,42.39-.53,275.75-67.65,273.45,103.13-.57,42.38,60.5,274.07-110.29,276.22-42.39.53Z"/>
          <path class="cls-1" d="m635.53,237.34c0-4.68,1.47-9.38,4.42-13.79,9.63-14.41,33.46-24.53,67.12-28.48,36.34-4.26,82.09-1,132.87,9.44-10.39-50.78-13.62-96.54-9.32-132.88,3.98-33.65,14.11-57.48,28.54-67.09,8.95-5.97,19.11-5.87,27.86.28,13.98,9.81,23.28,33.65,26.2,67.12,3.14,35.97-1.32,81.32-12.89,131.71,50.4-11.53,95.76-15.94,131.72-12.77,33.47,2.95,57.3,12.28,67.1,26.26,6.14,8.76,6.23,18.92.25,27.86-9.63,14.41-33.46,24.53-67.12,28.48-36.34,4.26-82.09,1-132.87-9.44,10.39,50.78,13.62,96.54,9.32,132.88-3.98,33.65-14.11,57.48-28.54,67.09-8.95,5.97-19.11,5.87-27.86-.28-13.98-9.81-23.28-33.65-26.2-67.12-3.14-35.97,1.32-81.32,12.89-131.71-50.4,11.53-95.76,15.94-131.72,12.77-33.47-2.95-57.3-12.28-67.1-26.26-3.12-4.45-4.67-9.25-4.67-14.08Zm222.18-15.03l-10.41-2.31c-37.25-8.26-91.54-16.94-138.65-11.41-42.64,5-54.71,18.5-57.39,22.52-2.89,4.33-2.86,8.3.08,12.5,2.71,3.87,14.85,16.79,57.16,20.52,46.8,4.13,100.92-5.87,138.08-14.99l10.91-2.68-2.69,10.91c-9.15,37.15-19.2,91.26-15.12,138.07,3.69,42.31,16.6,54.46,20.47,57.17,4.2,2.95,8.17,2.98,12.5.09,4.02-2.68,17.53-14.74,22.57-57.37,5.57-47.1-3.06-101.4-11.29-138.66l-2.3-10.41,10.41,2.31c37.25,8.26,91.54,16.94,138.64,11.41,42.64-5,54.71-18.5,57.39-22.52,2.89-4.33,2.86-8.3-.08-12.5-2.71-3.87-14.85-16.79-57.16-20.52-46.8-4.13-100.92,5.87-138.08,14.99l-10.91,2.68,2.69-10.91c9.15-37.15,19.2-91.26,15.12-138.07-3.69-42.31-16.6-54.46-20.47-57.17-4.2-2.95-8.17-2.98-12.5-.09-4.02,2.68-17.53,14.74-22.57,57.37-5.57,47.1,3.06,101.4,11.29,138.66l2.3,10.41Z"/>
        </g>
        <g>
          <path class="cls-1" d="m635.57,468.18c-275.75,67.65-273.45-103.13.57-42.38-60.5-274.07,110.29-276.22,42.39-.53,275.75-67.65,273.45,103.13-.57,42.38,60.5,274.07-110.29,276.22-42.39.53Z"/>
          <path class="cls-1" d="m422.91,449.77c0-4.68,1.47-9.38,4.42-13.79,9.63-14.41,33.46-24.53,67.12-28.48,36.34-4.26,82.09-1,132.87,9.44-10.39-50.78-13.62-96.54-9.32-132.88,3.98-33.65,14.11-57.48,28.54-67.09,8.95-5.97,19.11-5.87,27.86.28,13.98,9.81,23.28,33.65,26.2,67.12,3.14,35.97-1.32,81.32-12.89,131.71,50.4-11.53,95.76-15.94,131.72-12.77,33.47,2.95,57.3,12.28,67.1,26.26,6.14,8.76,6.23,18.92.25,27.86-9.63,14.41-33.46,24.53-67.12,28.48-36.34,4.26-82.09,1-132.87-9.44,10.39,50.78,13.62,96.54,9.32,132.88-3.98,33.65-14.11,57.48-28.54,67.09-8.95,5.97-19.11,5.87-27.86-.28-13.98-9.81-23.28-33.65-26.2-67.12-3.14-35.97,1.32-81.32,12.89-131.71-50.4,11.53-95.76,15.94-131.72,12.77-33.47-2.95-57.3-12.28-67.1-26.26-3.12-4.45-4.67-9.25-4.67-14.08Zm222.18-15.03l-10.41-2.31c-37.25-8.26-91.54-16.94-138.65-11.41-42.64,5-54.71,18.5-57.39,22.52-2.89,4.33-2.86,8.3.08,12.5,2.71,3.87,14.85,16.79,57.16,20.52,46.8,4.13,100.92-5.87,138.08-14.99l10.91-2.68-2.69,10.91c-9.15,37.15-19.2,91.26-15.12,138.07,3.69,42.31,16.6,54.46,20.47,57.17,4.2,2.95,8.17,2.98,12.5.09,4.02-2.68,17.53-14.74,22.57-57.37,5.57-47.1-3.06-101.4-11.29-138.66l-2.3-10.41,10.41,2.31c37.25,8.26,91.54,16.94,138.64,11.41,42.64-5,54.71-18.5,57.39-22.52,2.89-4.33,2.86-8.3-.08-12.5-2.71-3.87-14.85-16.79-57.16-20.52-46.8-4.13-100.92,5.87-138.08,14.99l-10.91,2.68,2.69-10.91c9.15-37.15,19.2-91.26,15.12-138.07-3.69-42.31-16.6-54.46-20.47-57.17-4.2-2.95-8.17-2.98-12.5-.09-4.02,2.68-17.53,14.74-22.57,57.37-5.57,47.1,3.06,101.4,11.29,138.66l2.3,10.41Z"/>
        </g>
        <g>
          <path class="cls-1" d="m425.29,678.27c-275.75,67.65-273.45-103.13.57-42.38-60.5-274.07,110.29-276.22,42.39-.53,275.75-67.65,273.45,103.13-.57,42.38,60.5,274.07-110.29,276.22-42.39.53Z"/>
          <path class="cls-1" d="m212.62,659.87c0-4.68,1.47-9.38,4.42-13.79,9.63-14.41,33.46-24.53,67.12-28.48,36.34-4.26,82.09-1,132.87,9.44-10.39-50.78-13.62-96.54-9.32-132.88,3.98-33.65,14.11-57.48,28.54-67.09,8.95-5.97,19.11-5.87,27.86.28,13.98,9.81,23.28,33.65,26.2,67.12,3.14,35.97-1.32,81.32-12.89,131.71,50.4-11.53,95.76-15.94,131.72-12.77,33.47,2.95,57.3,12.28,67.1,26.26,6.14,8.76,6.23,18.92.25,27.86-9.63,14.41-33.46,24.53-67.12,28.48-36.34,4.26-82.09,1-132.87-9.44,10.39,50.78,13.62,96.54,9.32,132.88-3.98,33.65-14.11,57.48-28.54,67.09-8.95,5.97-19.11,5.87-27.86-.28-13.98-9.81-23.28-33.65-26.2-67.12-3.14-35.97,1.32-81.32,12.89-131.71-50.4,11.53-95.76,15.94-131.72,12.77-33.47-2.95-57.3-12.28-67.1-26.26-3.12-4.45-4.67-9.25-4.67-14.08Zm222.18-15.03l-10.41-2.31c-37.25-8.26-91.54-16.94-138.65-11.41-42.64,5-54.71,18.5-57.39,22.52-2.89,4.33-2.86,8.3.08,12.5,2.71,3.87,14.85,16.79,57.16,20.52,46.8,4.13,100.92-5.87,138.08-14.99l10.91-2.68-2.69,10.91c-9.15,37.15-19.2,91.26-15.12,138.07,3.69,42.31,16.6,54.46,20.47,57.17,4.2,2.95,8.17,2.98,12.5.09,4.02-2.68,17.53-14.74,22.57-57.37,5.57-47.1-3.06-101.4-11.29-138.66l-2.3-10.41,10.41,2.31c37.25,8.26,91.54,16.94,138.64,11.41,42.64-5,54.71-18.5,57.39-22.52,2.89-4.33,2.86-8.3-.08-12.5-2.71-3.87-14.85-16.79-57.16-20.52-46.8-4.13-100.92,5.87-138.08,14.99l-10.91,2.68,2.69-10.91c9.15-37.15,19.2-91.26,15.12-138.07-3.69-42.31-16.6-54.46-20.47-57.17-4.2-2.95-8.17-2.98-12.5-.09-4.02,2.68-17.53,14.74-22.57,57.37-5.57,47.1,3.06,101.4,11.29,138.66l2.3,10.41Z"/>
        </g>
        <g>
          <path class="cls-1" d="m212.66,890.7c-275.75,67.65-273.45-103.13.57-42.38-60.5-274.07,110.29-276.22,42.39-.53,275.75-67.65,273.45,103.13-.57,42.38,60.5,274.07-110.29,276.22-42.39.53Z"/>
          <path class="cls-1" d="m0,872.3c0-4.68,1.47-9.38,4.42-13.79,9.63-14.41,33.46-24.53,67.12-28.48,36.34-4.26,82.09-1,132.87,9.44-10.39-50.78-13.62-96.54-9.32-132.88,3.98-33.65,14.11-57.48,28.54-67.09,8.95-5.97,19.11-5.87,27.86.28,13.98,9.81,23.28,33.65,26.2,67.12,3.14,35.97-1.32,81.32-12.89,131.71,50.4-11.53,95.76-15.94,131.72-12.77,33.47,2.95,57.3,12.28,67.1,26.26,6.14,8.76,6.23,18.92.25,27.86-9.63,14.41-33.46,24.53-67.12,28.48-36.34,4.26-82.09,1-132.87-9.44,10.39,50.78,13.62,96.54,9.32,132.88-3.98,33.65-14.11,57.48-28.54,67.09-8.95,5.97-19.11,5.87-27.86-.28-13.98-9.81-23.28-33.65-26.2-67.12-3.14-35.97,1.32-81.32,12.89-131.71-50.4,11.53-95.76,15.94-131.72,12.77-33.47-2.95-57.3-12.28-67.1-26.26C1.56,881.93,0,877.12,0,872.3Zm222.18-15.03l-10.41-2.31c-37.25-8.26-91.54-16.94-138.65-11.41-42.64,5-54.71,18.5-57.39,22.52-2.89,4.33-2.86,8.3.08,12.5,2.71,3.87,14.85,16.79,57.16,20.52,46.8,4.13,100.92-5.87,138.08-14.99l10.91-2.68-2.69,10.91c-9.15,37.15-19.2,91.26-15.12,138.07,3.69,42.31,16.6,54.46,20.47,57.17,4.2,2.95,8.17,2.98,12.5.09,4.02-2.68,17.53-14.74,22.57-57.37,5.57-47.1-3.06-101.4-11.29-138.66l-2.3-10.41,10.41,2.31c37.25,8.26,91.54,16.94,138.64,11.41,42.64-5,54.71-18.5,57.39-22.52,2.89-4.33,2.86-8.3-.08-12.5-2.71-3.87-14.85-16.79-57.16-20.52-46.8-4.13-100.92,5.87-138.08,14.99l-10.91,2.68,2.69-10.91c9.15-37.15,19.2-91.26,15.12-138.07-3.69-42.31-16.6-54.46-20.47-57.17-4.2-2.95-8.17-2.98-12.5-.09-4.02,2.68-17.53,14.74-22.57,57.37-5.57,47.1,3.06,101.4,11.29,138.66l2.3,10.41Z"/>
        </g>
      </g>
    </g>
  </g>
</svg>