<?xml version="1.0" encoding="UTF-8"?>
<svg id="Layer_2" data-name="Layer 2" xmlns="http://www.w3.org/2000/svg" viewBox="0 0 1060.82 1062.1">
  <defs>
    <style>
      .cls-1 {
        fill: #231f20;
      }
    </style>
  </defs>
  <g id="Layer_1-2" data-name="Layer 1">
    <g>
      <g>
        <path class="cls-1" d="m359.04,185.15q-86.05-86.05-172.09,0,86.05-86.05,0-172.09,86.05,86.05,172.09,0-86.05,86.05,0,172.09Z"/>
        <path class="cls-1" d="m345.98,198.21s-.05-.05-.07-.07l-.09-.09s-.05-.05-.08-.08c-36.73-36.73-58.92-58.89-72.75-58.89s-36.02,22.16-72.75,58.89c-.03.03-.05.05-.08.08l-.09.09s-.05.05-.07.07l-26.11-26.11c36.87-36.87,59.13-59.13,59.13-72.99s-22.26-36.12-59.13-72.99L200,0c.06.06.13.13.19.19l.05.05c36.73,36.73,58.92,58.89,72.75,58.89S309.02,36.97,345.75.24l.05-.05c.06-.06.13-.13.19-.19l26.11,26.11c-36.87,36.87-59.13,59.13-59.13,72.99s22.26,36.12,59.13,72.99l-26.11,26.11Zm-72.99-96.06c1.05,0,2.1.03,3.14.09-.06-1.04-.09-2.08-.09-3.14s.03-2.1.09-3.14c-2.08.12-4.2.12-6.28,0,.06,1.04.09,2.08.09,3.14s-.03,2.1-.09,3.14c1.04-.06,2.08-.09,3.14-.09Z"/>
      </g>
      <g>
        <path class="cls-1" d="m531.22,185.15q-86.05-86.05-172.09,0,86.05-86.05,0-172.09,86.05,86.05,172.09,0-86.05,86.05,0,172.09Z"/>
        <path class="cls-1" d="m518.16,198.21s-.05-.05-.07-.07l-.09-.09s-.05-.05-.08-.08c-36.73-36.73-58.92-58.89-72.75-58.89s-36.02,22.16-72.75,58.89c-.03.03-.05.05-.08.08l-.09.09s-.05.05-.07.07l-26.11-26.11c36.87-36.87,59.13-59.13,59.13-72.99s-22.26-36.12-59.13-72.99L372.18,0c.06.06.13.13.19.19l.05.05c36.73,36.73,58.92,58.89,72.75,58.89S481.2,36.97,517.93.24l.05-.05c.06-.06.13-.13.19-.19l26.11,26.11c-36.87,36.87-59.13,59.13-59.13,72.99s22.26,36.12,59.13,72.99l-26.11,26.11Zm-72.99-96.06c1.05,0,2.1.03,3.14.09-.06-1.04-.09-2.08-.09-3.14s.03-2.1.09-3.14c-2.08.12-4.2.12-6.28,0,.06,1.04.09,2.08.09,3.14s-.03,2.1-.09,3.14c1.04-.06,2.08-.09,3.14-.09Z"/>
      </g>
      <g>
        <path class="cls-1" d="m703.4,185.15q-86.05-86.05-172.09,0,86.05-86.05,0-172.09,86.05,86.05,172.09,0-86.05,86.05,0,172.09Z"/>
        <path class="cls-1" d="m544.36,198.21l-26.11-26.11c36.87-36.87,59.13-59.13,59.13-72.99s-22.17-36.04-58.92-72.79c-.07-.07-.14-.14-.2-.2l26.11-26.11.14.14c.08.08.16.16.24.24,36.65,36.65,58.8,58.75,72.61,58.75s36.03-22.16,72.76-58.89c.02-.02.03-.03.05-.05.06-.06.13-.13.19-.19l26.11,26.11c-36.87,36.87-59.13,59.13-59.13,72.99s22.26,36.12,59.13,72.99l-26.11,26.11s-.05-.05-.07-.07c-.03-.03-.06-.06-.09-.09-.03-.03-.05-.05-.08-.08-36.73-36.73-58.92-58.89-72.75-58.89s-36.12,22.26-72.99,59.13Zm69.85-102.24c.06,1.04.09,2.08.09,3.14s-.03,2.1-.09,3.14c2.08-.12,4.2-.12,6.28,0-.06-1.04-.09-2.08-.09-3.14s.03-2.1.09-3.14c-2.08.12-4.2.12-6.28,0Z"/>
      </g>
      <g>
        <path class="cls-1" d="m875.58,185.15q-86.05-86.05-172.09,0,86.05-86.05,0-172.09,86.05,86.05,172.09,0-86.05,86.05,0,172.09Z"/>
        <path class="cls-1" d="m862.52,198.21s-.05-.05-.07-.07c-.03-.03-.06-.06-.09-.09-.03-.03-.05-.05-.08-.08-36.73-36.73-58.92-58.89-72.75-58.89s-36.02,22.16-72.75,58.89c-.03.03-.05.05-.08.08-.03.03-.06.06-.09.09-.02.02-.05.05-.07.07l-26.11-26.11c36.87-36.87,59.13-59.13,59.13-72.99s-22.26-36.12-59.13-72.99L716.54,0c.06.06.13.13.19.19.02.02.03.03.05.05,36.73,36.73,58.92,58.89,72.76,58.89s36.03-22.16,72.76-58.89c.02-.02.03-.03.05-.05.06-.06.13-.13.19-.19l26.11,26.11c-36.87,36.87-59.13,59.13-59.13,72.99s22.26,36.12,59.13,72.99l-26.11,26.11Zm-72.99-96.06c1.05,0,2.1.03,3.14.09-.06-1.04-.09-2.08-.09-3.14s.03-2.1.09-3.14c-2.08.12-4.2.12-6.28,0,.06,1.04.09,2.08.09,3.14s-.03,2.1-.09,3.14c1.04-.06,2.08-.09,3.14-.09Z"/>
      </g>
      <g>
        <path class="cls-1" d="m1047.76,185.15q-86.05-86.05-172.09,0,86.05-86.05,0-172.09,86.05,86.05,172.09,0-86.05,86.05,0,172.09Z"/>
        <path class="cls-1" d="m1034.7,198.21s-.05-.05-.07-.07c-.03-.03-.06-.06-.09-.09-.03-.03-.05-.05-.08-.08-36.73-36.73-58.92-58.89-72.75-58.89s-36.02,22.16-72.75,58.89c-.03.03-.05.05-.08.08-.03.03-.06.06-.09.09-.02.02-.05.05-.07.07l-26.11-26.11c36.87-36.87,59.13-59.13,59.13-72.99s-22.26-36.12-59.13-72.99L888.72,0c.06.06.13.13.19.19.02.02.03.03.05.05,36.73,36.73,58.92,58.89,72.76,58.89s36.03-22.16,72.76-58.89c.02-.02.03-.03.05-.05.06-.06.13-.13.19-.19l26.11,26.11c-36.87,36.87-59.13,59.13-59.13,72.99s22.26,36.12,59.13,72.99l-26.11,26.11Zm-72.99-96.06c1.05,0,2.1.03,3.14.09-.06-1.04-.09-2.08-.09-3.14s.03-2.1.09-3.14c-2.08.12-4.2.12-6.28,0,.06,1.04.09,2.08.09,3.14s-.03,2.1-.09,3.14c1.04-.06,2.08-.09,3.14-.09Z"/>
      </g>
      <g>
        <path class="cls-1" d="m186.01,357.93q-86.05-86.05-172.09,0,86.05-86.05,0-172.09,86.05,86.05,172.09,0-86.05,86.05,0,172.09Z"/>
        <path class="cls-1" d="m172.95,370.99s-.05-.05-.07-.07c-36.83-36.83-59.07-59.06-72.92-59.06s-36.09,22.23-72.92,59.06c-.02.02-.05.05-.07.07L.85,344.87c36.87-36.87,59.13-59.13,59.13-72.99S37.75,235.79.92,198.96c-.02-.02-.05-.05-.07-.07l26.11-26.11c36.87,36.87,59.13,59.13,72.99,59.13s36.12-22.26,72.99-59.13l26.11,26.11s-.05.05-.07.07c-36.83,36.83-59.06,59.07-59.06,72.92s22.26,36.12,59.13,72.99l-26.11,26.11Zm-72.99-96.06c1.05,0,2.1.03,3.14.09-.06-1.04-.09-2.08-.09-3.14s.03-2.1.09-3.14c-2.08.12-4.2.12-6.28,0,.06,1.04.09,2.08.09,3.14s-.03,2.1-.09,3.14c1.04-.06,2.08-.09,3.14-.09Z"/>
      </g>
      <g>
        <path class="cls-1" d="m530.36,357.93q-86.05-86.05-172.09,0,86.05-86.05,0-172.09,86.05,86.05,172.09,0-86.05,86.05,0,172.09Z"/>
        <path class="cls-1" d="m517.31,370.99c-36.87-36.87-59.13-59.13-72.99-59.13s-36.04,22.17-72.79,58.92c-.07.07-.14.14-.2.21l-26.11-26.11c.05-.05.11-.11.16-.16.03-.03.05-.05.08-.08,36.73-36.73,58.89-58.92,58.89-72.75s-22.16-36.02-58.89-72.75c-.03-.03-.05-.05-.08-.08-.03-.03-.06-.06-.09-.09-.02-.02-.05-.05-.07-.07l26.11-26.11c36.87,36.87,59.13,59.13,72.99,59.13s36.12-22.26,72.99-59.13l26.11,26.11c-.06.06-.13.13-.19.19-.02.02-.03.03-.05.05-36.73,36.73-58.89,58.92-58.89,72.75s22.16,36.02,58.89,72.75c.02.02.03.03.05.05.06.06.13.13.19.19l-26.11,26.11Zm-72.99-96.06c1.05,0,2.1.03,3.14.09-.06-1.04-.09-2.08-.09-3.14s.03-2.1.09-3.14c-2.08.12-4.2.12-6.28,0,.06,1.04.09,2.08.09,3.14s-.03,2.1-.09,3.14c1.04-.06,2.08-.09,3.14-.09Z"/>
      </g>
      <g>
        <path class="cls-1" d="m702.54,357.93q-86.05-86.05-172.09,0,86.05-86.05,0-172.09,86.05,86.05,172.09,0-86.05,86.05,0,172.09Z"/>
        <path class="cls-1" d="m689.49,370.99s-.05-.05-.07-.07c-36.83-36.83-59.07-59.06-72.92-59.06s-36.09,22.23-72.92,59.06c-.02.02-.05.05-.07.07l-26.11-26.11c36.87-36.87,59.13-59.13,59.13-72.99s-22.23-36.09-59.06-72.92c-.02-.02-.05-.05-.07-.07l26.11-26.11c36.87,36.87,59.13,59.13,72.99,59.13s36.12-22.26,72.99-59.13l26.11,26.11s-.05.05-.07.07c-36.83,36.83-59.06,59.07-59.06,72.92s22.26,36.12,59.13,72.99l-26.11,26.11Zm-72.99-96.06c1.05,0,2.1.03,3.14.09-.06-1.04-.09-2.08-.09-3.14s.03-2.1.09-3.14c-2.08.12-4.2.12-6.28,0,.06,1.04.09,2.08.09,3.14s-.03,2.1-.09,3.14c1.04-.06,2.08-.09,3.14-.09Z"/>
      </g>
      <g>
        <path class="cls-1" d="m874.72,357.93q-86.05-86.05-172.09,0,86.05-86.05,0-172.09,86.05,86.05,172.09,0-86.05,86.05,0,172.09Z"/>
        <path class="cls-1" d="m861.67,370.99s-.05-.05-.07-.07c-36.83-36.83-59.07-59.06-72.92-59.06s-36.09,22.23-72.92,59.06c-.02.02-.05.05-.07.07l-26.11-26.11c36.87-36.87,59.13-59.13,59.13-72.99s-22.23-36.09-59.06-72.92c-.02-.02-.05-.05-.07-.07l26.11-26.11c36.87,36.87,59.13,59.13,72.99,59.13s36.12-22.26,72.99-59.13l26.11,26.11s-.05.05-.07.07c-36.83,36.83-59.06,59.07-59.06,72.92s22.26,36.12,59.13,72.99l-26.11,26.11Zm-72.99-96.06c1.05,0,2.1.03,3.14.09-.06-1.04-.09-2.08-.09-3.14s.03-2.1.09-3.14c-2.08.12-4.2.12-6.28,0,.06,1.04.09,2.08.09,3.14s-.03,2.1-.09,3.14c1.04-.06,2.08-.09,3.14-.09Z"/>
      </g>
      <g>
        <path class="cls-1" d="m1046.9,357.93q-86.05-86.05-172.09,0,86.05-86.05,0-172.09,86.05,86.05,172.09,0-86.05,86.05,0,172.09Z"/>
        <path class="cls-1" d="m1033.85,370.99s-.05-.05-.07-.07c-36.83-36.83-59.07-59.06-72.92-59.06s-36.09,22.23-72.92,59.06c-.02.02-.05.05-.07.07l-26.11-26.11c36.87-36.87,59.13-59.13,59.13-72.99s-22.23-36.09-59.06-72.92c-.02-.02-.05-.05-.07-.07l26.11-26.11c36.87,36.87,59.13,59.13,72.99,59.13s36.12-22.26,72.99-59.13l26.11,26.11s-.05.05-.07.07c-36.83,36.83-59.06,59.07-59.06,72.92s22.26,36.12,59.13,72.99l-26.11,26.11Zm-72.99-96.06c1.05,0,2.1.03,3.14.09-.06-1.04-.09-2.08-.09-3.14s.03-2.1.09-3.14c-2.08.12-4.2.12-6.28,0,.06,1.04.09,2.08.09,3.14s-.03,2.1-.09,3.14c1.04-.06,2.08-.09,3.14-.09Z"/>
      </g>
      <g>
        <path class="cls-1" d="m186.01,530.71q-86.05-86.05-172.09,0,86.05-86.05,0-172.09,86.05,86.05,172.09,0-86.05,86.05,0,172.09Z"/>
        <path class="cls-1" d="m172.95,543.76s-.05-.05-.07-.07c-36.83-36.83-59.07-59.06-72.92-59.06s-36.09,22.23-72.92,59.06c-.02.02-.05.05-.07.07l-26.11-26.11c36.87-36.87,59.13-59.13,59.13-72.99s-22.23-36.09-59.06-72.92c-.02-.02-.05-.05-.07-.07l26.11-26.11c36.87,36.87,59.13,59.13,72.99,59.13s36.12-22.26,72.99-59.13l26.11,26.11s-.05.05-.07.07c-36.83,36.83-59.06,59.07-59.06,72.92s22.26,36.12,59.13,72.99l-26.11,26.11Zm-72.99-96.06c1.05,0,2.1.03,3.14.09-.06-1.04-.09-2.08-.09-3.14s.03-2.1.09-3.14c-2.08.12-4.2.12-6.28,0,.06,1.04.09,2.08.09,3.14s-.03,2.1-.09,3.14c1.04-.06,2.08-.09,3.14-.09Z"/>
      </g>
      <g>
        <path class="cls-1" d="m874.72,530.71q-86.05-86.05-172.09,0,86.05-86.05,0-172.09,86.05,86.05,172.09,0-86.05,86.05,0,172.09Z"/>
        <path class="cls-1" d="m861.67,543.76s-.05-.05-.07-.07c-36.83-36.83-59.07-59.06-72.92-59.06s-36.09,22.23-72.92,59.06c-.02.02-.05.05-.07.07l-26.11-26.11c36.87-36.87,59.13-59.13,59.13-72.99s-22.23-36.09-59.06-72.92c-.02-.02-.05-.05-.07-.07l26.11-26.11c36.87,36.87,59.13,59.13,72.99,59.13s36.12-22.26,72.99-59.13l26.11,26.11s-.05.05-.07.07c-36.83,36.83-59.06,59.07-59.06,72.92s22.26,36.12,59.13,72.99l-26.11,26.11Zm-72.99-96.06c1.05,0,2.1.03,3.14.09-.06-1.04-.09-2.08-.09-3.14s.03-2.1.09-3.14c-2.08.12-4.2.12-6.28,0,.06,1.04.09,2.08.09,3.14s-.03,2.1-.09,3.14c1.04-.06,2.08-.09,3.14-.09Z"/>
      </g>
      <g>
        <path class="cls-1" d="m1046.9,530.71q-86.05-86.05-172.09,0,86.05-86.05,0-172.09,86.05,86.05,172.09,0-86.05,86.05,0,172.09Z"/>
        <path class="cls-1" d="m1033.85,543.76s-.05-.05-.07-.07c-36.83-36.83-59.07-59.06-72.92-59.06s-36.09,22.23-72.92,59.06c-.02.02-.05.05-.07.07l-26.11-26.11c36.87-36.87,59.13-59.13,59.13-72.99s-22.23-36.09-59.06-72.92c-.02-.02-.05-.05-.07-.07l26.11-26.11c36.87,36.87,59.13,59.13,72.99,59.13s36.12-22.26,72.99-59.13l26.11,26.11s-.05.05-.07.07c-36.83,36.83-59.06,59.07-59.06,72.92s22.26,36.12,59.13,72.99l-26.11,26.11Zm-72.99-96.06c1.05,0,2.1.03,3.14.09-.06-1.04-.09-2.08-.09-3.14s.03-2.1.09-3.14c-2.08.12-4.2.12-6.28,0,.06,1.04.09,2.08.09,3.14s-.03,2.1-.09,3.14c1.04-.06,2.08-.09,3.14-.09Z"/>
      </g>
      <g>
        <path class="cls-1" d="m185.15,703.48q-86.05-86.05-172.09,0,86.05-86.05,0-172.09,86.05,86.05,172.09,0-86.05,86.05,0,172.09Z"/>
        <path class="cls-1" d="m172.1,716.54c-36.87-36.87-59.13-59.13-72.99-59.13s-36.09,22.23-72.92,59.06c-.02.02-.05.05-.07.07l-26.11-26.11c36.87-36.87,59.13-59.13,59.13-72.99S36.9,581.35.07,544.52c-.02-.02-.05-.05-.07-.07l26.11-26.11c36.87,36.87,59.13,59.13,72.99,59.13s36.12-22.26,72.99-59.13l26.11,26.11c-36.87,36.87-59.13,59.13-59.13,72.99s22.26,36.12,59.13,72.99l-26.11,26.11Zm-72.99-96.06c1.05,0,2.1.03,3.14.09-.06-1.04-.09-2.08-.09-3.14s.03-2.1.09-3.14c-2.08.12-4.2.12-6.28,0,.06,1.04.09,2.08.09,3.14s-.03,2.1-.09,3.14c1.04-.06,2.08-.09,3.14-.09Z"/>
      </g>
      <g>
        <path class="cls-1" d="m357.33,703.48q-86.05-86.05-172.09,0,86.05-86.05,0-172.09,86.05,86.05,172.09,0-86.05,86.05,0,172.09Z"/>
        <path class="cls-1" d="m344.28,716.54c-36.87-36.87-59.13-59.13-72.99-59.13s-36.04,22.17-72.79,58.92c-.07.07-.14.14-.2.21l-26.11-26.11.16-.16s.05-.05.08-.08c36.73-36.73,58.89-58.92,58.89-72.75s-22.16-36.02-58.89-72.75c-.03-.03-.05-.05-.08-.08-.03-.03-.06-.06-.09-.09-.02-.02-.05-.05-.07-.07l26.11-26.11c36.87,36.87,59.13,59.13,72.99,59.13s36.12-22.26,72.99-59.13l26.11,26.11c-.06.06-.13.13-.19.19-.02.02-.03.03-.05.05-36.73,36.73-58.89,58.92-58.89,72.76s22.16,36.03,58.89,72.76c.02.02.03.03.05.05.06.06.13.13.19.19l-26.11,26.11Zm-72.99-96.06c1.05,0,2.1.03,3.14.09-.06-1.04-.09-2.08-.09-3.14s.03-2.1.09-3.14c-2.08.12-4.2.12-6.28,0,.06,1.04.09,2.08.09,3.14s-.03,2.1-.09,3.14c1.04-.06,2.08-.09,3.14-.09Z"/>
      </g>
      <g>
        <path class="cls-1" d="m529.51,703.48q-86.05-86.05-172.09,0,86.05-86.05,0-172.09,86.05,86.05,172.09,0-86.05,86.05,0,172.09Z"/>
        <path class="cls-1" d="m370.47,716.54l-26.11-26.11c.06-.06.13-.13.19-.19.02-.02.03-.03.05-.05,36.73-36.73,58.89-58.92,58.89-72.76s-22.16-36.03-58.89-72.76c-.02-.02-.03-.03-.05-.05-.06-.06-.13-.13-.19-.19l26.11-26.11c36.87,36.87,59.13,59.13,72.99,59.13s36.12-22.26,72.99-59.13l26.11,26.11-.07.07-.09.09-.08.08c-36.73,36.73-58.89,58.92-58.89,72.75s22.16,36.02,58.89,72.75l.08.08.16.16-26.11,26.11c-.07-.07-.14-.14-.2-.21-36.75-36.75-58.95-58.92-72.79-58.92s-36.12,22.26-72.99,59.13Zm69.85-102.24c.06,1.04.09,2.08.09,3.14s-.03,2.1-.09,3.14c2.08-.12,4.2-.12,6.28,0-.06-1.04-.09-2.08-.09-3.14s.03-2.1.09-3.14c-2.08.12-4.2.12-6.28,0Z"/>
      </g>
      <g>
        <path class="cls-1" d="m701.69,703.48q-86.05-86.05-172.09,0,86.05-86.05,0-172.09,86.05,86.05,172.09,0-86.05,86.05,0,172.09Z"/>
        <path class="cls-1" d="m542.65,716.54l-26.11-26.11c36.87-36.87,59.13-59.13,59.13-72.99s-22.26-36.12-59.13-72.99l26.11-26.11c36.87,36.87,59.13,59.13,72.99,59.13s36.12-22.26,72.99-59.13l26.11,26.11s-.05.05-.07.07c-36.83,36.83-59.06,59.07-59.06,72.92s22.26,36.12,59.13,72.99l-26.11,26.11s-.05-.05-.07-.07c-36.83-36.83-59.07-59.06-72.92-59.06s-36.12,22.26-72.99,59.13Zm69.85-102.24c.06,1.04.09,2.08.09,3.14s-.03,2.1-.09,3.14c2.08-.12,4.2-.12,6.28,0-.06-1.04-.09-2.08-.09-3.14s.03-2.1.09-3.14c-2.08.12-4.2.12-6.28,0Z"/>
      </g>
      <g>
        <path class="cls-1" d="m873.87,703.48q-86.05-86.05-172.09,0,86.05-86.05,0-172.09,86.05,86.05,172.09,0-86.05,86.05,0,172.09Z"/>
        <path class="cls-1" d="m860.81,716.54s-.05-.05-.07-.07c-36.83-36.83-59.07-59.06-72.92-59.06s-36.09,22.23-72.92,59.06c-.02.02-.05.05-.07.07l-26.11-26.11c36.87-36.87,59.13-59.13,59.13-72.99s-22.23-36.09-59.06-72.92c-.02-.02-.05-.05-.07-.07l26.11-26.11c36.87,36.87,59.13,59.13,72.99,59.13s36.12-22.26,72.99-59.13l26.11,26.11s-.05.05-.07.07c-36.83,36.83-59.06,59.07-59.06,72.92s22.26,36.12,59.13,72.99l-26.11,26.11Zm-72.99-96.06c1.05,0,2.1.03,3.14.09-.06-1.04-.09-2.08-.09-3.14s.03-2.1.09-3.14c-2.08.12-4.2.12-6.28,0,.06,1.04.09,2.08.09,3.14s-.03,2.1-.09,3.14c1.04-.06,2.08-.09,3.14-.09Z"/>
      </g>
      <g>
        <path class="cls-1" d="m1046.05,703.48q-86.05-86.05-172.09,0,86.05-86.05,0-172.09,86.05,86.05,172.09,0-86.05,86.05,0,172.09Z"/>
        <path class="cls-1" d="m1032.99,716.54s-.05-.05-.07-.07c-36.83-36.83-59.07-59.06-72.92-59.06s-36.09,22.23-72.92,59.06c-.02.02-.05.05-.07.07l-26.11-26.11c36.87-36.87,59.13-59.13,59.13-72.99s-22.23-36.09-59.06-72.92c-.02-.02-.05-.05-.07-.07l26.11-26.11c36.87,36.87,59.13,59.13,72.99,59.13s36.12-22.26,72.99-59.13l26.11,26.11s-.05.05-.07.07c-36.83,36.83-59.06,59.07-59.06,72.92s22.26,36.12,59.13,72.99l-26.11,26.11Zm-72.99-96.06c1.05,0,2.1.03,3.14.09-.06-1.04-.09-2.08-.09-3.14s.03-2.1.09-3.14c-2.08.12-4.2.12-6.28,0,.06,1.04.09,2.08.09,3.14s-.03,2.1-.09,3.14c1.04-.06,2.08-.09,3.14-.09Z"/>
      </g>
      <g>
        <path class="cls-1" d="m186.86,876.26q-86.05-86.05-172.09,0,86.05-86.05,0-172.09,86.05,86.05,172.09,0-86.05,86.05,0,172.09Z"/>
        <path class="cls-1" d="m173.8,889.32s-.05-.05-.07-.07c-36.83-36.83-59.07-59.06-72.92-59.06s-36.09,22.23-72.92,59.06c-.02.02-.05.05-.07.07l-26.11-26.11c36.87-36.87,59.13-59.13,59.13-72.99s-22.23-36.09-59.06-72.92c-.02-.02-.05-.05-.07-.07l26.11-26.11c36.87,36.87,59.13,59.13,72.99,59.13s36.12-22.26,72.99-59.13l26.11,26.11s-.05.05-.07.07c-36.83,36.83-59.06,59.07-59.06,72.92s22.26,36.12,59.13,72.99l-26.11,26.11Zm-72.99-96.06c1.05,0,2.1.03,3.14.09-.06-1.04-.09-2.08-.09-3.14s.03-2.1.09-3.14c-2.08.12-4.2.12-6.28,0,.06,1.04.09,2.08.09,3.14s-.03,2.1-.09,3.14c1.04-.06,2.08-.09,3.14-.09Z"/>
      </g>
      <g>
        <path class="cls-1" d="m359.04,876.26q-86.05-86.05-172.09,0,86.05-86.05,0-172.09,86.05,86.05,172.09,0-86.05,86.05,0,172.09Z"/>
        <path class="cls-1" d="m345.98,889.32s-.05-.05-.07-.07c-36.83-36.83-59.07-59.06-72.92-59.06s-36.09,22.23-72.92,59.06c-.02.02-.05.05-.07.07l-26.11-26.11c36.87-36.87,59.13-59.13,59.13-72.99s-22.23-36.09-59.06-72.92c-.02-.02-.05-.05-.07-.07l26.11-26.11c36.87,36.87,59.13,59.13,72.99,59.13s36.12-22.26,72.99-59.13l26.11,26.11s-.05.05-.07.07c-36.83,36.83-59.06,59.07-59.06,72.92s22.26,36.12,59.13,72.99l-26.11,26.11Zm-72.99-96.06c1.05,0,2.1.03,3.14.09-.06-1.04-.09-2.08-.09-3.14s.03-2.1.09-3.14c-2.08.12-4.2.12-6.28,0,.06,1.04.09,2.08.09,3.14s-.03,2.1-.09,3.14c1.04-.06,2.08-.09,3.14-.09Z"/>
      </g>
      <g>
        <path class="cls-1" d="m531.22,876.26q-86.05-86.05-172.09,0,86.05-86.05,0-172.09,86.05,86.05,172.09,0-86.05,86.05,0,172.09Z"/>
        <path class="cls-1" d="m518.16,889.32s-.05-.05-.07-.07c-36.83-36.83-59.07-59.06-72.92-59.06s-36.09,22.23-72.92,59.06c-.02.02-.05.05-.07.07l-26.11-26.11c36.87-36.87,59.13-59.13,59.13-72.99s-22.23-36.09-59.06-72.92c-.02-.02-.05-.05-.07-.07l26.11-26.11c36.87,36.87,59.13,59.13,72.99,59.13s36.12-22.26,72.99-59.13l26.11,26.11s-.05.05-.07.07c-36.83,36.83-59.06,59.07-59.06,72.92s22.26,36.12,59.13,72.99l-26.11,26.11Zm-72.99-96.06c1.05,0,2.1.03,3.14.09-.06-1.04-.09-2.08-.09-3.14s.03-2.1.09-3.14c-2.08.12-4.2.12-6.28,0,.06,1.04.09,2.08.09,3.14s-.03,2.1-.09,3.14c1.04-.06,2.08-.09,3.14-.09Z"/>
      </g>
      <g>
        <path class="cls-1" d="m703.4,876.26q-86.05-86.05-172.09,0,86.05-86.05,0-172.09,86.05,86.05,172.09,0-86.05,86.05,0,172.09Z"/>
        <path class="cls-1" d="m544.36,889.32l-26.11-26.11c36.87-36.87,59.13-59.13,59.13-72.99s-22.26-36.12-59.13-72.99l26.11-26.11c36.87,36.87,59.13,59.13,72.99,59.13s36.12-22.26,72.99-59.13l26.11,26.11s-.05.05-.07.07c-36.83,36.83-59.06,59.07-59.06,72.92s22.26,36.12,59.13,72.99l-26.11,26.11s-.05-.05-.07-.07c-36.83-36.83-59.07-59.06-72.92-59.06s-36.12,22.26-72.99,59.13Zm69.85-102.24c.06,1.04.09,2.08.09,3.14s-.03,2.1-.09,3.14c2.08-.12,4.2-.12,6.28,0-.06-1.04-.09-2.08-.09-3.14s.03-2.1.09-3.14c-2.08.12-4.2.12-6.28,0Z"/>
      </g>
      <g>
        <path class="cls-1" d="m875.58,876.26q-86.05-86.05-172.09,0,86.05-86.05,0-172.09,86.05,86.05,172.09,0-86.05,86.05,0,172.09Z"/>
        <path class="cls-1" d="m862.52,889.32s-.05-.05-.07-.07c-36.83-36.83-59.07-59.06-72.92-59.06s-36.09,22.23-72.92,59.06c-.02.02-.05.05-.07.07l-26.11-26.11c36.87-36.87,59.13-59.13,59.13-72.99s-22.23-36.09-59.06-72.92c-.02-.02-.05-.05-.07-.07l26.11-26.11c36.87,36.87,59.13,59.13,72.99,59.13s36.12-22.26,72.99-59.13l26.11,26.11s-.05.05-.07.07c-36.83,36.83-59.06,59.07-59.06,72.92s22.26,36.12,59.13,72.99l-26.11,26.11Zm-72.99-96.06c1.05,0,2.1.03,3.14.09-.06-1.04-.09-2.08-.09-3.14s.03-2.1.09-3.14c-2.08.12-4.2.12-6.28,0,.06,1.04.09,2.08.09,3.14s-.03,2.1-.09,3.14c1.04-.06,2.08-.09,3.14-.09Z"/>
      </g>
      <g>
        <path class="cls-1" d="m1047.76,876.26q-86.05-86.05-172.09,0,86.05-86.05,0-172.09,86.05,86.05,172.09,0-86.05,86.05,0,172.09Z"/>
        <path class="cls-1" d="m1034.7,889.32s-.05-.05-.07-.07c-36.83-36.83-59.07-59.06-72.92-59.06s-36.09,22.23-72.92,59.06c-.02.02-.05.05-.07.07l-26.11-26.11c36.87-36.87,59.13-59.13,59.13-72.99s-22.23-36.09-59.06-72.92c-.02-.02-.05-.05-.07-.07l26.11-26.11c36.87,36.87,59.13,59.13,72.99,59.13s36.12-22.26,72.99-59.13l26.11,26.11s-.05.05-.07.07c-36.83,36.83-59.06,59.07-59.06,72.92s22.26,36.12,59.13,72.99l-26.11,26.11Zm-72.99-96.06c1.05,0,2.1.03,3.14.09-.06-1.04-.09-2.08-.09-3.14s.03-2.1.09-3.14c-2.08.12-4.2.12-6.28,0,.06,1.04.09,2.08.09,3.14s-.03,2.1-.09,3.14c1.04-.06,2.08-.09,3.14-.09Z"/>
      </g>
      <g>
        <path class="cls-1" d="m186.01,1049.04q-86.05-86.05-172.09,0,86.05-86.05,0-172.09,86.05,86.05,172.09,0-86.05,86.05,0,172.09Z"/>
        <path class="cls-1" d="m172.95,1062.1s-.05-.05-.07-.07c-36.83-36.83-59.07-59.06-72.92-59.06s-36.09,22.23-72.92,59.06c-.02.02-.05.05-.07.07l-26.11-26.11c36.87-36.87,59.13-59.13,59.13-72.99s-22.23-36.09-59.06-72.92c-.02-.02-.05-.05-.07-.07l26.11-26.11c36.87,36.87,59.13,59.13,72.99,59.13s36.12-22.26,72.99-59.13l26.11,26.11s-.05.05-.07.07c-36.83,36.83-59.06,59.07-59.06,72.92s22.26,36.12,59.13,72.99l-26.11,26.11Zm-72.99-96.06c1.05,0,2.1.03,3.14.09-.06-1.04-.09-2.08-.09-3.14s.03-2.1.09-3.14c-2.08.12-4.2.12-6.28,0,.06,1.04.09,2.08.09,3.14s-.03,2.1-.09,3.14c1.04-.06,2.08-.09,3.14-.09Z"/>
      </g>
      <g>
        <path class="cls-1" d="m358.19,1049.04q-86.05-86.05-172.09,0,86.05-86.05,0-172.09,86.05,86.05,172.09,0-86.05,86.05,0,172.09Z"/>
        <path class="cls-1" d="m345.13,1062.1s-.05-.05-.07-.07c-36.83-36.83-59.07-59.06-72.92-59.06s-36.09,22.23-72.92,59.06c-.02.02-.05.05-.07.07l-26.11-26.11c36.87-36.87,59.13-59.13,59.13-72.99s-22.23-36.09-59.06-72.92c-.02-.02-.05-.05-.07-.07l26.11-26.11c36.87,36.87,59.13,59.13,72.99,59.13s36.12-22.26,72.99-59.13l26.11,26.11s-.05.05-.07.07c-36.83,36.83-59.06,59.07-59.06,72.92s22.26,36.12,59.13,72.99l-26.11,26.11Zm-72.99-96.06c1.05,0,2.1.03,3.14.09-.06-1.04-.09-2.08-.09-3.14s.03-2.1.09-3.14c-2.08.12-4.2.12-6.28,0,.06,1.04.09,2.08.09,3.14s-.03,2.1-.09,3.14c1.04-.06,2.08-.09,3.14-.09Z"/>
      </g>
      <g>
        <path class="cls-1" d="m530.36,1049.04q-86.05-86.05-172.09,0,86.05-86.05,0-172.09,86.05,86.05,172.09,0-86.05,86.05,0,172.09Z"/>
        <path class="cls-1" d="m517.31,1062.1c-36.87-36.87-59.13-59.13-72.99-59.13s-36.04,22.17-72.79,58.92c-.07.07-.14.14-.2.21l-26.11-26.11c.05-.05.11-.11.16-.16.03-.03.05-.05.08-.08,36.73-36.73,58.89-58.92,58.89-72.75s-22.16-36.02-58.89-72.75c-.03-.03-.05-.05-.08-.08-.03-.03-.06-.06-.09-.09-.02-.02-.05-.05-.07-.07l26.11-26.11c36.87,36.87,59.13,59.13,72.99,59.13s36.12-22.26,72.99-59.13l26.11,26.11c-.06.06-.13.13-.19.19-.02.02-.03.03-.05.05-36.73,36.73-58.89,58.92-58.89,72.76s22.16,36.03,58.89,72.76c.02.02.03.03.05.05.06.06.13.13.19.19l-26.11,26.11Zm-72.99-96.06c1.05,0,2.1.03,3.14.09-.06-1.04-.09-2.08-.09-3.14s.03-2.1.09-3.14c-2.08.12-4.2.12-6.28,0,.06,1.04.09,2.08.09,3.14s-.03,2.1-.09,3.14c1.04-.06,2.08-.09,3.14-.09Z"/>
      </g>
      <g>
        <path class="cls-1" d="m702.54,1049.04q-86.05-86.05-172.09,0,86.05-86.05,0-172.09,86.05,86.05,172.09,0-86.05,86.05,0,172.09Z"/>
        <path class="cls-1" d="m689.49,1062.1s-.05-.05-.07-.07c-36.83-36.83-59.07-59.06-72.92-59.06s-36.09,22.23-72.92,59.06c-.02.02-.05.05-.07.07l-26.11-26.11c36.87-36.87,59.13-59.13,59.13-72.99s-22.23-36.09-59.06-72.92c-.02-.02-.05-.05-.07-.07l26.11-26.11c36.87,36.87,59.13,59.13,72.99,59.13s36.12-22.26,72.99-59.13l26.11,26.11s-.05.05-.07.07c-36.83,36.83-59.06,59.07-59.06,72.92s22.26,36.12,59.13,72.99l-26.11,26.11Zm-72.99-96.06c1.05,0,2.1.03,3.14.09-.06-1.04-.09-2.08-.09-3.14s.03-2.1.09-3.14c-2.08.12-4.2.12-6.28,0,.06,1.04.09,2.08.09,3.14s-.03,2.1-.09,3.14c1.04-.06,2.08-.09,3.14-.09Z"/>
      </g>
      <g>
        <path class="cls-1" d="m874.72,1049.04q-86.05-86.05-172.09,0,86.05-86.05,0-172.09,86.05,86.05,172.09,0-86.05,86.05,0,172.09Z"/>
        <path class="cls-1" d="m861.67,1062.1s-.05-.05-.07-.07c-36.83-36.83-59.07-59.06-72.92-59.06s-36.09,22.23-72.92,59.06c-.02.02-.05.05-.07.07l-26.11-26.11c36.87-36.87,59.13-59.13,59.13-72.99s-22.23-36.09-59.06-72.92c-.02-.02-.05-.05-.07-.07l26.11-26.11c36.87,36.87,59.13,59.13,72.99,59.13s36.12-22.26,72.99-59.13l26.11,26.11s-.05.05-.07.07c-36.83,36.83-59.06,59.07-59.06,72.92s22.26,36.12,59.13,72.99l-26.11,26.11Zm-72.99-96.06c1.05,0,2.1.03,3.14.09-.06-1.04-.09-2.08-.09-3.14s.03-2.1.09-3.14c-2.08.12-4.2.12-6.28,0,.06,1.04.09,2.08.09,3.14s-.03,2.1-.09,3.14c1.04-.06,2.08-.09,3.14-.09Z"/>
      </g>
      <g>
        <path class="cls-1" d="m1046.9,1049.04q-86.05-86.05-172.09,0,86.05-86.05,0-172.09,86.05,86.05,172.09,0-86.05,86.05,0,172.09Z"/>
        <path class="cls-1" d="m1033.85,1062.1s-.05-.05-.07-.07c-36.83-36.83-59.07-59.06-72.92-59.06s-36.09,22.23-72.92,59.06c-.02.02-.05.05-.07.07l-26.11-26.11c36.87-36.87,59.13-59.13,59.13-72.99s-22.23-36.09-59.06-72.92c-.02-.02-.05-.05-.07-.07l26.11-26.11c36.87,36.87,59.13,59.13,72.99,59.13s36.12-22.26,72.99-59.13l26.11,26.11s-.05.05-.07.07c-36.83,36.83-59.06,59.07-59.06,72.92s22.26,36.12,59.13,72.99l-26.11,26.11Zm-72.99-96.06c1.05,0,2.1.03,3.14.09-.06-1.04-.09-2.08-.09-3.14s.03-2.1.09-3.14c-2.08.12-4.2.12-6.28,0,.06,1.04.09,2.08.09,3.14s-.03,2.1-.09,3.14c1.04-.06,2.08-.09,3.14-.09Z"/>
      </g>
      <g>
        <path class="cls-1" d="m185.15,185.15q-86.05-86.05-172.09,0,86.05-86.05,0-172.09,86.05,86.05,172.09,0-86.05,86.05,0,172.09Z"/>
        <path class="cls-1" d="m172.1,198.21c-36.87-36.87-59.13-59.13-72.99-59.13s-36.02,22.16-72.75,58.89c-.03.03-.05.05-.08.08l-.09.09s-.05.05-.07.07L0,172.09c36.87-36.87,59.13-59.13,59.13-72.99S36.87,62.99,0,26.11L26.11,0c.06.06.13.13.19.19l.05.05c36.73,36.73,58.92,58.89,72.75,58.89S135.07,37.02,171.72.38c.08-.08.16-.16.24-.24.05-.05.09-.09.14-.14l26.11,26.11c-.07.07-.14.14-.2.2-36.75,36.75-58.92,58.95-58.92,72.79s22.26,36.12,59.13,72.99l-26.11,26.11Zm-72.99-96.06c1.05,0,2.1.03,3.14.09-.06-1.04-.09-2.08-.09-3.14s.03-2.1.09-3.14c-2.08.12-4.2.12-6.28,0,.06,1.04.09,2.08.09,3.14s-.03,2.1-.09,3.14c1.04-.06,2.08-.09,3.14-.09Z"/>
      </g>
      <g>
        <path class="cls-1" d="m358.19,357.93q-86.05-86.05-172.09,0,86.05-86.05,0-172.09,86.05,86.05,172.09,0-86.05,86.05,0,172.09Z"/>
        <path class="cls-1" d="m345.13,370.99s-.05-.05-.07-.07c-36.83-36.83-59.07-59.06-72.92-59.06s-36.09,22.23-72.92,59.06c-.02.02-.05.05-.07.07l-26.11-26.11c36.87-36.87,59.13-59.13,59.13-72.99s-22.23-36.09-59.06-72.92c-.02-.02-.05-.05-.07-.07l26.11-26.11c36.87,36.87,59.13,59.13,72.99,59.13s36.12-22.26,72.99-59.13l26.11,26.11s-.05.05-.07.07c-36.83,36.83-59.06,59.07-59.06,72.92s22.26,36.12,59.13,72.99l-26.11,26.11Zm-72.99-96.06c1.05,0,2.1.03,3.14.09-.06-1.04-.09-2.08-.09-3.14s.03-2.1.09-3.14c-2.08.12-4.2.12-6.28,0,.06,1.04.09,2.08.09,3.14s-.03,2.1-.09,3.14c1.04-.06,2.08-.09,3.14-.09Z"/>
      </g>
      <g>
        <path class="cls-1" d="m359.04,530.71q-86.05-86.05-172.09,0,86.05-86.05,0-172.09,86.05,86.05,172.09,0-86.05,86.05,0,172.09Z"/>
        <path class="cls-1" d="m345.98,543.76s-.05-.05-.07-.07c-36.83-36.83-59.07-59.06-72.92-59.06s-36.09,22.23-72.92,59.06c-.02.02-.05.05-.07.07l-26.11-26.11c36.87-36.87,59.13-59.13,59.13-72.99s-22.23-36.09-59.06-72.92c-.02-.02-.05-.05-.07-.07l26.11-26.11c36.87,36.87,59.13,59.13,72.99,59.13s36.12-22.26,72.99-59.13l26.11,26.11s-.05.05-.07.07c-36.83,36.83-59.06,59.07-59.06,72.92s22.26,36.12,59.13,72.99l-26.11,26.11Zm-72.99-96.06c1.05,0,2.1.03,3.14.09-.06-1.04-.09-2.08-.09-3.14s.03-2.1.09-3.14c-2.08.12-4.2.12-6.28,0,.06,1.04.09,2.08.09,3.14s-.03,2.1-.09,3.14c1.04-.06,2.08-.09,3.14-.09Z"/>
      </g>
      <g>
        <path class="cls-1" d="m529.51,530.71q-86.05-86.05-172.09,0,86.05-86.05,0-172.09,86.05,86.05,172.09,0-86.05,86.05,0,172.09Z"/>
        <path class="cls-1" d="m370.47,543.76l-26.11-26.11c.06-.06.13-.13.19-.19.02-.02.03-.03.05-.05,36.73-36.73,58.89-58.92,58.89-72.76s-22.16-36.03-58.89-72.76c-.02-.02-.03-.03-.05-.05-.06-.06-.13-.13-.19-.19l26.11-26.11c36.87,36.87,59.13,59.13,72.99,59.13s36.12-22.26,72.99-59.13l26.11,26.11-.07.07-.09.09-.08.08c-36.73,36.73-58.89,58.92-58.89,72.75s22.16,36.02,58.89,72.75l.08.08c.05.05.11.11.16.16l-26.11,26.11c-.07-.07-.14-.14-.2-.21-36.75-36.75-58.95-58.92-72.79-58.92s-36.12,22.26-72.99,59.13Zm69.85-102.24c.06,1.04.09,2.08.09,3.14s-.03,2.1-.09,3.14c2.08-.12,4.2-.12,6.28,0-.06-1.04-.09-2.08-.09-3.14s.03-2.1.09-3.14c-2.08.12-4.2.12-6.28,0Z"/>
      </g>
      <g>
        <path class="cls-1" d="m703.4,530.71q-86.05-86.05-172.09,0,86.05-86.05,0-172.09,86.05,86.05,172.09,0-86.05,86.05,0,172.09Z"/>
        <path class="cls-1" d="m544.36,543.76l-26.11-26.11c36.87-36.87,59.13-59.13,59.13-72.99s-22.26-36.12-59.13-72.99l26.11-26.11c36.87,36.87,59.13,59.13,72.99,59.13s36.12-22.26,72.99-59.13l26.11,26.11s-.05.05-.07.07c-36.83,36.83-59.06,59.07-59.06,72.92s22.26,36.12,59.13,72.99l-26.11,26.11s-.05-.05-.07-.07c-36.83-36.83-59.07-59.06-72.92-59.06s-36.12,22.26-72.99,59.13Zm69.85-102.24c.06,1.04.09,2.08.09,3.14s-.03,2.1-.09,3.14c2.08-.12,4.2-.12,6.28,0-.06-1.04-.09-2.08-.09-3.14s.03-2.1.09-3.14c-2.08.12-4.2.12-6.28,0Z"/>
      </g>
    </g>
  </g>
</svg>