<?xml version="1.0" encoding="UTF-8"?>
<svg id="Layer_2" data-name="Layer 2" xmlns="http://www.w3.org/2000/svg" viewBox="0 0 1030.55 1030.85">
  <g id="Layer_1-2" data-name="Layer 1">
    <g>
      <path d="m772.89,0c-142.3,0-257.66,115.36-257.66,257.66h515.33C1030.55,115.36,915.19,0,772.89,0Z"/>
      <path d="m772.89,515.33v515.33c142.3,0,257.66-115.36,257.66-257.66s-115.36-257.66-257.66-257.66Z"/>
      <path d="m257.66,1030.85c142.3,0,257.66-115.36,257.66-257.66H0c0,142.3,115.36,257.66,257.66,257.66Z"/>
      <path d="m257.66.2C115.36.2,0,115.56,0,257.87s115.36,257.66,257.66,257.66v257.46h515.12V257.87H257.66V.2Z"/>
    </g>
  </g>
</svg>