<?xml version="1.0" encoding="UTF-8"?>
<svg id="Layer_2" data-name="Layer 2" xmlns="http://www.w3.org/2000/svg" viewBox="0 0 1206.14 955.91">
  <defs>
    <style>
      .cls-1 {
        fill: #231f20;
      }
    </style>
  </defs>
  <g id="Layer_1-2" data-name="Layer 1">
    <g>
      <path class="cls-1" d="m473.84,261H36.59l684.05,427.44,1.24.77h437.25L475.08,261.78l-1.24-.77Zm47.68,41.8h-22.59l-50.6-31.62h22.59l50.6,31.62Zm85.77,302.81h22.59l50.6,31.62h-22.59l-50.6-31.62Zm-74.88-177.4l-50.6-31.62h22.59l50.6,31.62h-22.59Zm38.89,10.18l50.6,31.62h-22.59l-50.61-31.62h22.59Zm-58.1-10.18h-22.59l-50.6-31.62h22.59l50.6,31.62Zm16.3,10.18l50.6,31.62h-22.59l-50.61-31.62h22.59Zm8.8,31.62h-22.59l-50.61-31.62h22.59l50.6,31.62Zm16.3,10.18l50.6,31.62h-22.59l-50.6-31.62h22.59Zm19.21,0h22.59l50.6,31.62h-22.59l-50.6-31.62Zm89.49,41.8l50.6,31.62h-22.59l-50.61-31.62h22.59Zm19.21,0h22.59l50.6,31.62h-22.59l-50.61-31.62Zm-16.29-10.18l-50.6-31.62h22.59l50.6,31.62h-22.59Zm-8.8-31.62h22.59l50.6,31.62h-22.59l-50.6-31.62Zm-16.29-10.18l-50.61-31.62h22.59l50.6,31.62h-22.59Zm-66.9-41.8l-50.6-31.62h22.59l50.6,31.62h-22.59Zm-66.9-41.8l-50.6-31.62h22.59l50.6,31.62h-22.59Zm-19.21,0h-22.59l-50.6-31.62h22.59l50.61,31.62Zm-41.8,0h-22.59l-50.6-31.62h22.59l50.61,31.62Zm-41.8,0h-22.59l-50.6-31.62h22.59l50.6,31.62Zm16.3,10.18l50.6,31.62h-22.59l-50.6-31.62h22.59Zm8.8,31.62h-22.59l-50.6-31.62h22.59l50.6,31.62Zm16.3,10.18l50.6,31.62h-22.59l-50.61-31.62h22.59Zm66.9,41.8l50.6,31.62h-22.59l-50.6-31.62h22.59Zm66.9,41.8l50.6,31.62h-22.59l-50.61-31.62h22.59Zm19.21,0h22.59l50.6,31.62h-22.59l-50.61-31.62Zm89.49,41.8l50.61,31.62h-22.59l-50.6-31.62h22.59Zm19.22,0h22.59l50.6,31.62h-22.59l-50.6-31.62Zm41.8,0h22.59l50.6,31.62h-22.59l-50.6-31.62Zm41.8,0h22.59l50.61,31.62h-22.59l-50.6-31.62Zm-16.3-10.18l-50.61-31.62h22.59l50.6,31.62h-22.59Zm-8.8-31.62h22.59l50.6,31.62h-22.59l-50.61-31.62Zm-16.29-10.18l-50.6-31.62h22.59l50.6,31.62h-22.59Zm-66.9-41.8l-50.61-31.62h22.59l50.6,31.62h-22.59Zm-66.9-41.8l-50.6-31.62h22.59l50.6,31.62h-22.59Zm-66.9-41.8l-50.6-31.62h22.59l50.6,31.62h-22.59Zm-66.9-41.8l-50.6-31.62h22.59l50.6,31.62h-22.59Zm-19.21,0h-22.59l-50.6-31.62h22.59l50.6,31.62Zm-41.8,0h-22.59l-50.6-31.62h22.59l50.6,31.62Zm-41.8,0h-22.59l-50.6-31.62h22.59l50.6,31.62Zm-41.8,0h-22.59l-50.6-31.62h22.59l50.6,31.62Zm-41.8,0h-22.59l-50.6-31.62h22.59l50.6,31.62Zm16.3,10.18l50.6,31.62h-22.59l-50.6-31.62h22.59Zm8.8,31.62h-22.59l-50.6-31.62h22.59l50.61,31.62Zm16.3,10.18l50.6,31.62h-22.59l-50.6-31.62h22.59Zm66.9,41.8l50.6,31.62h-22.59l-50.61-31.62h22.59Zm66.9,41.8l50.6,31.62h-22.59l-50.6-31.62h22.59Zm66.9,41.8l50.6,31.62h-22.59l-50.61-31.62h22.59Zm66.9,41.8l50.6,31.62h-22.59l-50.6-31.62h22.59Zm19.21,0h22.59l50.61,31.62h-22.59l-50.6-31.62Zm89.49,41.8l50.6,31.62h-22.59l-50.6-31.62h22.59Zm19.21,0h22.59l50.6,31.62h-22.59l-50.6-31.62Zm41.8,0h22.59l50.6,31.62h-22.59l-50.6-31.62Zm41.8,0h22.59l50.6,31.62h-22.59l-50.6-31.62Zm41.8,0h22.59l50.6,31.62h-22.59l-50.6-31.62Zm41.8,0h22.59l50.6,31.62h-22.59l-50.6-31.62Zm-16.29-10.18l-50.6-31.62h22.59l50.61,31.62h-22.59Zm-8.8-31.62h22.59l50.6,31.62h-22.59l-50.6-31.62Zm-16.3-10.18l-50.61-31.62h22.59l50.6,31.62h-22.59Zm-66.9-41.8l-50.6-31.62h22.59l50.6,31.62h-22.59Zm-66.9-41.8l-50.61-31.62h22.59l50.6,31.62h-22.59Zm-66.9-41.8l-50.6-31.62h22.59l50.6,31.62h-22.59Zm-66.9-41.8l-50.6-31.62h22.59l50.61,31.62h-22.59Zm-66.9-41.8l-50.6-31.62h22.59l50.6,31.62h-22.59Zm-66.9-41.8l-50.6-31.62h22.59l50.6,31.62h-22.59Zm-19.21,0h-22.59l-50.6-31.62h22.59l50.6,31.62Zm-41.8,0h-22.59l-50.6-31.62h22.59l50.6,31.62Zm-41.8,0h-22.59l-50.6-31.62h22.59l50.6,31.62Zm-41.8,0h-22.59l-50.6-31.62h22.59l50.6,31.62Zm-41.8,0h-22.59l-50.6-31.62h22.59l50.6,31.62Zm-41.8,0h-22.59l-50.6-31.62h22.59l50.6,31.62Zm-41.8,0h-22.59l-50.6-31.62h22.59l50.6,31.62Zm16.29,10.18l50.6,31.62h-22.59l-50.6-31.62h22.59Zm8.8,31.62h-22.59l-50.6-31.62h22.59l50.6,31.62Zm16.29,10.18l50.61,31.62h-22.59l-50.6-31.62h22.59Zm66.9,41.8l50.6,31.62h-22.59l-50.6-31.62h22.59Zm66.9,41.8l50.6,31.62h-22.59l-50.6-31.62h22.59Zm66.9,41.8l50.6,31.62h-22.59l-50.6-31.62h22.59Zm66.9,41.8l50.6,31.62h-22.59l-50.61-31.62h22.59Zm66.9,41.8l50.6,31.62h-22.59l-50.6-31.62h22.59Zm86.11,41.8h22.59l50.6,31.62h-22.59l-50.6-31.62Zm89.49,41.8l50.6,31.62h-22.59l-50.6-31.62h22.59Zm19.21,0h22.59l50.6,31.62h-22.59l-50.6-31.62Zm41.8,0h22.59l50.6,31.62h-22.59l-50.6-31.62Zm41.8,0h22.59l50.6,31.62h-22.59l-50.6-31.62Zm41.8,0h22.59l50.6,31.62h-22.59l-50.6-31.62Zm41.8,0h22.59l50.6,31.62h-22.59l-50.6-31.62Zm41.8,0h22.59l50.6,31.62h-22.59l-50.6-31.62Zm41.8,0h22.59l50.6,31.62h-22.59l-50.6-31.62Zm-16.3-10.18l-50.6-31.62h22.59l50.6,31.62h-22.59Zm-8.8-31.62h22.59l50.6,31.62h-22.59l-50.6-31.62Zm-16.29-10.18l-50.6-31.62h22.59l50.6,31.62h-22.59Zm-66.9-41.8l-50.61-31.62h22.59l50.61,31.62h-22.59Zm-66.9-41.8l-50.6-31.62h22.59l50.6,31.62h-22.59Zm-66.9-41.8l-50.61-31.62h22.59l50.6,31.62h-22.59Zm-66.9-41.8l-50.6-31.62h22.59l50.6,31.62h-22.59Zm-66.9-41.8l-50.6-31.62h22.59l50.6,31.62h-22.59Zm-66.9-41.8l-50.6-31.62h22.59l50.6,31.62h-22.59Zm-471.14-73.42l50.6,31.62h-22.59l-50.6-31.62h22.59Zm579.51,376.23h22.59l50.6,31.62h-22.59l-50.6-31.62Zm426.83,31.62l-50.6-31.62h22.59l50.6,31.62h-22.59Z"/>
      <path class="cls-1" d="m768.89,428.22h437.25L522.09.77l-1.24-.77H83.61l684.05,427.44,1.24.77Zm-47.69-41.8h22.59l50.6,31.62h-22.59l-50.6-31.62Zm-85.77-302.81h-22.59l-50.6-31.62h22.59l50.6,31.62Zm74.87,177.4l50.6,31.62h-22.59l-50.61-31.62h22.59Zm-38.88-10.18l-50.6-31.62h22.59l50.6,31.62h-22.59Zm58.1,10.18h22.59l50.6,31.62h-22.59l-50.61-31.62Zm-16.29-10.18l-50.6-31.62h22.59l50.6,31.62h-22.59Zm-8.8-31.62h22.59l50.6,31.62h-22.59l-50.6-31.62Zm-16.29-10.18l-50.61-31.62h22.59l50.6,31.62h-22.59Zm-19.22,0h-22.59l-50.61-31.62h22.59l50.6,31.62Zm-89.49-41.8l-50.6-31.62h22.59l50.6,31.62h-22.59Zm-19.21,0h-22.59l-50.6-31.62h22.59l50.6,31.62Zm16.3,10.18l50.6,31.62h-22.59l-50.61-31.62h22.59Zm8.8,31.62h-22.59l-50.61-31.62h22.59l50.6,31.62Zm16.3,10.18l50.6,31.62h-22.59l-50.6-31.62h22.59Zm66.9,41.8l50.6,31.62h-22.59l-50.61-31.62h22.59Zm66.9,41.8l50.61,31.62h-22.59l-50.6-31.62h22.59Zm19.21,0h22.59l50.61,31.62h-22.59l-50.6-31.62Zm41.8,0h22.59l50.61,31.62h-22.59l-50.6-31.62Zm41.8,0h22.59l50.61,31.62h-22.59l-50.6-31.62Zm-16.3-10.18l-50.61-31.62h22.59l50.6,31.62h-22.59Zm-8.8-31.62h22.59l50.6,31.62h-22.59l-50.61-31.62Zm-16.29-10.18l-50.6-31.62h22.59l50.6,31.62h-22.59Zm-66.9-41.8l-50.61-31.62h22.59l50.6,31.62h-22.59Zm-66.9-41.8l-50.6-31.62h22.59l50.6,31.62h-22.59Zm-19.21,0h-22.59l-50.6-31.62h22.59l50.6,31.62Zm-89.49-41.8l-50.6-31.62h22.59l50.6,31.62h-22.59Zm-19.21,0h-22.59l-50.6-31.62h22.59l50.6,31.62Zm-41.8,0h-22.59l-50.6-31.62h22.59l50.6,31.62Zm-41.8,0h-22.59l-50.6-31.62h22.59l50.6,31.62Zm16.3,10.18l50.6,31.62h-22.59l-50.6-31.62h22.59Zm8.8,31.62h-22.59l-50.6-31.62h22.59l50.6,31.62Zm16.3,10.18l50.6,31.62h-22.59l-50.61-31.62h22.59Zm66.9,41.8l50.6,31.62h-22.59l-50.6-31.62h22.59Zm66.9,41.8l50.6,31.62h-22.59l-50.61-31.62h22.59Zm66.9,41.8l50.6,31.62h-22.59l-50.6-31.62h22.59Zm66.9,41.8l50.6,31.62h-22.59l-50.6-31.62h22.59Zm19.21,0h22.59l50.6,31.62h-22.59l-50.6-31.62Zm41.8,0h22.59l50.6,31.62h-22.59l-50.6-31.62Zm41.8,0h22.59l50.6,31.62h-22.59l-50.6-31.62Zm41.8,0h22.59l50.6,31.62h-22.59l-50.6-31.62Zm41.8,0h22.59l50.6,31.62h-22.59l-50.6-31.62Zm-16.29-10.18l-50.6-31.62h22.59l50.61,31.62h-22.59Zm-8.8-31.62h22.59l50.61,31.62h-22.59l-50.6-31.62Zm-16.3-10.18l-50.61-31.62h22.59l50.6,31.62h-22.59Zm-66.9-41.8l-50.6-31.62h22.59l50.6,31.62h-22.59Zm-66.9-41.8l-50.61-31.62h22.59l50.6,31.62h-22.59Zm-66.9-41.8l-50.6-31.62h22.59l50.6,31.62h-22.59Zm-66.9-41.8l-50.6-31.62h22.59l50.6,31.62h-22.59Zm-19.21,0h-22.59l-50.6-31.62h22.59l50.6,31.62Zm-89.49-41.8l-50.6-31.62h22.59l50.6,31.62h-22.59Zm-19.21,0h-22.59l-50.6-31.62h22.59l50.6,31.62Zm-41.8,0h-22.59l-50.6-31.62h22.59l50.6,31.62Zm-41.8,0h-22.59l-50.6-31.62h22.59l50.6,31.62Zm-41.8,0h-22.59l-50.6-31.62h22.59l50.6,31.62Zm-41.8,0h-22.59l-50.6-31.62h22.59l50.6,31.62Zm16.29,10.18l50.61,31.62h-22.59l-50.6-31.62h22.59Zm8.8,31.62h-22.59l-50.6-31.62h22.59l50.6,31.62Zm16.3,10.18l50.6,31.62h-22.59l-50.6-31.62h22.59Zm66.9,41.8l50.6,31.62h-22.59l-50.6-31.62h22.59Zm66.9,41.8l50.6,31.62h-22.59l-50.6-31.62h22.59Zm66.9,41.8l50.6,31.62h-22.59l-50.6-31.62h22.59Zm66.9,41.8l50.61,31.62h-22.59l-50.6-31.62h22.59Zm66.9,41.8l50.6,31.62h-22.59l-50.6-31.62h22.59Zm66.9,41.8l50.6,31.62h-22.59l-50.6-31.62h22.59Zm19.21,0h22.59l50.6,31.62h-22.59l-50.6-31.62Zm41.8,0h22.59l50.6,31.62h-22.59l-50.6-31.62Zm41.8,0h22.59l50.6,31.62h-22.59l-50.6-31.62Zm41.8,0h22.59l50.6,31.62h-22.59l-50.6-31.62Zm41.8,0h22.59l50.6,31.62h-22.59l-50.6-31.62Zm41.8,0h22.59l50.6,31.62h-22.59l-50.6-31.62Zm41.8,0h22.59l50.6,31.62h-22.59l-50.6-31.62Zm-16.3-10.18l-50.6-31.62h22.59l50.6,31.62h-22.59Zm-8.8-31.62h22.59l50.6,31.62h-22.59l-50.6-31.62Zm-16.29-10.18l-50.6-31.62h22.59l50.6,31.62h-22.59Zm-66.9-41.8l-50.61-31.62h22.59l50.61,31.62h-22.59Zm-66.9-41.8l-50.6-31.62h22.59l50.6,31.62h-22.59Zm-66.9-41.8l-50.61-31.62h22.59l50.6,31.62h-22.59Zm-66.9-41.8l-50.6-31.62h22.59l50.6,31.62h-22.59Zm-66.9-41.8l-50.6-31.62h22.59l50.6,31.62h-22.59Zm-86.11-41.8h-22.59l-50.6-31.62h22.59l50.6,31.62Zm-89.49-41.8l-50.6-31.62h22.59l50.6,31.62h-22.59Zm-19.21,0h-22.59l-50.6-31.62h22.59l50.6,31.62Zm-41.8,0h-22.59l-50.6-31.62h22.59l50.6,31.62Zm-41.8,0h-22.59l-50.6-31.62h22.59l50.6,31.62Zm-41.8,0h-22.59l-50.6-31.62h22.59l50.6,31.62Zm-41.8,0h-22.59l-50.6-31.62h22.59l50.6,31.62Zm-41.8,0h-22.59l-50.6-31.62h22.59l50.6,31.62Zm-41.8,0h-22.59l-50.6-31.62h22.59l50.6,31.62Zm16.29,10.18l50.6,31.62h-22.59l-50.6-31.62h22.59Zm8.8,31.62h-22.59l-50.6-31.62h22.59l50.6,31.62Zm16.3,10.18l50.6,31.62h-22.59l-50.6-31.62h22.59Zm66.9,41.8l50.6,31.62h-22.59l-50.6-31.62h22.59Zm66.9,41.8l50.6,31.62h-22.59l-50.6-31.62h22.59Zm66.9,41.8l50.6,31.62h-22.59l-50.6-31.62h22.59Zm66.9,41.8l50.6,31.62h-22.59l-50.61-31.62h22.59Zm66.9,41.8l50.61,31.62h-22.59l-50.6-31.62h22.59Zm66.9,41.8l50.6,31.62h-22.59l-50.6-31.62h22.59Zm471.15,73.42l-50.6-31.62h22.59l50.6,31.62h-22.59ZM568.54,41.8h-22.59l-50.6-31.62h22.59l50.6,31.62ZM141.7,10.18l50.6,31.62h-22.59l-50.6-31.62h22.59Z"/>
      <path class="cls-1" d="m437.25,527.69H0l684.05,427.44,1.24.77h437.25l-684.05-427.44-1.24-.77Zm47.68,41.8h-22.59l-50.6-31.62h22.59l50.6,31.62Zm85.77,302.81h22.59l50.6,31.62h-22.59l-50.6-31.62Zm-74.87-177.4l-50.6-31.62h22.59l50.6,31.62h-22.59Zm38.88,10.18l50.6,31.62h-22.59l-50.6-31.62h22.59Zm-58.1-10.18h-22.59l-50.6-31.62h22.59l50.6,31.62Zm16.29,10.18l50.6,31.62h-22.59l-50.61-31.62h22.59Zm8.8,31.62h-22.59l-50.61-31.62h22.59l50.6,31.62Zm16.3,10.18l50.6,31.62h-22.59l-50.6-31.62h22.59Zm19.21,0h22.59l50.6,31.62h-22.59l-50.6-31.62Zm89.49,41.8l50.6,31.62h-22.59l-50.6-31.62h22.59Zm19.21,0h22.59l50.6,31.62h-22.59l-50.61-31.62Zm-16.3-10.18l-50.6-31.62h22.59l50.6,31.62h-22.59Zm-8.8-31.62h22.59l50.6,31.62h-22.59l-50.6-31.62Zm-16.3-10.18l-50.61-31.62h22.59l50.6,31.62h-22.59Zm-66.9-41.8l-50.6-31.62h22.59l50.6,31.62h-22.59Zm-66.9-41.8l-50.61-31.62h22.59l50.6,31.62h-22.59Zm-19.22,0h-22.59l-50.6-31.62h22.59l50.6,31.62Zm-41.8,0h-22.59l-50.61-31.62h22.59l50.6,31.62Zm-41.8,0h-22.59l-50.61-31.62h22.59l50.6,31.62Zm16.29,10.18l50.61,31.62h-22.59l-50.6-31.62h22.59Zm8.8,31.62h-22.59l-50.6-31.62h22.59l50.61,31.62Zm16.29,10.18l50.6,31.62h-22.59l-50.6-31.62h22.59Zm66.9,41.8l50.6,31.62h-22.59l-50.6-31.62h22.59Zm66.9,41.8l50.6,31.62h-22.59l-50.61-31.62h22.59Zm19.21,0h22.59l50.6,31.62h-22.59l-50.6-31.62Zm89.49,41.8l50.6,31.62h-22.59l-50.6-31.62h22.59Zm19.21,0h22.59l50.61,31.62h-22.59l-50.6-31.62Zm41.8,0h22.59l50.61,31.62h-22.59l-50.6-31.62Zm41.8,0h22.59l50.61,31.62h-22.59l-50.6-31.62Zm-16.3-10.18l-50.6-31.62h22.59l50.6,31.62h-22.59Zm-8.8-31.62h22.59l50.6,31.62h-22.59l-50.6-31.62Zm-16.3-10.18l-50.6-31.62h22.59l50.6,31.62h-22.59Zm-66.9-41.8l-50.61-31.62h22.59l50.6,31.62h-22.59Zm-66.9-41.8l-50.6-31.62h22.59l50.6,31.62h-22.59Zm-66.9-41.8l-50.61-31.62h22.59l50.6,31.62h-22.59Zm-66.9-41.8l-50.6-31.62h22.59l50.6,31.62h-22.59Zm-19.21,0h-22.59l-50.6-31.62h22.59l50.6,31.62Zm-41.8,0h-22.59l-50.6-31.62h22.59l50.6,31.62Zm-41.8,0h-22.59l-50.6-31.62h22.59l50.6,31.62Zm-41.8,0h-22.59l-50.6-31.62h22.59l50.6,31.62Zm-41.8,0h-22.59l-50.6-31.62h22.59l50.6,31.62Zm16.3,10.18l50.6,31.62h-22.59l-50.6-31.62h22.59Zm8.8,31.62h-22.59l-50.6-31.62h22.59l50.6,31.62Zm16.3,10.18l50.6,31.62h-22.59l-50.6-31.62h22.59Zm66.9,41.8l50.6,31.62h-22.59l-50.6-31.62h22.59Zm66.9,41.8l50.6,31.62h-22.59l-50.6-31.62h22.59Zm66.9,41.8l50.6,31.62h-22.59l-50.61-31.62h22.59Zm66.9,41.8l50.61,31.62h-22.59l-50.6-31.62h22.59Zm19.21,0h22.59l50.6,31.62h-22.59l-50.6-31.62Zm89.49,41.8l50.6,31.62h-22.59l-50.6-31.62h22.59Zm19.21,0h22.59l50.6,31.62h-22.59l-50.6-31.62Zm41.8,0h22.59l50.6,31.62h-22.59l-50.6-31.62Zm41.8,0h22.59l50.6,31.62h-22.59l-50.6-31.62Zm41.8,0h22.59l50.6,31.62h-22.59l-50.6-31.62Zm41.8,0h22.59l50.6,31.62h-22.59l-50.6-31.62Zm-16.29-10.18l-50.6-31.62h22.59l50.61,31.62h-22.59Zm-8.8-31.62h22.59l50.61,31.62h-22.59l-50.6-31.62Zm-16.3-10.18l-50.6-31.62h22.59l50.6,31.62h-22.59Zm-66.9-41.8l-50.6-31.62h22.59l50.6,31.62h-22.59Zm-66.9-41.8l-50.61-31.62h22.59l50.6,31.62h-22.59Zm-66.9-41.8l-50.6-31.62h22.59l50.6,31.62h-22.59Zm-66.9-41.8l-50.61-31.62h22.59l50.6,31.62h-22.59Zm-66.9-41.8l-50.6-31.62h22.59l50.6,31.62h-22.59Zm-66.9-41.8l-50.6-31.62h22.59l50.6,31.62h-22.59Zm-19.21,0h-22.59l-50.6-31.62h22.59l50.6,31.62Zm-41.8,0h-22.59l-50.6-31.62h22.59l50.6,31.62Zm-41.8,0h-22.59l-50.6-31.62h22.59l50.6,31.62Zm-41.8,0h-22.59l-50.6-31.62h22.59l50.6,31.62Zm-41.8,0h-22.59l-50.6-31.62h22.59l50.6,31.62Zm-41.8,0h-22.59l-50.6-31.62h22.59l50.6,31.62Zm-41.8,0h-22.59l-50.6-31.62h22.59l50.6,31.62Zm16.3,10.18l50.6,31.62h-22.59l-50.6-31.62h22.59Zm8.8,31.62h-22.59l-50.6-31.62h22.59l50.6,31.62Zm16.3,10.18l50.6,31.62h-22.59l-50.6-31.62h22.59Zm66.9,41.8l50.6,31.62h-22.59l-50.6-31.62h22.59Zm66.9,41.8l50.6,31.62h-22.59l-50.61-31.62h22.59Zm66.9,41.8l50.6,31.62h-22.59l-50.6-31.62h22.59Zm66.9,41.8l50.6,31.62h-22.59l-50.6-31.62h22.59Zm66.9,41.8l50.61,31.62h-22.59l-50.6-31.62h22.59Zm86.11,41.8h22.59l50.6,31.62h-22.59l-50.6-31.62Zm89.49,41.8l50.61,31.62h-22.59l-50.61-31.62h22.59Zm19.21,0h22.59l50.61,31.62h-22.59l-50.61-31.62Zm41.8,0h22.59l50.61,31.62h-22.59l-50.61-31.62Zm41.8,0h22.59l50.61,31.62h-22.59l-50.61-31.62Zm41.8,0h22.59l50.61,31.62h-22.59l-50.61-31.62Zm41.8,0h22.59l50.61,31.62h-22.59l-50.61-31.62Zm41.8,0h22.59l50.61,31.62h-22.59l-50.61-31.62Zm41.8,0h22.59l50.61,31.62h-22.59l-50.61-31.62Zm-16.3-10.18l-50.6-31.62h22.59l50.6,31.62h-22.59Zm-8.8-31.62h22.59l50.6,31.62h-22.59l-50.6-31.62Zm-16.29-10.18l-50.6-31.62h22.59l50.6,31.62h-22.59Zm-66.9-41.8l-50.6-31.62h22.59l50.6,31.62h-22.59Zm-66.9-41.8l-50.6-31.62h22.59l50.6,31.62h-22.59Zm-66.9-41.8l-50.61-31.62h22.59l50.61,31.62h-22.59Zm-66.9-41.8l-50.6-31.62h22.59l50.6,31.62h-22.59Zm-66.9-41.8l-50.61-31.62h22.59l50.6,31.62h-22.59Zm-66.9-41.8l-50.6-31.62h22.59l50.6,31.62h-22.59Zm-471.14-73.42l50.6,31.62h-22.59l-50.6-31.62h22.59Zm579.5,376.23h22.59l50.61,31.62h-22.59l-50.61-31.62Zm426.84,31.62l-50.61-31.62h22.59l50.61,31.62h-22.59Z"/>
    </g>
  </g>
</svg>