<?xml version="1.0" encoding="UTF-8"?>
<svg id="Layer_2" data-name="Layer 2" xmlns="http://www.w3.org/2000/svg" viewBox="0 0 1208.56 1061.64">
  <defs>
    <style>
      .cls-1 {
        fill: #231f20;
      }
    </style>
  </defs>
  <g id="Layer_1-2" data-name="Layer 1">
    <path class="cls-1" d="m1187.39,534.04c-27.46-54.35-79.32-92.87-148.5-112.25.07-5.49.47-11.06.34-16.49-2.44-108.62-43.14-192.59-114.61-236.42-21.85-13.4-45.75-22.49-71.19-27.37-29.19-41.81-62.46-75.2-99.17-99.28C711.56,14.21,666.13,0,619.24,0c-41.39,0-81.64,11.11-119.89,32.98-28.92-13.19-59.25-20.09-90.31-20.09-84.77,0-164.25,50.86-223.8,143.2-34.62,53.7-59.81,117.91-74.95,187.77-26.06,11.98-48.48,28.74-66.32,50.23-46.49,55.98-56.51,136.3-28.21,226.15,27.96,88.79,90.13,176.54,175.06,247.07,12.61,10.47,25.57,20.19,38.68,29.51,52.28,55.93,114.32,86.13,179.54,86.13.24,0,.48-.03.72-.03,4.33,1.13,8.67,2.28,12.99,3.27.13.08.24.19.37.27,6.34,3.89,13.03,7.04,19.7,10.21,32.56,27.63,74.95,47.27,125.59,57.24,11.05,2.5,22.21,4.22,33.46,5.07.51.06.98.17,1.49.23,15.35,1.62,31.03,2.42,46.96,2.42,86.94,0,181.29-23.85,270.5-68.92,105.56-53.32,191.47-130.06,241.9-216.08,51-86.98,59.76-173.14,24.66-242.61Zm-162.22-115.72c-15.24-3.59-30.97-6.62-47.7-8.39-7.72-.81-15.66-1.05-23.54-1.45-14.2-93.78-44.53-180.05-89.35-250.23,18.7,4.92,36.4,12.34,52.81,22.41,72.55,44.5,108.42,132.69,107.77,237.66Zm-405.93,627.52c-5.48,0-10.93-.23-16.35-.65-10.25-1.13-20.19-2.66-29.84-4.51-22.12-4.86-43.53-13.13-64.03-24.51,9.99,1.25,20.17,1.93,30.57,1.93,45.89,0,95.44-12.23,146.23-36.63,80.05-38.46,155.23-103.79,216.63-186.53-57.81,150.18-163.11,250.89-283.2,250.89ZM107.67,497.93c0-50.28,5.12-98.71,14.49-144.19,27.9-11.7,60.09-17.78,95.66-17.78,13.42,0,27.32.86,41.62,2.59,12.41,1.5,24.92,3.77,37.49,6.51-14.07,58.4-21.76,120.62-21.76,184.77s8.11,130.52,23.1,190.56c-1.17,55.68,7.94,108.64,27.21,153.5,15.74,36.63,37.18,65.12,62.51,84.71,1.91,1.83,3.71,3.8,5.68,5.56-52.61-16.22-105.33-42.67-154.97-77.78-79.06-85.03-131.03-227.4-131.03-388.45Zm841.83,31.9c0,77.68-11.11,151.35-30.87,217.49-64.31,99.74-148.48,178.3-238.8,221.7-73.25,35.19-143.29,43.67-202.63,26.05,10.88.99,21.59,1.65,31.97,1.65,73.95,0,134.7-24.89,173.8-71.96,46.49-55.98,56.51-136.29,28.21-226.15-2.51-7.97-5.61-15.9-8.66-23.84,14.12-55.64,21.71-115.31,21.71-176.84,0-11.58-.57-23.01-1.08-34.46,71.45-28.13,142.95-42.1,207.93-42.1,3.73,0,7.37.16,11.06.25,4.79,34.91,7.36,71.09,7.36,108.2Zm-542.46-69.94c17.62-19.31,36.42-34.2,55.72-44.76,22.1,14.02,43.71,29.74,64.54,47.04,21.74,18.05,41.71,37.14,59.92,56.89-72.14,48.39-130.85,108.22-169.1,173.45-37.52,63.99-51.97,127.49-43.12,184.27-20.76-35.65-38.33-75.88-52.11-119.54-3.3-81.95,16.95-175.61,60.83-267.8,7.35-10.45,15.03-20.47,23.32-29.54Zm5.71-25.24c2.48-4.23,4.66-8.5,7.24-12.71,4.86-7.92,10.08-15.44,15.19-23.1,4.67,2.62,9.28,5.45,13.92,8.22-12.43,7.51-24.59,16.68-36.34,27.59Zm297.67,63.28c0,37.15-2.85,73.25-8.07,107.94-3.31-38.93-11.92-75.68-25.88-108.17-1.68-3.91-3.62-7.45-5.42-11.19,12.88-6.38,25.8-12.19,38.75-17.62.38,9.61.63,19.28.63,29.04Zm-242.46,476.56c62.24-17.94,119.39-64.18,164.88-134.74,15.52-24.07,29.07-50.31,40.81-78.13-16.16,58.92-43.27,111.2-78.74,150.07-38.93,42.67-83.46,64.43-126.96,62.79Zm24.41-23.81c5.38-8.45,8.61-18.41,8.61-29.15,0-30.06-24.46-54.52-54.52-54.52-23.64,0-43.62,15.22-51.15,36.3-19.55-60.28-7.64-131.54,34.74-203.82,37.46-63.88,95.25-122.5,166.32-169.89,41,46.65,72.1,96.6,91.75,145.95-34.64,132.55-106.8,235.04-195.75,275.12Zm112.76-29.66c46.06-50.48,78.84-122.26,92.3-202.12.68-4.03,1.07-8.03,1.64-12.05,24.22,80.11,17.42,155.93-26.72,209.08-35.76,43.06-91.68,65.79-159.83,66.57,32.38-9.49,64.03-30.16,92.61-61.48Zm84.75-275.74c-20.1-42.73-47.73-84.33-81.65-123.15,16.28-10.36,33.1-20.2,50.61-29.32,20.28,42.03,31.45,94.81,31.04,152.47Zm-90.84-133.68c-19.24-21.02-40.19-41.19-62.91-60.06-19.07-15.84-38.86-30.18-59.01-43.35,17.29-7.36,34.86-11.35,52.32-11.35,6.68,0,13.34.55,19.95,1.67,43.01,7.25,78.54,37.51,103.19,81.98-18.54,9.65-36.35,20.09-53.55,31.11Zm-269.58,303.84c13.05,31.32,28.15,60.89,45.57,87.89,4.36,6.76,8.84,13.26,13.39,19.62,1.71,4.05,3.05,8.22,5.04,12.17.24.48.58.89.82,1.36,1.51,5.26,3.63,10.25,6.56,14.74-1.16-.83-2.24-1.85-3.39-2.72-34.54-33.33-57.36-79.14-67.99-133.05Zm393.17-366.49c-6.07-93.97-29.6-182.13-68.1-255.45,4.48-2.34,8.89-5.01,13.4-7.17,48.86-23.48,96.37-35.24,140.2-35.24,12.85,0,25.24,1.39,37.39,3.41,45.73,67.34,79.18,154.72,94.54,253.13-69.57-1.41-144.2,13.04-217.43,41.32Zm-13.56,5.3c-14.81,6.09-29.53,12.65-44.13,19.89-27.55-50.08-67.08-81.48-113.25-89.26-29.45-4.96-59.45.37-88.36,14.56-6.82-4.2-13.67-8.25-20.56-12.13,55.98-80.72,125.23-145.59,199.58-187.27,36.97,70.64,61.06,158.31,66.73,254.22Zm-278.45-73.63c-38.51-20.5-77.95-35.78-117.11-45.62,34.3-130.89,102.03-234.97,186.55-286.26,53.08,26.35,99.79,75.15,135.65,139.17-76.58,42.91-147.75,109.7-205.09,192.71Zm-7.64,11.61c-4.96,7.47-10.06,14.78-14.78,22.48-13.66,22.27-25.65,45.03-36.63,67.98-32.71,46.91-56.22,105.73-67.06,170-1.1,6.51-1.83,12.98-2.65,19.47-8.32-45.24-12.88-92.96-12.88-142.33,0-63.84,7.51-124.96,21.14-181.45,37.7,9.47,75.7,24.17,112.86,43.85Zm540.33,137.6c0-36.61-2.5-72.61-7.17-107.68,24.11,1.36,47.12,4.72,68.7,10.03-3.11,85.61-30.09,181.2-81.21,273.36,12.69-55.78,19.68-114.86,19.68-175.72ZM619.24,13.82c82.07,0,157.19,47.13,215.01,124.83-52.96-5.62-111.74,6.11-172.32,35.22-4.8,2.3-9.49,5.13-14.25,7.62-4.83-8.6-9.61-17.25-14.86-25.39-33.87-52.53-74.21-91.59-118.29-115.55,32.92-17.25,68.11-26.73,104.7-26.73Zm-210.2,12.9c26.18,0,51.58,5.27,75.81,15.12-.21.14-.43.25-.64.39-40.96,26.87-77.7,65.26-109.19,114.1-32.85,50.95-58.06,110.51-74.99,175.29-13.04-2.85-26.05-5.22-38.93-6.78-50.87-6.15-96.63-1.32-135.5,13.05C167.6,156.6,278.79,26.72,409.04,26.72ZM54.61,402.93c14.27-17.19,31.82-31.07,51.97-41.75-8.32,43.87-12.73,89.78-12.73,136.75,0,129.02,32.46,250.42,91.4,341.83,2.3,3.57,4.68,6.95,7.04,10.4C27.66,709.04-34.36,510.06,54.61,402.93Zm859.99,577.46c-70.5,35.62-144.09,57.32-214.47,64.49,18.45-6.83,36.54-15.89,54.15-27.45,40.96-26.87,77.7-65.26,109.19-114.1,28.41-44.06,50.82-94.76,67.4-149.49,2.86-4.45,5.91-8.68,8.69-13.21,60.44-98.54,94.86-205.5,99.04-304.72,61.91,18.16,110.62,53.19,136.46,104.35,68.47,135.54-48.37,332.97-260.46,440.12Z"/>
  </g>
</svg>