<?xml version="1.0" encoding="UTF-8"?>
<svg id="Layer_2" data-name="Layer 2" xmlns="http://www.w3.org/2000/svg" viewBox="0 0 1154.1 1163.02">
  <g id="Layer_1-2" data-name="Layer 1">
    <g>
      <g>
        <g>
          <path d="m576.6.57c-73.25-8.54-145.73,79.02-177.34,204.74,33.2-73.78,79.69-119.29,125.73-113.92,74.34,8.66,119.34,146.6,100.52,308.1-7.15,61.35-22.48,117.26-42.82,162.55,56.3-42.38,102.51-137.01,115.78-250.89C717.29,149.66,662.73,10.61,576.6.57Z"/>
          <path d="m592.68,1162.75c73.52,5.83,142.72-84.33,169.69-211.13-30.46,74.95-75.24,122.14-121.45,118.47-74.6-5.92-124.66-142.11-111.8-304.19,4.89-61.57,18.15-118.01,36.81-164.02-54.7,44.43-97.4,140.69-106.47,254.98-12.86,162.08,46.78,299.03,133.22,305.89Z"/>
        </g>
        <g>
          <path d="m1153.57,578.29c8.23-73.29-79.63-145.4-205.49-176.48,73.92,32.88,119.62,79.18,114.45,125.25-8.35,74.37-146.1,119.96-307.67,101.82-61.38-6.89-117.35-21.99-162.73-42.14,42.62,56.12,137.44,101.93,251.37,114.72,161.58,18.14,300.4-37.01,310.07-123.18Z"/>
          <path d="m.24,601.12c-5.52,73.54,84.93,142.37,211.85,168.79-75.08-30.14-122.45-74.73-118.98-120.95,5.61-74.63,141.58-125.26,303.72-113.08,61.59,4.63,118.08,17.66,164.17,36.12-44.66-54.51-141.1-96.81-255.43-105.39C143.43,454.44,6.73,514.66.24,601.12Z"/>
        </g>
      </g>
      <g>
        <g>
          <path d="m991.5,174.37c-45.19-58.28-158.45-48.72-270.35,16.74,75.92-27.96,140.96-26.63,169.37,10,45.86,59.14-21.11,187.85-149.59,287.49-48.81,37.85-99.46,66.05-146.04,83.24,69.68,10.52,169.6-22.74,260.19-93,128.48-99.64,189.56-235.96,136.42-304.48Z"/>
          <path d="m173,999.57c47.31,56.57,160.14,42.86,269.55-26.68-74.84,30.74-139.89,31.8-169.62-3.76-48.01-57.41,14.18-188.5,138.91-292.81,47.38-39.62,96.97-69.67,142.88-88.56-70.02-7.95-168.64,28.96-256.59,102.51-124.73,104.3-180.75,242.78-125.12,309.29Z"/>
        </g>
        <g>
          <path d="m983,990.81c58.08-45.44,48.05-158.66-17.88-270.28,28.28,75.8,27.22,140.85-9.29,169.41-58.94,46.11-187.94-20.32-288.12-148.38-38.06-48.65-66.47-99.18-83.85-145.69-10.22,69.72,23.45,169.5,94.09,259.8,100.18,128.06,236.76,188.56,305.05,135.14Z"/>
          <path d="m159.18,183.35c-56.37,47.55-42.18,160.32,27.81,269.44-31.05-74.71-32.39-139.75,3.05-169.64,57.21-48.25,188.56,13.39,293.39,137.67,39.82,47.21,70.07,96.67,89.16,142.5,7.65-70.05-29.67-168.52-103.59-256.16-104.83-124.29-243.54-179.72-309.82-123.82Z"/>
        </g>
      </g>
    </g>
  </g>
</svg>