<?xml version="1.0" encoding="UTF-8"?>
<svg id="Layer_2" data-name="Layer 2" xmlns="http://www.w3.org/2000/svg" viewBox="0 0 1158 1167.04">
  <g id="Layer_1-2" data-name="Layer 1">
    <g>
      <g>
        <path d="m569.81.44c-73.66-7.48-145.12,81.49-174.98,208.17,32.23-74.56,78.22-120.93,124.52-116.23,74.75,7.59,121.98,145.39,105.5,307.79-6.26,61.69-20.83,118.05-40.57,163.82,55.88-43.38,100.87-139.06,112.5-253.58C713.25,148.01,656.41,9.23,569.81.44Z"/>
        <path d="m603.24,1166.86c73.89,4.76,142.02-86.78,167.2-214.47-29.46,75.7-73.71,123.73-120.16,120.74-74.98-4.83-127.25-140.8-116.75-303.7,3.99-61.88,16.47-118.73,34.51-165.2-54.25,45.41-95.68,142.68-103.09,257.55-10.5,162.9,51.41,299.49,138.28,305.09Z"/>
      </g>
      <g>
        <path d="m1157.59,571.8c7.17-73.69-82.1-144.77-208.91-174.1,74.7,31.91,121.26,77.71,116.76,124.03-7.27,74.78-144.88,122.6-307.35,106.79-61.72-6-118.13-20.33-163.99-39.88,43.62,55.7,139.48,100.28,254.05,111.43,162.47,15.8,301.01-41.62,309.44-128.27Z"/>
        <path d="m.16,611.88c-4.45,73.91,87.38,141.65,215.17,166.29-75.82-29.14-124.04-73.19-121.24-119.65,4.52-75,140.27-127.85,303.21-118.03,61.9,3.73,118.8,15.97,165.34,33.82-45.64-54.06-143.08-95.08-257.98-102C141.72,462.5,5.39,524.99.16,611.88Z"/>
      </g>
    </g>
  </g>
</svg>