<?xml version="1.0" encoding="UTF-8"?>
<svg id="Layer_2" data-name="Layer 2" xmlns="http://www.w3.org/2000/svg" viewBox="0 0 742.14 1179.5">
  <g id="Layer_1-2" data-name="Layer 1">
    <g>
      <path d="m391.4,1115.85h350.73c0-96.85-78.51-175.37-175.37-175.37s-175.37,78.51-175.37,175.37Z"/>
      <path d="m175.37,765.12c96.85,0,175.37-78.51,175.37-175.37H0c0,96.85,78.51,175.37,175.37,175.37Z"/>
      <path d="m175.37,589.75c96.85,0,175.37-78.51,175.37-175.37H0c0,96.85,78.51,175.37,175.37,175.37Z"/>
      <path d="m175.37,414.38c96.85,0,175.37-78.51,175.37-175.37H0c0,96.85,78.51,175.37,175.37,175.37Z"/>
      <path d="m350.73,63.65H0c0,96.85,78.51,175.37,175.37,175.37s175.37-78.51,175.37-175.37Z"/>
      <path d="m391.4,940.48h350.73c0-96.85-78.51-175.37-175.37-175.37s-175.37,78.51-175.37,175.37Z"/>
      <path d="m391.4,765.12h350.73c0-96.85-78.51-175.37-175.37-175.37s-175.37,78.51-175.37,175.37Z"/>
      <path d="m566.77,414.38c-96.85,0-175.37,78.51-175.37,175.37h350.73c0-96.85-78.51-175.37-175.37-175.37Z"/>
      <path d="m175.37,940.48c96.85,0,175.37-78.51,175.37-175.37H0c0,96.85,78.51,175.37,175.37,175.37Z"/>
      <path d="m566.77,239.02c-96.85,0-175.37,78.51-175.37,175.37h350.73c0-96.85-78.51-175.37-175.37-175.37Z"/>
      <circle cx="566.77" cy="119.51" r="119.51" transform="translate(-12.3 133.41) rotate(-13.28)"/>
      <circle cx="175.37" cy="1059.99" r="119.51" transform="translate(-167.53 41.78) rotate(-9.22)"/>
    </g>
  </g>
</svg>