<?xml version="1.0" encoding="UTF-8"?>
<svg id="Layer_2" data-name="Layer 2" xmlns="http://www.w3.org/2000/svg" viewBox="0 0 1047.02 1011.54">
  <defs>
    <style>
      .cls-1 {
        fill: #231f20;
      }
    </style>
  </defs>
  <g id="Layer_1-2" data-name="Layer 1">
    <polygon class="cls-1" points="967.56 209.27 968.13 208.74 1045.18 291.97 1047.02 293.96 1031.34 40.57 1031.29 39.79 779.09 4.53 851.16 82.39 521.66 387.43 193.14 81.29 268.89 0 17.35 34.32 16.57 34.42 0 288.54 75.75 207.25 394.96 504.72 75.37 800.58 74.66 801.24 190.97 926.88 191.26 927.2 1.41 722.12 17.09 975.5 17.14 976.29 269.34 1011.54 191.63 927.59 521.27 622.43 849.2 928.02 849.32 928.13 773.57 1009.41 1025.11 975.1 1025.89 974.99 1042.46 720.87 966.7 802.16 647.97 505.14 967.56 209.27"/>
  </g>
</svg>