<?xml version="1.0" encoding="UTF-8"?>
<svg id="Layer_2" data-name="Layer 2" xmlns="http://www.w3.org/2000/svg" viewBox="0 0 1076.09 1076.09">
  <defs>
    <style>
      .cls-1 {
        fill: none;
      }

      .cls-2 {
        fill: #231f20;
      }
    </style>
  </defs>
  <g id="Layer_1-2" data-name="Layer 1">
    <g>
      <path class="cls-1" d="m807.74,445.33c-49.75-6.22-104.91-10.78-163.69-13.29,1.46,34.23,2.23,69.69,2.23,106.01s-.77,71.78-2.23,106.01c58.77-2.51,113.94-7.07,163.69-13.29,2.83-30.09,4.3-61.08,4.3-92.72s-1.48-62.63-4.3-92.72Z"/>
      <path class="cls-1" d="m780.73,295.36c-15.21-55.18-35.43-104.54-59.53-145.86-37.01-11-76-18.79-116.44-22.88,10.35,39.14,19.18,87.18,26,141.73,53.23,5,103.64,14.24,149.97,27.01Z"/>
      <path class="cls-2" d="m538.05,1076.09v-31.18c61.98,0,122.25-44.81,169.69-126.17l3.11-5.33,5.92-1.76c49.76-14.79,96.12-35.63,137.81-61.94l58.31-36.8-36.8,58.31c-39.27,62.22-89.94,113.7-146.53,148.87-59.79,37.16-124.22,56-191.51,56Zm193.48-136.33c-17.96,29.9-37.73,55.21-58.83,75.62,50.37-22.89,96.78-58.59,136.54-105.49-24.83,11.6-50.8,21.59-77.71,29.87Z"/>
      <path class="cls-2" d="m538.05,1076.09c-67.29,0-131.73-18.84-191.51-56-56.59-35.18-107.26-86.66-146.53-148.87l-36.8-58.31,58.31,36.8c41.69,26.31,88.06,47.15,137.81,61.94l5.92,1.76,3.11,5.33c47.44,81.36,107.7,126.17,169.69,126.17v31.18Zm-271.19-166.2c39.76,46.89,86.17,82.6,136.54,105.49-21.11-20.4-40.87-45.72-58.83-75.62-26.91-8.29-52.88-18.27-77.71-29.87Z"/>
      <path class="cls-2" d="m163.21,263.18l36.8-58.31c39.27-62.22,89.94-113.7,146.53-148.87C406.32,18.84,470.75,0,538.05,0v31.18c-61.98,0-122.25,44.81-169.69,126.17l-3.11,5.33-5.92,1.76c-49.76,14.79-96.13,35.63-137.81,61.94l-58.31,36.8ZM403.4,60.71c-50.37,22.88-96.78,58.6-136.54,105.49,24.83-11.6,50.8-21.59,77.71-29.87,17.96-29.9,37.73-55.21,58.83-75.62Z"/>
      <path class="cls-2" d="m912.88,263.18l-58.31-36.8c-41.69-26.31-88.06-47.15-137.81-61.94l-5.92-1.76-3.11-5.33c-47.44-81.36-107.71-126.17-169.69-126.17V0c67.29,0,131.73,18.84,191.51,56,56.59,35.18,107.26,86.66,146.53,148.87l36.8,58.31Zm-181.35-126.85c26.91,8.29,52.88,18.27,77.71,29.87-39.76-46.89-86.17-82.61-136.54-105.49,21.11,20.4,40.87,45.72,58.83,75.62Z"/>
      <path class="cls-2" d="m321.58,175.66l19.84-34.02C394.68,50.3,464.51,0,538.05,0v31.18c-9.42,0-30.9,20.94-51.64,99.42l-2.76,10.44-10.74,1.09c-38.74,3.92-76.95,11.43-113.57,22.31l-37.75,11.22ZM485.99,41.8c-34.33,14.13-67.07,42.11-96.16,82.41,22.73-5.2,45.89-9.19,69.26-11.94,8.25-29.28,17.19-52.73,26.9-70.47Z"/>
      <path class="cls-2" d="m538.05,1076.09v-31.18c9.42,0,30.9-20.94,51.64-99.42l2.76-10.44,10.74-1.09c38.74-3.92,76.95-11.43,113.57-22.31l37.75-11.22-19.84,34.02c-53.26,91.34-123.09,141.64-196.63,141.64Zm78.96-112.27c-8.25,29.28-17.19,52.73-26.9,70.47,34.33-14.13,67.07-42.11,96.16-82.41-22.73,5.2-45.89,9.19-69.26,11.94Z"/>
      <path class="cls-2" d="m754.51,175.66l-37.75-11.22c-36.62-10.89-74.83-18.39-113.57-22.31l-10.74-1.09-2.76-10.44c-20.74-78.48-42.22-99.42-51.64-99.42V0c73.53,0,143.36,50.3,196.63,141.64l19.84,34.02Zm-137.5-63.39c23.37,2.75,46.52,6.74,69.26,11.94-29.09-40.3-61.83-68.28-96.16-82.41,9.71,17.74,18.65,41.19,26.9,70.47Z"/>
      <path class="cls-2" d="m538.05,1076.09c-73.54,0-143.37-50.3-196.63-141.64l-19.84-34.02,37.75,11.22c36.62,10.89,74.83,18.39,113.57,22.31l10.74,1.09,2.76,10.44c20.74,78.48,42.22,99.42,51.64,99.42v31.18Zm-148.22-124.22c29.09,40.3,61.83,68.28,96.16,82.41-9.71-17.74-18.65-41.19-26.9-70.47-23.37-2.75-46.52-6.75-69.26-11.94Z"/>
      <path class="cls-2" d="m625.59,144.4l-22.4-2.27c-42.92-4.34-87.37-4.34-130.29,0l-22.4,2.27,5.75-21.76C478.07,40.11,504.82,0,538.05,0s59.98,40.11,81.79,122.63l5.75,21.76Zm-87.54-113.21c-8.5,0-26.81,17.04-45.55,78.01,30.26-2.02,60.84-2.02,91.1,0-18.73-60.97-37.05-78.01-45.55-78.01Z"/>
      <path class="cls-2" d="m538.05,1076.09c-33.23,0-59.98-40.11-81.79-122.63l-5.75-21.76,22.4,2.27c42.89,4.34,87.34,4.34,130.29,0l22.4-2.27-5.75,21.76c-21.81,82.52-48.57,122.63-81.79,122.63Zm-45.55-109.2c18.73,60.97,37.05,78.01,45.55,78.01s26.81-17.04,45.55-78.01c-30.27,2.03-60.85,2.02-91.1,0Z"/>
      <path class="cls-2" d="m812.91,912.88l36.8-58.31c26.31-41.69,47.15-88.06,61.94-137.81l1.76-5.92,5.33-3.11c81.36-47.44,126.17-107.71,126.17-169.69h31.18c0,67.29-18.84,131.72-56,191.51-35.18,56.59-86.66,107.26-148.87,146.53l-58.31,36.8Zm126.85-181.35c-8.29,26.91-18.27,52.88-29.87,77.71,46.89-39.76,82.6-86.17,105.49-136.54-20.4,21.11-45.72,40.87-75.62,58.83Z"/>
      <path class="cls-2" d="m263.18,912.88l-58.31-36.8c-62.22-39.27-113.7-89.94-148.87-146.53C18.84,669.77,0,605.34,0,538.05h31.18c0,61.98,44.81,122.24,126.17,169.69l5.33,3.11,1.76,5.92c14.79,49.76,35.63,96.13,61.94,137.81l36.8,58.31Zm-202.47-240.19c22.88,50.37,58.6,96.78,105.49,136.54-11.6-24.83-21.59-50.8-29.87-77.71-29.9-17.96-55.21-37.73-75.62-58.83Z"/>
      <path class="cls-2" d="m1076.09,538.05h-31.18c0-61.98-44.81-122.25-126.17-169.69l-5.33-3.11-1.76-5.92c-14.79-49.76-35.63-96.12-61.94-137.81l-36.8-58.31,58.31,36.8c62.22,39.27,113.7,89.94,148.87,146.53,37.16,59.78,56,124.22,56,191.51Zm-136.33-193.48c29.9,17.96,55.21,37.73,75.62,58.83-22.88-50.37-58.59-96.78-105.49-136.54,11.6,24.83,21.59,50.8,29.87,77.71Z"/>
      <path class="cls-2" d="m31.18,538.05H0c0-67.29,18.84-131.73,56-191.51,35.18-56.59,86.66-107.26,148.87-146.53l58.31-36.8-36.8,58.31c-26.31,41.69-47.15,88.05-61.94,137.81l-1.76,5.92-5.33,3.11c-81.36,47.44-126.17,107.7-126.17,169.69Zm135.02-271.19c-46.89,39.76-82.61,86.17-105.49,136.54,20.4-21.11,45.72-40.87,75.62-58.83,8.29-26.91,18.27-52.88,29.87-77.71Z"/>
      <path class="cls-2" d="m1076.09,538.05h-31.18c0-9.42-20.94-30.9-99.42-51.64l-10.44-2.76-1.09-10.74c-3.92-38.74-11.43-76.95-22.31-113.57l-11.22-37.75,34.02,19.84c91.34,53.26,141.64,123.09,141.64,196.63Zm-112.27-78.96c29.28,8.25,52.73,17.19,70.47,26.9-14.13-34.33-42.11-67.07-82.41-96.16,5.2,22.73,9.19,45.89,11.94,69.26Z"/>
      <path class="cls-2" d="m900.43,754.51l11.22-37.75c10.89-36.62,18.39-74.83,22.31-113.57l1.09-10.74,10.44-2.76c78.48-20.74,99.42-42.22,99.42-51.64h31.18c0,73.53-50.3,143.37-141.64,196.63l-34.02,19.84Zm63.39-137.5c-2.75,23.37-6.75,46.52-11.94,69.26,40.3-29.09,68.28-61.83,82.41-96.16-17.74,9.71-41.19,18.65-70.47,26.9Z"/>
      <path class="cls-2" d="m175.66,754.51l-34.02-19.84C50.3,681.41,0,611.58,0,538.05h31.18c0,9.42,20.94,30.9,99.42,51.64l10.44,2.76,1.09,10.74c3.92,38.74,11.43,76.95,22.31,113.57l11.22,37.75Zm-133.86-164.4c14.13,34.33,42.11,67.07,82.41,96.16-5.2-22.73-9.19-45.89-11.94-69.26-29.28-8.25-52.73-17.19-70.47-26.9Z"/>
      <path class="cls-2" d="m31.18,538.05H0c0-73.54,50.3-143.37,141.64-196.63l34.02-19.84-11.22,37.75c-10.89,36.62-18.39,74.83-22.31,113.57l-1.09,10.74-10.44,2.76c-78.48,20.74-99.42,42.22-99.42,51.64Zm93.03-148.22c-40.3,29.09-68.28,61.83-82.41,96.16,17.74-9.71,41.19-18.65,70.47-26.9,2.75-23.37,6.74-46.52,11.94-69.26Z"/>
      <path class="cls-2" d="m931.7,625.59l2.27-22.4c2.17-21.47,3.27-43.39,3.27-65.15s-1.1-43.68-3.27-65.15l-2.26-22.4,21.76,5.75c82.52,21.81,122.63,48.57,122.63,81.79s-40.11,59.98-122.63,81.79l-21.76,5.75Zm35.2-133.09c1.01,15.13,1.52,30.38,1.52,45.55s-.51,30.41-1.52,45.55c60.97-18.73,78.01-37.05,78.01-45.55s-17.04-26.81-78.01-45.55Z"/>
      <path class="cls-2" d="m144.4,625.59l-21.76-5.75C40.11,598.03,0,571.27,0,538.05s40.11-59.98,122.63-81.79l21.76-5.75-2.27,22.4c-2.17,21.46-3.27,43.38-3.27,65.15s1.1,43.69,3.27,65.15l2.27,22.4Zm-35.2-133.09c-60.97,18.73-78.01,37.05-78.01,45.55s17.04,26.81,78.01,45.55c-1.01-15.13-1.52-30.37-1.52-45.55s.51-30.42,1.52-45.55Z"/>
      <path class="cls-2" d="m123.33,388.2l11.22-37.75c15.6-52.49,37.63-101.47,65.46-145.57l1.88-2.98,2.98-1.88c44.1-27.83,93.08-49.86,145.57-65.46l37.75-11.22-19.84,34.02c-23.64,40.55-43.15,88.37-57.97,142.15l-2.35,8.54-8.54,2.35c-53.78,14.82-101.61,34.33-142.15,57.97l-34.02,19.84Zm101.18-163.69c-18.94,30.48-34.98,63.41-47.9,98.31,32.16-15.61,67.68-29.04,106.12-40.09,11.06-38.43,24.49-73.96,40.09-106.12-34.9,12.92-67.83,28.96-98.31,47.9Z"/>
      <path class="cls-2" d="m388.2,952.77l-37.75-11.22c-52.49-15.6-101.47-37.63-145.57-65.46l-2.98-1.88-1.88-2.98c-27.83-44.1-49.86-93.08-65.46-145.57l-11.22-37.75,34.02,19.84c40.55,23.64,88.38,43.15,142.15,57.97l8.54,2.35,2.35,8.54c14.82,53.78,34.33,101.61,57.97,142.15l19.84,34.02Zm-163.69-101.18c30.47,18.94,63.41,34.98,98.31,47.9-15.61-32.16-29.04-67.69-40.09-106.12-38.43-11.06-73.96-24.49-106.12-40.09,12.92,34.9,28.96,67.83,47.9,98.31Z"/>
      <path class="cls-2" d="m952.77,388.2l-34.02-19.84c-40.55-23.64-88.37-43.15-142.15-57.97l-8.54-2.35-2.35-8.54c-14.82-53.78-34.33-101.61-57.97-142.15l-19.84-34.02,37.75,11.22c52.49,15.6,101.47,37.63,145.57,65.46l2.98,1.88,1.88,2.98c27.83,44.1,49.86,93.08,65.46,145.57l11.22,37.75Zm-159.39-105.47c38.43,11.06,73.96,24.49,106.12,40.09-12.92-34.89-28.96-67.83-47.9-98.31-30.48-18.94-63.41-34.98-98.31-47.9,15.61,32.16,29.04,67.69,40.09,106.12Z"/>
      <path class="cls-2" d="m687.9,952.76l19.84-34.02c23.64-40.55,43.15-88.38,57.97-142.15l2.35-8.54,8.54-2.35c53.78-14.82,101.6-34.33,142.15-57.97l34.02-19.84-11.22,37.75c-15.6,52.49-37.63,101.47-65.46,145.57l-1.88,2.98-2.98,1.88c-44.1,27.83-93.08,49.86-145.57,65.46l-37.75,11.22Zm105.47-159.39c-11.06,38.43-24.49,73.96-40.09,106.12,34.9-12.92,67.83-28.96,98.31-47.9,18.94-30.48,34.98-63.41,47.9-98.31-32.16,15.61-67.69,29.04-106.12,40.09Z"/>
      <path class="cls-2" d="m273.03,317.69l7.3-26.47c15.54-56.38,36.09-106.7,61.09-149.58l3.11-5.33,5.92-1.76c38.49-11.44,78.63-19.33,119.31-23.45l22.4-2.27-5.75,21.76c-10.24,38.75-18.86,85.75-25.61,139.68l-1.55,12.42-12.46,1.17c-51.4,4.83-100.96,13.75-147.28,26.52l-26.47,7.3Zm92.25-154.98c-18.43,32.6-34.25,69.72-47.19,110.71,36.33-8.69,74.3-15.17,113.35-19.35,5.39-40.56,11.87-77.18,19.33-109.31-29.07,3.99-57.71,10-85.49,17.94Z"/>
      <path class="cls-2" d="m492.16,967.26l-22.4-2.27c-40.68-4.12-80.82-12.01-119.31-23.45l-5.92-1.76-3.11-5.33c-25-42.88-45.55-93.2-61.09-149.58l-7.3-26.47,26.47,7.3c46.33,12.77,95.88,21.69,147.28,26.52l12.46,1.17,1.55,12.42c6.75,53.94,15.36,100.94,25.61,139.68l5.75,21.76Zm-126.87-53.87c27.77,7.94,56.42,13.95,85.49,17.94-7.46-32.13-13.93-68.75-19.33-109.31-39.05-4.18-77.02-10.66-113.35-19.35,12.94,40.99,28.76,78.12,47.19,110.71Z"/>
      <path class="cls-2" d="m583.94,967.26l5.75-21.76c10.24-38.75,18.86-85.75,25.61-139.68l1.55-12.42,12.46-1.17c51.4-4.83,100.96-13.75,147.28-26.52l26.47-7.3-7.3,26.47c-15.54,56.37-36.09,106.7-61.09,149.58l-3.11,5.33-5.92,1.76c-38.49,11.44-78.63,19.33-119.31,23.45l-22.4,2.27Zm60.71-145.24c-5.39,40.56-11.87,77.18-19.33,109.31,29.07-3.99,57.71-10,85.49-17.94,18.43-32.6,34.25-69.72,47.19-110.71-36.33,8.69-74.31,15.17-113.35,19.35Z"/>
      <path class="cls-2" d="m538.05,968.42c-22.82,0-45.79-1.15-68.29-3.43l-10.74-1.09-2.76-10.44c-10.6-40.09-19.48-88.47-26.4-143.78l-2.41-19.28,19.34,1.82c59.83,5.62,122.7,5.62,182.52,0l19.34-1.82-2.41,19.28c-6.92,55.32-15.8,103.69-26.4,143.78l-2.76,10.44-10.75,1.09c-22.51,2.28-45.48,3.43-68.28,3.43Zm-54.33-33.46c35.94,3.02,72.68,3.02,108.67,0,7.88-31.81,14.72-68.72,20.41-110.07-49.34,3.65-100.14,3.65-149.48,0,5.69,41.35,12.53,78.25,20.41,110.07Z"/>
      <path class="cls-2" d="m648.65,285.69l-19.34-1.82c-59.82-5.62-122.7-5.62-182.52,0l-19.34,1.82,2.41-19.28c6.92-55.32,15.8-103.69,26.4-143.78l2.76-10.44,10.74-1.09c22.5-2.28,45.47-3.43,68.29-3.43s45.79,1.15,68.29,3.43l10.75,1.09,2.76,10.44c10.6,40.09,19.48,88.47,26.4,143.78l2.41,19.28Zm-164.94-144.56c-7.87,31.81-14.72,68.72-20.41,110.07,49.34-3.64,100.15-3.64,149.48,0-5.69-41.35-12.53-78.25-20.41-110.07-35.96-3.02-72.71-3.02-108.67,0Z"/>
      <path class="cls-2" d="m967.26,492.16l-21.76-5.75c-38.75-10.24-85.75-18.86-139.68-25.61l-12.42-1.55-1.17-12.46c-4.83-51.4-13.75-100.96-26.52-147.28l-7.3-26.47,26.47,7.3c56.38,15.54,106.7,36.09,149.58,61.09l5.33,3.11,1.76,5.92c11.44,38.49,19.33,78.63,23.45,119.31l2.27,22.4Zm-145.24-60.71c40.56,5.39,77.18,11.87,109.31,19.33-3.99-29.07-10-57.72-17.94-85.49-32.6-18.43-69.72-34.25-110.71-47.19,8.69,36.33,15.17,74.31,19.35,113.35Z"/>
      <path class="cls-2" d="m758.41,803.06l7.3-26.47c12.77-46.33,21.69-95.88,26.52-147.28l1.17-12.46,12.42-1.55c53.94-6.75,100.94-15.36,139.68-25.61l21.76-5.75-2.27,22.4c-4.12,40.68-12,80.82-23.45,119.31l-1.76,5.92-5.33,3.11c-42.88,25-93.2,45.55-149.58,61.09l-26.47,7.3Zm63.61-158.42c-4.18,39.05-10.66,77.02-19.35,113.35,40.99-12.94,78.11-28.76,110.71-47.19,7.94-27.78,13.95-56.43,17.94-85.49-32.13,7.46-68.75,13.94-109.31,19.33Z"/>
      <path class="cls-2" d="m108.84,492.16l2.27-22.4c4.12-40.68,12-80.82,23.45-119.31l1.76-5.92,5.33-3.11c42.87-25,93.2-45.55,149.58-61.09l26.47-7.3-7.3,26.47c-12.77,46.32-21.69,95.88-26.52,147.28l-1.17,12.46-12.42,1.55c-53.94,6.75-100.93,15.36-139.68,25.61l-21.76,5.75Zm53.87-126.87c-7.94,27.77-13.95,56.42-17.94,85.49,32.13-7.46,68.75-13.93,109.31-19.33,4.18-39.05,10.66-77.02,19.35-113.35-40.99,12.94-78.12,28.76-110.71,47.19Z"/>
      <path class="cls-2" d="m317.69,803.06l-26.47-7.3c-56.38-15.54-106.7-36.09-149.58-61.09l-5.33-3.11-1.76-5.92c-11.44-38.49-19.33-78.63-23.45-119.31l-2.27-22.4,21.76,5.75c38.75,10.24,85.74,18.86,139.68,25.61l12.42,1.55,1.17,12.46c4.83,51.4,13.75,100.96,26.52,147.28l7.3,26.47Zm-154.98-92.25c32.6,18.43,69.72,34.25,110.71,47.19-8.69-36.33-15.17-74.31-19.35-113.35-40.56-5.39-77.18-11.87-109.31-19.33,3.99,29.06,10,57.72,17.94,85.49Z"/>
      <path class="cls-2" d="m790.4,648.65l1.82-19.34c2.81-29.91,4.24-60.62,4.24-91.26s-1.43-61.35-4.24-91.26l-1.82-19.34,19.28,2.41c55.32,6.92,103.69,15.8,143.78,26.4l10.44,2.76,1.09,10.75c2.28,22.51,3.43,45.48,3.43,68.29s-1.15,45.78-3.43,68.28l-1.09,10.75-10.44,2.76c-40.09,10.6-88.47,19.48-143.78,26.4l-19.28,2.41Zm34.49-185.34c1.82,24.67,2.74,49.73,2.74,74.74s-.92,50.07-2.74,74.74c41.35-5.69,78.25-12.53,110.07-20.41,1.51-17.99,2.27-36.22,2.27-54.33s-.76-36.35-2.27-54.34c-31.81-7.87-68.72-14.71-110.07-20.41Z"/>
      <path class="cls-2" d="m285.69,648.65l-19.28-2.41c-55.32-6.92-103.69-15.8-143.78-26.4l-10.44-2.76-1.09-10.75c-2.28-22.5-3.43-45.47-3.43-68.29s1.15-45.79,3.43-68.29l1.09-10.74,10.44-2.76c40.09-10.6,88.46-19.48,143.78-26.4l19.28-2.41-1.82,19.34c-2.81,29.91-4.23,60.62-4.23,91.26s1.42,61.35,4.23,91.26l1.82,19.34Zm-144.56-56.27c31.81,7.88,68.72,14.72,110.07,20.41-1.82-24.67-2.74-49.73-2.74-74.74s.92-50.07,2.74-74.74c-41.35,5.69-78.25,12.53-110.07,20.41-1.51,17.98-2.27,36.21-2.27,54.33s.76,36.35,2.27,54.33Z"/>
      <path class="cls-2" d="m463.21,825.08l-19.34-1.82c-53.21-5-104.57-14.25-152.65-27.5l-8.54-2.35-2.35-8.54c-13.25-48.08-22.5-99.44-27.5-152.65l-1.82-19.34,19.28,2.41c50.29,6.29,104.93,10.73,162.42,13.18l14.3.61.61,14.3c2.45,57.47,6.89,112.11,13.18,162.42l2.41,19.28Zm-155.13-57.07c37.99,10,78.05,17.44,119.45,22.2-4.69-41.39-8.19-85.38-10.42-131.23-45.86-2.24-89.86-5.73-131.23-10.42,4.76,41.4,12.2,81.47,22.2,119.46Z"/>
      <path class="cls-2" d="m612.88,825.08l2.41-19.28c6.29-50.28,10.73-104.93,13.18-162.42l.61-14.3,14.3-.61c57.49-2.46,112.13-6.89,162.42-13.18l19.28-2.41-1.82,19.34c-5,53.21-14.25,104.57-27.5,152.65l-2.35,8.54-8.54,2.35c-48.08,13.25-99.44,22.5-152.65,27.5l-19.34,1.82Zm46.1-166.1c-2.24,45.86-5.73,89.86-10.42,131.23,41.4-4.76,81.47-12.2,119.46-22.2,10-37.99,17.44-78.05,22.2-119.46-41.37,4.69-85.37,8.19-131.23,10.42Z"/>
      <path class="cls-2" d="m251.01,463.21l1.82-19.34c5-53.22,14.25-104.57,27.5-152.65l2.35-8.54,8.54-2.35c48.08-13.25,99.44-22.5,152.65-27.5l19.34-1.82-2.41,19.28c-6.29,50.31-10.73,104.95-13.18,162.42l-.61,14.3-14.3.61c-57.47,2.45-112.11,6.89-162.42,13.18l-19.28,2.41Zm57.07-155.13c-10,37.99-17.44,78.05-22.2,119.45,41.39-4.69,85.39-8.19,131.23-10.42,2.24-45.84,5.73-89.84,10.42-131.23-41.4,4.76-81.47,12.2-119.45,22.2Z"/>
      <path class="cls-2" d="m825.08,463.21l-19.28-2.41c-50.31-6.29-104.95-10.73-162.42-13.18l-14.3-.61-.61-14.3c-2.46-57.49-6.89-112.13-13.18-162.42l-2.41-19.28,19.34,1.82c53.21,5,104.57,14.25,152.65,27.5l8.54,2.35,2.35,8.54c13.25,48.08,22.5,99.44,27.5,152.65l1.82,19.34Zm-166.1-46.1c45.85,2.24,89.84,5.73,131.23,10.42-4.76-41.4-12.2-81.47-22.2-119.45-37.99-10-78.05-17.44-119.46-22.2,4.69,41.37,8.19,85.37,10.42,131.23Z"/>
      <path class="cls-2" d="m660.36,448.34l-16.97-.72c-68.89-2.94-141.8-2.94-210.69,0l-16.97.72.72-16.97c2.49-58.31,7-113.81,13.4-164.96l1.55-12.42,12.46-1.17c61.76-5.8,126.6-5.8,188.35,0l12.46,1.17,1.55,12.42c6.4,51.13,10.91,106.63,13.4,164.96l.72,16.97Zm-201.08-165.56c-4.91,41.79-8.56,86.4-10.89,133.01,58.97-2.1,120.32-2.1,179.3,0-2.33-46.62-5.98-91.24-10.89-133.01-51.87-4.18-105.65-4.18-157.52,0Z"/>
      <path class="cls-2" d="m538.05,827.64c-31.61,0-63.3-1.47-94.18-4.37l-12.46-1.17-1.55-12.42c-6.4-51.15-10.91-106.65-13.4-164.96l-.72-16.97,16.97.72c68.89,2.94,141.8,2.94,210.69,0l16.97-.72-.72,16.97c-2.49,58.33-7,113.83-13.4,164.96l-1.55,12.42-12.46,1.17c-30.88,2.9-62.56,4.37-94.18,4.37Zm-78.76-34.33c51.87,4.18,105.65,4.18,157.52,0,4.9-41.77,8.56-86.39,10.89-133.01-58.97,2.1-120.33,2.1-179.3,0,2.33,46.61,5.98,91.22,10.89,133.01Z"/>
      <path class="cls-2" d="m448.34,660.36l-16.97-.72c-58.33-2.49-113.83-7-164.96-13.4l-12.42-1.55-1.17-12.46c-2.9-30.88-4.37-62.56-4.37-94.18s1.47-63.3,4.37-94.18l1.17-12.46,12.42-1.55c51.15-6.4,106.65-10.91,164.96-13.4l16.97-.72-.72,16.97c-1.47,34.44-2.22,69.89-2.22,105.34s.75,70.9,2.22,105.34l.72,16.97Zm-165.56-43.55c41.77,4.9,86.39,8.56,133.01,10.89-1.05-29.49-1.58-59.57-1.58-89.65s.53-60.16,1.58-89.65c-46.61,2.33-91.22,5.98-133.01,10.89-2.09,25.94-3.15,52.37-3.15,78.76s1.06,52.83,3.15,78.76Z"/>
      <path class="cls-2" d="m538.05,661.88c-35.9,0-71.79-.76-106.68-2.24l-14.3-.61-.61-14.3c-1.49-34.89-2.25-70.78-2.25-106.68s.76-71.79,2.25-106.68l.61-14.3,14.3-.61c69.77-2.98,143.58-2.98,213.35,0l14.3.61.61,14.3c1.49,34.89,2.24,70.78,2.24,106.68s-.76,71.79-2.24,106.68l-.61,14.3-14.3.61c-34.89,1.49-70.78,2.24-106.68,2.24Zm-91-32.83c59.81,2.19,122.19,2.19,182,0,1.09-29.9,1.65-60.45,1.65-91s-.55-61.1-1.65-91c-59.81-2.19-122.2-2.19-182,0-1.09,29.9-1.65,60.45-1.65,91s.55,61.1,1.65,91Z"/>
    </g>
  </g>
</svg>