<?xml version="1.0" encoding="UTF-8"?>
<svg id="Layer_2" data-name="Layer 2" xmlns="http://www.w3.org/2000/svg" viewBox="0 0 1132.98 1209.62">
  <defs>
    <style>
      .cls-1 {
        fill: #231f20;
      }
    </style>
  </defs>
  <g id="Layer_1-2" data-name="Layer 1">
    <path class="cls-1" d="m814.31,615.52h318.67L777.61,0l-175.41,303.82c-76.25-61.11-162.19-102.41-247.95-117.56-53.38-9.44-103.93-8.43-150.25,2.98-49.24,12.13-91.39,35.47-125.27,69.35-33.88,33.88-57.21,76.03-69.35,125.27-11.41,46.32-12.42,96.86-2.98,150.25,8.98,50.83,27.29,101.72,53.21,150.68v524.84h548.88v-205.96c5.75-1.08,11.46-2.25,17.06-3.63,49.24-12.14,91.39-35.47,125.27-69.35,33.88-33.88,57.21-76.03,69.35-125.27,11.41-46.31,12.42-96.86,2.98-150.25-2.34-13.22-5.31-26.45-8.85-39.65ZM126.54,785.24c14.39,17.73,29.51,35.1,46.02,51.61,88.25,88.25,195.76,147.26,302.74,166.17,22.54,3.98,44.76,5.95,66.26,6.2v133.48H126.54v-357.45Zm360.41,151.87c-93.58-16.54-188.43-68.95-267.06-147.59-19.68-19.68-37.69-40.4-53.95-61.85h375.62v214.62c-17.65-.26-35.95-1.89-54.61-5.18ZM122.42,660.74c-24.23-43.99-41.24-89.71-49.69-135.15-16.82-90.46,2.12-168.47,53.33-219.68,38.76-38.76,93.32-59.24,157.8-59.24,93.19,0,196.46,42.56,284.58,115.63l-146.19,253.22h322.14c5.05,16.04,9.46,32.11,12.44,48.16,16.82,90.46-2.12,168.48-53.32,219.68-25.41,25.41-57.71,42.78-95.01,51.83v-274.45H122.42Zm496.17-251.45c41.07,42.86,74.47,90.15,98.78,139.3h-179.2l80.42-139.3Zm38.4-56.87c-1.17-1.17-2.43-2.21-3.62-3.38l124.24-215.19,239.45,414.73h-226.24c-29.63-70.01-75.05-137.39-133.83-196.17Z"/>
  </g>
</svg>