<?xml version="1.0" encoding="UTF-8"?>
<svg id="Layer_2" data-name="Layer 2" xmlns="http://www.w3.org/2000/svg" viewBox="0 0 1172.8 1165.89">
  <defs>
    <style>
      .cls-1 {
        fill: #231f20;
      }
    </style>
  </defs>
  <g id="Layer_1-2" data-name="Layer 1">
    <path class="cls-1" d="m642.95,1165.89c-6.01-41.01-11.44-75.3-16.25-103.75l-30.18,2.88c-4.22-38.33-8.17-67.68-11.71-90.15-3.72,22.43-7.9,51.75-12.43,90.05l-30.15-3.12c-5.04,28.41-10.74,62.65-17.09,103.61l-56.68-7.91c6.27-50.49,9.09-85.97,10.1-110.77-10.04,22.7-23.16,55.78-39.8,103.86l-54.35-17.9c12.38-39.56,22.37-72.8,30.37-100.52l-28.44-10.5c12.83-36.37,22.01-64.53,28.57-86.3-13.08,18.6-29.57,43.2-50.27,75.74l-25.81-15.89c-16.87,23.41-36.86,51.79-60.35,85.94l-47.63-31.71c27.56-42.77,45.49-73.51,57.16-95.42-18.9,16.1-45.06,40.21-80.92,76.31l-41.2-39.71c28.31-30.27,51.74-55.89,70.98-77.39l-21.06-21.8c27.34-27.2,47.83-48.59,63.18-65.36-19.86,11.08-45.39,26.09-78.16,46.43l-16.36-25.52c-25.36,13.77-55.68,30.67-91.66,51.24l-29.16-49.24c43.39-26.58,72.88-46.49,92.9-61.17-24.01,6.3-58.05,16.67-106.02,33.64l-19.89-53.66c38.64-14.99,70.86-27.9,97.53-38.93l-9.52-28.78c36.43-12.65,64.17-23.03,85.28-31.47-22.7,1.37-52.21,3.81-90.56,7.92l-3.67-30.09c-28.82,1.4-63.47,3.47-104.82,6.4l-4.9-57.01c50.62-5.12,85.83-10.26,110.24-14.8-24.37-4.74-59.53-10.16-110.11-15.69l5.36-56.97c41.32,3.26,75.95,5.61,104.76,7.24l3.91-30.06c38.31,4.41,67.81,7.1,90.49,8.65-21.04-8.62-48.7-19.22-85.03-32.16l9.75-28.7c-26.58-11.24-58.69-24.41-97.21-39.71l20.32-53.5c47.83,17.35,81.79,28,105.74,34.49-19.9-14.84-49.23-34.99-92.4-61.91l29.55-49.01c35.81,20.87,66,38.01,91.25,51.98l16.57-25.39c32.6,20.6,58.01,35.82,77.78,47.06-15.22-16.89-35.54-38.44-62.65-65.87l21.24-21.63c-19.07-21.66-42.29-47.46-70.36-77.96l41.52-39.38c35.57,36.39,61.54,60.71,80.31,76.96-11.49-22-29.17-52.88-56.39-95.87l47.89-31.33c23.21,34.34,42.97,62.88,59.66,86.42l25.94-15.68c20.44,32.71,36.73,57.44,49.66,76.14-6.38-21.83-15.34-50.06-27.87-86.53l28.52-10.27c-7.78-27.79-17.51-61.11-29.56-100.77l54.49-17.47c16.26,48.21,29.11,81.4,38.96,104.18-.8-24.81-3.34-60.3-9.21-110.84l56.74-7.45c6.01,41.01,11.44,75.3,16.25,103.75l30.18-2.88c4.22,38.34,8.17,67.69,11.71,90.15,3.72-22.43,7.9-51.75,12.43-90.05l30.15,3.12c5.04-28.41,10.74-62.65,17.08-103.61l56.68,7.91c-6.27,50.49-9.09,85.97-10.1,110.77,10.04-22.7,23.16-55.78,39.8-103.86l54.35,17.9c-12.38,39.56-22.37,72.8-30.37,100.52l28.44,10.5c-12.83,36.37-22.01,64.53-28.57,86.3,13.08-18.6,29.57-43.2,50.27-75.74l25.81,15.89c16.87-23.41,36.86-51.79,60.35-85.94l47.63,31.71c-27.56,42.77-45.49,73.51-57.16,95.42,18.9-16.1,45.07-40.21,80.92-76.31l41.2,39.71c-28.31,30.27-51.74,55.89-70.98,77.39l21.06,21.8c-27.34,27.2-47.83,48.59-63.18,65.36,19.86-11.08,45.39-26.09,78.16-46.43l16.36,25.52c25.36-13.77,55.68-30.67,91.66-51.24l29.15,49.24c-43.39,26.58-72.88,46.49-92.9,61.17,24.01-6.3,58.05-16.67,106.02-33.64l19.89,53.66c-38.64,14.99-70.86,27.9-97.53,38.93l9.52,28.78c-36.43,12.65-64.17,23.03-85.28,31.47,22.7-1.37,52.21-3.81,90.56-7.92l3.67,30.09c28.82-1.4,63.47-3.47,104.82-6.4l4.9,57.01c-50.62,5.12-85.83,10.26-110.24,14.8,24.37,4.74,59.53,10.16,110.11,15.69l-5.36,56.97c-41.32-3.26-75.95-5.61-104.76-7.24l-3.91,30.06c-38.31-4.41-67.81-7.1-90.5-8.65,21.05,8.62,48.7,19.22,85.03,32.16l-9.75,28.7c26.58,11.24,58.69,24.41,97.21,39.71l-20.32,53.5c-47.83-17.35-81.79-28-105.75-34.49,19.9,14.84,49.23,34.99,92.4,61.92l-29.55,49c-35.81-20.87-66-38.01-91.25-51.98l-16.56,25.39c-32.6-20.6-58.01-35.81-77.78-47.06,15.22,16.89,35.53,38.44,62.65,65.87l-21.24,21.63c19.07,21.66,42.29,47.46,70.36,77.96l-41.52,39.38c-35.57-36.39-61.54-60.71-80.31-76.96,11.49,22,29.17,52.88,56.39,95.88l-47.89,31.33c-23.21-34.34-42.97-62.88-59.66-86.42l-25.94,15.68c-20.44-32.71-36.73-57.44-49.66-76.14,6.39,21.83,15.34,50.06,27.87,86.53l-28.52,10.27c7.78,27.79,17.51,61.11,29.56,100.77l-54.49,17.47c-16.26-48.22-29.11-81.4-38.96-104.18.8,24.81,3.34,60.3,9.2,110.85l-56.74,7.45Zm-16.38-270.02c7.36.88,18.09,4.82,25.29,19.09,2.04,4.04,3.95,9.07,6.02,15.82,1.42,4.64,2.94,10.17,4.53,16.56,1.8-.71,3.57-1.23,5.25-1.6,1.68-.38,3.5-.66,5.43-.79-1.29-6.46-2.28-12.1-2.97-16.91-1.01-6.99-1.42-12.36-1.3-16.88.42-15.97,8.45-24.12,14.73-28.05-.76-5.59-1.19-10.55-1.3-14.96-.59-25.47,10.85-36.33,20.55-40.95,9.7-4.62,25.34-6.67,44.75,9.83,3.36,2.85,6.94,6.31,10.8,10.43,7.02-2.4,18.39-3.51,31.07,6.22,3.59,2.76,7.49,6.45,12.29,11.64,3.3,3.57,7.06,7.89,11.27,12.96,1.32-1.42,2.68-2.66,4.03-3.72,1.35-1.07,2.86-2.11,4.55-3.06-3.96-5.26-7.3-9.92-10.01-13.95-3.94-5.86-6.64-10.52-8.49-14.64-6.55-14.57-2.85-25.39,1.1-31.67-3.11-4.7-5.65-8.99-7.66-12.91-11.58-22.7-5.99-37.44.75-45.81,6.73-8.37,19.93-17.01,44.59-10.56,4.26,1.11,9,2.67,14.26,4.71,5.28-5.21,15.04-11.14,30.69-7.87,4.43.93,9.55,2.56,16.12,5.15,4.52,1.78,9.79,4.05,15.77,6.79.57-1.85,1.26-3.56,2.02-5.1.75-1.55,1.66-3.14,2.77-4.73-5.85-3.02-10.88-5.77-15.07-8.22-6.09-3.57-10.55-6.59-14.01-9.51-12.23-10.29-13.59-21.64-12.75-29.01-4.85-2.89-9-5.65-12.5-8.32-20.28-15.42-21.64-31.14-19.21-41.6,2.43-10.47,10.58-23.97,35.59-28.86,4.32-.85,9.27-1.49,14.89-1.95,2.5-6.98,8.73-16.57,24.24-20.41,4.39-1.09,9.72-1.83,16.76-2.35,4.84-.36,10.57-.6,17.15-.73-.29-1.92-.41-3.75-.4-5.47,0-1.72.14-3.55.44-5.47-6.58-.18-12.31-.47-17.15-.87-7.04-.57-12.36-1.37-16.74-2.49-15.48-3.97-21.63-13.6-24.07-20.6-5.62-.5-10.55-1.18-14.87-2.07-24.97-5.1-33.01-18.66-35.35-29.15-2.35-10.48-.86-26.19,19.54-41.45,3.53-2.64,7.7-5.36,12.57-8.21-.78-7.38.67-18.71,12.98-28.9,3.48-2.88,7.96-5.87,14.08-9.39,4.21-2.42,9.27-5.13,15.14-8.1-1.09-1.6-1.99-3.2-2.73-4.76-.74-1.55-1.42-3.26-1.97-5.12-6.01,2.69-11.29,4.91-15.83,6.66-6.6,2.54-11.73,4.13-16.17,5.02-15.68,3.15-25.39-2.87-30.63-8.12-5.28,1.99-10.02,3.51-14.3,4.59-24.7,6.24-37.83-2.49-44.5-10.92-6.67-8.43-12.14-23.22-.38-45.82,2.03-3.91,4.61-8.18,7.76-12.85-3.9-6.31-7.51-17.15-.85-31.67,1.89-4.11,4.62-8.74,8.61-14.57,2.74-4.01,6.12-8.64,10.12-13.87-1.68-.97-3.18-2.02-4.53-3.1-1.34-1.08-2.69-2.32-4-3.75-4.24,5.03-8.04,9.33-11.37,12.87-4.84,5.15-8.78,8.81-12.39,11.54-12.75,9.63-24.12,8.43-31.12,5.97-3.89,4.08-7.51,7.51-10.89,10.34-19.55,16.34-35.17,14.17-44.83,9.47-9.66-4.7-21.01-15.65-20.22-41.12.14-4.4.61-9.37,1.42-14.95-6.25-3.99-14.21-12.2-14.5-28.17-.08-4.52.37-9.88,1.44-16.87.73-4.8,1.77-10.44,3.11-16.89-1.93-.14-3.75-.44-5.42-.83-1.68-.39-3.43-.92-5.23-1.65-1.64,6.37-3.2,11.89-4.66,16.52-2.13,6.74-4.08,11.75-6.15,15.77-7.31,14.21-18.07,18.06-25.44,18.88-1.74,5.37-3.5,10.03-5.32,14.04-10.48,23.1-25.41,27.98-36.14,27.98-.05,0-.1,0-.14,0-10.74-.04-25.72-4.98-36.06-28.27-1.79-4.03-3.52-8.7-5.21-14.08-7.36-.88-18.09-4.82-25.29-19.09-2.04-4.04-3.95-9.07-6.02-15.82-1.43-4.64-2.94-10.17-4.53-16.56-1.8.71-3.57,1.23-5.25,1.61-1.68.38-3.5.66-5.43.79,1.29,6.46,2.28,12.1,2.97,16.91,1.01,6.99,1.42,12.36,1.3,16.88-.42,15.97-8.45,24.11-14.73,28.05.76,5.59,1.19,10.55,1.3,14.96.59,25.47-10.85,36.33-20.55,40.95-9.7,4.62-25.34,6.67-44.75-9.83-3.36-2.85-6.94-6.31-10.8-10.43-7.02,2.4-18.39,3.51-31.07-6.22-3.59-2.75-7.49-6.45-12.29-11.64-3.3-3.56-7.06-7.89-11.27-12.96-1.32,1.42-2.68,2.65-4.03,3.72-1.35,1.07-2.86,2.11-4.55,3.06,3.96,5.26,7.3,9.92,10.01,13.95,3.94,5.86,6.64,10.52,8.49,14.64,6.55,14.57,2.85,25.39-1.1,31.67,3.11,4.7,5.65,8.99,7.66,12.92,11.58,22.7,5.99,37.44-.75,45.81-6.73,8.37-19.93,17.01-44.59,10.56-4.26-1.11-9-2.67-14.26-4.71-5.28,5.21-15.05,11.14-30.69,7.87-4.43-.93-9.55-2.56-16.13-5.15-4.52-1.78-9.79-4.05-15.77-6.79-.57,1.85-1.26,3.55-2.02,5.1-.75,1.55-1.66,3.14-2.77,4.73,5.85,3.02,10.88,5.77,15.07,8.22,6.09,3.57,10.55,6.59,14.01,9.51,12.23,10.29,13.59,21.64,12.75,29.01,4.85,2.89,9,5.65,12.5,8.31,20.28,15.42,21.64,31.14,19.21,41.6-2.43,10.47-10.58,23.97-35.59,28.86-4.32.85-9.27,1.49-14.89,1.95-2.5,6.98-8.73,16.57-24.24,20.41-4.39,1.09-9.72,1.84-16.76,2.35-4.84.36-10.57.6-17.15.73.29,1.91.41,3.75.4,5.47,0,1.72-.14,3.55-.44,5.47,6.58.18,12.31.47,17.15.87,7.04.57,12.36,1.37,16.74,2.49,15.48,3.97,21.63,13.6,24.07,20.6,5.62.5,10.55,1.18,14.87,2.07,24.97,5.09,33.01,18.66,35.35,29.15,2.35,10.48.86,26.19-19.54,41.45-3.53,2.64-7.7,5.37-12.57,8.21.78,7.38-.67,18.71-12.98,28.9-3.48,2.89-7.96,5.87-14.08,9.39-4.21,2.42-9.27,5.13-15.14,8.1,1.09,1.6,1.99,3.2,2.73,4.76.74,1.55,1.42,3.26,1.97,5.12,6.01-2.69,11.29-4.91,15.83-6.66,6.59-2.54,11.73-4.13,16.17-5.02,15.67-3.14,25.39,2.87,30.63,8.12,5.28-1.99,10.02-3.51,14.29-4.59,24.7-6.24,37.83,2.49,44.5,10.92,6.67,8.43,12.14,23.22.38,45.82-2.03,3.91-4.61,8.17-7.76,12.85,3.9,6.31,7.51,17.15.84,31.68-1.89,4.11-4.62,8.74-8.61,14.57-2.74,4.01-6.12,8.64-10.13,13.87,1.68.97,3.19,2.02,4.53,3.1,1.34,1.08,2.69,2.32,4,3.75,4.24-5.03,8.04-9.33,11.37-12.87,4.84-5.15,8.78-8.81,12.39-11.54,12.75-9.63,24.12-8.43,31.12-5.97,3.89-4.08,7.51-7.51,10.89-10.34,19.55-16.34,35.17-14.17,44.83-9.47,9.66,4.7,21.01,15.65,20.22,41.12-.14,4.4-.61,9.36-1.42,14.95,6.25,3.99,14.21,12.19,14.5,28.17.08,4.52-.37,9.88-1.44,16.87-.73,4.8-1.77,10.44-3.11,16.89,1.93.14,3.75.44,5.42.83,1.68.39,3.44.92,5.23,1.65,1.64-6.37,3.2-11.89,4.66-16.53,2.13-6.74,4.08-11.75,6.15-15.77,7.31-14.21,18.07-18.06,25.44-18.88,1.74-5.37,3.5-10.03,5.32-14.04,10.52-23.21,25.52-28.01,36.28-27.98,10.74.04,25.72,4.98,36.06,28.27,1.79,4.03,3.52,8.7,5.21,14.08Z"/>
  </g>
</svg>