<?xml version="1.0" encoding="UTF-8"?>
<svg id="Layer_2" data-name="Layer 2" xmlns="http://www.w3.org/2000/svg" viewBox="0 0 1070.4 1050.48">
  <g id="Layer_1-2" data-name="Layer 1">
    <g>
      <path d="m118.4,3.37C53.01,3.37,0,56.37,0,121.76s53.01,118.4,118.4,118.4,118.4-53.01,118.4-118.4S183.79,3.37,118.4,3.37Zm0,137.94c-10.79,0-19.53-8.75-19.53-19.54s8.75-19.53,19.53-19.53,19.54,8.75,19.54,19.53-8.75,19.54-19.54,19.54Z"/>
      <path d="m118.4,274.03C53.01,274.03,0,327.04,0,392.43s53.01,118.4,118.4,118.4,118.4-53.01,118.4-118.4-53.01-118.4-118.4-118.4Zm0,179.8c-33.91,0-61.4-27.49-61.4-61.4s27.49-61.4,61.4-61.4,61.4,27.49,61.4,61.4-27.49,61.4-61.4,61.4Z"/>
      <path d="m118.4,544.7c-65.39,0-118.4,53.01-118.4,118.4s53.01,118.4,118.4,118.4,118.4-53.01,118.4-118.4-53.01-118.4-118.4-118.4Zm0,137.94c-10.79,0-19.53-8.75-19.53-19.53s8.75-19.53,19.53-19.53,19.54,8.75,19.54,19.53-8.75,19.53-19.54,19.53Z"/>
      <path d="m397.67,0c-65.39,0-118.4,53.01-118.4,118.4s53.01,118.4,118.4,118.4,118.4-53.01,118.4-118.4S463.07,0,397.67,0Zm0,137.94c-10.79,0-19.53-8.75-19.53-19.53s8.75-19.53,19.53-19.53,19.54,8.75,19.54,19.53-8.75,19.53-19.54,19.53Z"/>
      <path d="m397.67,270.67c-65.39,0-118.4,53.01-118.4,118.4s53.01,118.4,118.4,118.4,118.4-53.01,118.4-118.4-53.01-118.4-118.4-118.4Zm0,179.79c-33.91,0-61.4-27.49-61.4-61.4s27.49-61.4,61.4-61.4,61.4,27.49,61.4,61.4-27.49,61.4-61.4,61.4Z"/>
      <path d="m397.67,541.33c-65.39,0-118.4,53.01-118.4,118.4s53.01,118.4,118.4,118.4,118.4-53.01,118.4-118.4-53.01-118.4-118.4-118.4Zm0,137.94c-10.79,0-19.53-8.75-19.53-19.54s8.75-19.53,19.53-19.53,19.54,8.75,19.54,19.53-8.75,19.54-19.54,19.54Z"/>
      <path d="m672.73,272.35c-65.39,0-118.4,53.01-118.4,118.4s53.01,118.4,118.4,118.4,118.4-53.01,118.4-118.4-53.01-118.4-118.4-118.4Zm0,137.94c-10.79,0-19.54-8.75-19.54-19.53s8.75-19.53,19.54-19.53,19.53,8.75,19.53,19.53-8.75,19.53-19.53,19.53Z"/>
      <path d="m672.73,543.01c-65.39,0-118.4,53.01-118.4,118.4s53.01,118.4,118.4,118.4,118.4-53.01,118.4-118.4-53.01-118.4-118.4-118.4Zm0,179.79c-33.91,0-61.4-27.49-61.4-61.4s27.49-61.4,61.4-61.4,61.4,27.49,61.4,61.4-27.49,61.4-61.4,61.4Z"/>
      <path d="m672.73,813.68c-65.39,0-118.4,53.01-118.4,118.4s53.01,118.4,118.4,118.4,118.4-53.01,118.4-118.4-53.01-118.4-118.4-118.4Zm0,137.94c-10.79,0-19.54-8.75-19.54-19.54s8.75-19.53,19.54-19.53,19.53,8.75,19.53,19.53-8.75,19.54-19.53,19.54Z"/>
      <path d="m952,505.78c65.39,0,118.4-53.01,118.4-118.4s-53.01-118.4-118.4-118.4-118.4,53.01-118.4,118.4,53.01,118.4,118.4,118.4Zm0-137.94c10.79,0,19.53,8.75,19.53,19.53s-8.75,19.54-19.53,19.54-19.53-8.75-19.53-19.54,8.75-19.53,19.53-19.53Z"/>
      <path d="m952,539.65c-65.39,0-118.4,53.01-118.4,118.4s53.01,118.4,118.4,118.4,118.4-53.01,118.4-118.4-53.01-118.4-118.4-118.4Zm0,179.8c-33.91,0-61.4-27.49-61.4-61.4s27.49-61.4,61.4-61.4,61.4,27.49,61.4,61.4-27.49,61.4-61.4,61.4Z"/>
      <path d="m952,810.31c-65.39,0-118.4,53.01-118.4,118.4s53.01,118.4,118.4,118.4,118.4-53.01,118.4-118.4-53.01-118.4-118.4-118.4Zm0,137.94c-10.79,0-19.53-8.75-19.53-19.53s8.75-19.53,19.53-19.53,19.53,8.75,19.53,19.53-8.75,19.53-19.53,19.53Z"/>
    </g>
  </g>
</svg>