<?xml version="1.0" encoding="UTF-8"?>
<svg id="Layer_2" data-name="Layer 2" xmlns="http://www.w3.org/2000/svg" viewBox="0 0 1208.18 1208.18">
  <defs>
    <style>
      .cls-1 {
        fill: none;
      }

      .cls-2 {
        fill: #fff;
      }
    </style>
  </defs>
  <g id="Layer_1-2" data-name="Layer 1">
    <g>
      <path class="cls-1" d="m587.54,378.33c.59-.04,1.18-.07,1.76-.11,1.22-.08,2.44-.16,3.67-.22.93-.05,1.85-.07,2.78-.11.91-.03,1.82-.08,2.74-.1,1.87-.05,3.74-.07,5.6-.07s3.74.02,5.6.07c.92.02,1.82.06,2.74.1.93.03,1.85.06,2.78.11,1.23.06,2.45.14,3.67.22.59.04,1.17.07,1.76.11,1.44.1,2.88.23,4.31.36.09,0,.19.01.28.02-7.36-16.53-14.34-33.95-21.16-52.26-7.19,19.29-14.19,36.57-21.15,52.26.1,0,.2-.02.3-.03,1.43-.13,2.87-.26,4.31-.36Z"/>
      <path class="cls-1" d="m620.64,829.85c-.59.04-1.17.07-1.76.11-1.22.08-2.45.16-3.67.22-.93.05-1.86.07-2.79.11-.91.03-1.81.08-2.72.1-1.86.05-3.73.07-5.61.07s-3.74-.03-5.61-.07c-.91-.02-1.81-.06-2.72-.1-.93-.03-1.86-.06-2.79-.11-1.23-.06-2.45-.14-3.67-.22-.59-.04-1.18-.07-1.76-.11-1.44-.1-2.87-.23-4.3-.36-.1,0-.19-.02-.29-.02,7.36,16.53,14.34,33.95,21.16,52.26,7.19-19.29,14.19-36.57,21.15-52.26-.1,0-.21.02-.31.03-1.43.13-2.86.26-4.3.36Z"/>
      <path class="cls-1" d="m748.73,429.96c1.1.92,2.21,1.84,3.3,2.79.45.39.88.78,1.33,1.17.92.81,1.84,1.62,2.75,2.44.68.62,1.36,1.26,2.03,1.88.67.62,1.34,1.24,2.01,1.87,1.35,1.29,2.69,2.59,4.01,3.91,1.32,1.32,2.62,2.66,3.91,4.01.63.66,1.25,1.34,1.87,2.01.63.68,1.26,1.35,1.89,2.03.83.91,1.64,1.84,2.45,2.76.39.44.78.88,1.16,1.32.94,1.09,1.87,2.19,2.79,3.3.06.07.12.14.18.22,3.49-9.1,7.25-18.3,11.24-27.63-2.29-2.21-4.57-4.44-6.81-6.69-2.26-2.26-4.49-4.54-6.71-6.84-9.61,4.11-18.79,7.85-27.63,11.25.08.07.16.13.23.2Z"/>
      <path class="cls-1" d="m712.07,803.1c-.06.03-.11.06-.17.09-1.49.81-3,1.6-4.51,2.38-.19.1-.39.2-.58.3-1.37.7-2.74,1.38-4.13,2.05-.37.18-.74.36-1.11.53-1.21.58-2.42,1.14-3.64,1.7-.58.26-1.15.52-1.73.78-1.02.45-2.04.9-3.06,1.34-.8.34-1.6.68-2.4,1.01-.81.33-1.62.67-2.43.99-1.03.41-2.06.81-3.1,1.21-.59.23-1.19.46-1.78.68-1.25.47-2.5.92-3.76,1.37-.39.14-.78.28-1.17.41-1.45.5-2.9.99-4.36,1.47-.21.07-.42.14-.63.2-1.61.52-3.24,1.02-4.86,1.5-.06.02-.12.04-.19.06-.8.24-1.6.49-2.41.72-15.25,31.05-30.08,68.73-45.98,115.84l-15.97,47.33-15.97-47.33c-15.9-47.11-30.74-84.79-45.98-115.84-.81-.23-1.61-.48-2.41-.72-.06-.02-.13-.04-.19-.06-1.63-.48-3.25-.98-4.86-1.5-.21-.07-.42-.14-.63-.2-1.46-.47-2.91-.96-4.36-1.46-.39-.14-.78-.28-1.18-.41-1.26-.45-2.51-.9-3.76-1.37-.6-.22-1.19-.45-1.79-.68-1.03-.4-2.07-.8-3.1-1.21-.81-.33-1.62-.66-2.43-.99-.8-.33-1.6-.67-2.4-1.01-1.02-.44-2.04-.89-3.06-1.34-.58-.26-1.15-.51-1.73-.78-1.22-.55-2.43-1.12-3.64-1.7-.37-.18-.74-.35-1.11-.53-1.38-.67-2.76-1.35-4.13-2.05-.19-.1-.39-.2-.58-.3-1.51-.77-3.01-1.57-4.51-2.38-.06-.03-.11-.06-.17-.09-.74-.4-1.48-.79-2.21-1.2-12.01,4.1-24.62,8.87-37.96,14.36,55.42,66.19,99.97,152.98,148.15,287.77,48.18-134.79,92.72-221.59,148.15-287.77-13.34-5.49-25.95-10.26-37.96-14.36-.73.41-1.47.8-2.21,1.2Z"/>
      <path class="cls-1" d="m778.22,748.73c-.92,1.1-1.84,2.2-2.78,3.29-.39.45-.78.89-1.17,1.33-.81.92-1.61,1.84-2.44,2.75-.63.69-1.27,1.37-1.9,2.05-.62.66-1.23,1.33-1.85,1.99-1.29,1.35-2.59,2.69-3.91,4.01-1.32,1.32-2.66,2.63-4.01,3.91-.66.63-1.33,1.23-1.99,1.85-.68.63-1.36,1.28-2.05,1.9-.91.83-1.83,1.63-2.75,2.44-.44.39-.88.78-1.32,1.16-1.09.94-2.19,1.87-3.3,2.79-.07.06-.15.13-.22.19,9.1,3.49,18.3,7.25,27.63,11.24,2.21-2.29,4.44-4.57,6.69-6.82,2.26-2.26,4.54-4.49,6.84-6.71-4.11-9.6-7.85-18.79-11.25-27.62-.07.08-.14.16-.2.24Z"/>
      <path class="cls-1" d="m803.1,496.11c.03.06.06.11.09.17.81,1.49,1.6,2.99,2.38,4.5.1.2.2.39.3.59.7,1.37,1.38,2.74,2.05,4.12.18.37.36.74.53,1.12.58,1.21,1.14,2.42,1.7,3.63.26.58.52,1.16.78,1.74.45,1.02.9,2.03,1.34,3.05.34.8.68,1.61,1.01,2.41.33.81.67,1.61.99,2.42.41,1.03.82,2.07,1.22,3.11.23.59.45,1.18.67,1.78.47,1.25.92,2.51,1.37,3.77.14.39.28.78.41,1.16.5,1.45.99,2.91,1.47,4.37.07.21.14.41.2.62.52,1.62,1.02,3.24,1.51,4.87.02.06.04.12.05.18.24.81.49,1.61.72,2.42,31.05,15.25,68.73,30.08,115.84,45.98l47.33,15.97-47.33,15.97c-47.11,15.9-84.79,30.74-115.84,45.98-.23.81-.48,1.61-.72,2.41-.02.06-.03.12-.05.18-.49,1.63-.99,3.26-1.51,4.88-.07.21-.13.41-.2.62-.48,1.46-.96,2.92-1.47,4.37-.13.39-.27.77-.41,1.16-.45,1.26-.9,2.52-1.37,3.77-.22.59-.45,1.18-.67,1.77-.4,1.04-.8,2.08-1.22,3.11-.32.81-.66,1.62-.99,2.42-.33.81-.67,1.61-1.01,2.41-.44,1.02-.88,2.04-1.34,3.05-.26.58-.52,1.16-.78,1.74-.55,1.21-1.12,2.42-1.69,3.63-.18.37-.36.75-.54,1.12-.67,1.38-1.35,2.75-2.05,4.12-.1.2-.2.4-.3.59-.77,1.51-1.56,3.01-2.37,4.5-.03.06-.06.12-.09.17-.4.74-.79,1.48-1.2,2.21,4.1,12.01,8.87,24.62,14.36,37.96,66.19-55.42,152.98-99.97,287.77-148.15-134.79-48.18-221.58-92.73-287.77-148.15-5.49,13.34-10.26,25.95-14.36,37.96.41.73.8,1.47,1.2,2.21Z"/>
      <path class="cls-1" d="m459.46,778.23c-1.11-.92-2.21-1.85-3.3-2.79-.44-.38-.87-.77-1.31-1.15-.92-.81-1.85-1.62-2.77-2.45-.69-.62-1.36-1.26-2.03-1.89-.67-.62-1.34-1.24-2.01-1.87-1.35-1.29-2.69-2.59-4.01-3.91-1.32-1.32-2.62-2.66-3.91-4.01-.63-.66-1.25-1.34-1.87-2.01-.63-.68-1.26-1.35-1.88-2.03-.83-.91-1.63-1.83-2.44-2.75-.39-.44-.78-.88-1.17-1.33-.94-1.09-1.87-2.19-2.79-3.3-.06-.07-.12-.14-.18-.22-3.49,9.1-7.25,18.3-11.24,27.63,2.29,2.21,4.57,4.44,6.81,6.69,2.26,2.26,4.49,4.54,6.71,6.84,9.6-4.11,18.79-7.85,27.62-11.25-.08-.06-.15-.13-.23-.19Z"/>
      <path class="cls-1" d="m429.95,459.46c.92-1.11,1.85-2.21,2.8-3.31.38-.44.77-.88,1.16-1.32.81-.92,1.62-1.85,2.45-2.76.62-.68,1.24-1.34,1.87-2.02.63-.68,1.25-1.36,1.88-2.02,1.29-1.35,2.59-2.69,3.91-4.01,1.32-1.32,2.66-2.62,4.01-3.91.67-.64,1.35-1.26,2.02-1.88.67-.62,1.34-1.25,2.02-1.87.91-.83,1.84-1.64,2.76-2.45.44-.39.87-.78,1.32-1.16,1.09-.95,2.2-1.87,3.31-2.8.07-.06.14-.12.21-.18-9.1-3.49-18.3-7.25-27.63-11.24-2.21,2.29-4.44,4.57-6.69,6.81-2.26,2.26-4.54,4.49-6.84,6.71,4.11,9.6,7.85,18.79,11.25,27.62.06-.08.13-.15.19-.23Z"/>
      <path class="cls-1" d="m496.11,405.08c.06-.03.11-.06.17-.09,1.49-.81,3-1.6,4.5-2.38.2-.1.39-.2.59-.3,1.37-.7,2.74-1.38,4.12-2.05.37-.18.74-.36,1.12-.53,1.21-.58,2.42-1.14,3.63-1.7.58-.26,1.16-.52,1.74-.78,1.02-.45,2.03-.9,3.05-1.34.8-.34,1.6-.68,2.41-1.01.81-.33,1.61-.67,2.42-.99,1.03-.41,2.07-.82,3.11-1.22.59-.23,1.18-.45,1.78-.67,1.25-.47,2.51-.92,3.77-1.37.39-.14.78-.28,1.16-.41,1.45-.5,2.91-.99,4.37-1.47.21-.07.41-.14.62-.2,1.62-.52,3.24-1.02,4.87-1.51.06-.02.12-.04.18-.05.8-.24,1.61-.49,2.41-.72,15.25-31.05,30.08-68.73,45.98-115.84l15.97-47.33,15.97,47.33c15.9,47.11,30.74,84.79,45.98,115.84.81.23,1.61.48,2.42.72.06.02.12.03.18.05,1.63.48,3.26.99,4.88,1.51.21.07.41.13.62.2,1.46.48,2.92.96,4.37,1.47.39.13.77.27,1.16.41,1.26.45,2.52.9,3.77,1.37.59.22,1.18.45,1.77.67,1.04.4,2.08.8,3.11,1.22.81.32,1.61.66,2.42.99.81.33,1.61.67,2.41,1.01,1.02.44,2.03.88,3.05,1.33.58.26,1.16.52,1.74.78,1.21.55,2.42,1.12,3.63,1.69.37.18.75.36,1.12.54,1.38.67,2.75,1.35,4.12,2.05.2.1.4.2.59.3,1.51.77,3.01,1.56,4.5,2.37.06.03.12.06.17.09.74.4,1.48.79,2.21,1.2,12.01-4.1,24.62-8.87,37.96-14.36-55.42-66.19-99.97-152.98-148.15-287.77-48.18,134.79-92.72,221.58-148.15,287.77,13.34,5.49,25.95,10.26,37.96,14.36.73-.41,1.47-.8,2.21-1.2Z"/>
      <path class="cls-1" d="m378.33,620.64c-.04-.59-.07-1.17-.11-1.76-.08-1.22-.16-2.45-.22-3.67-.05-.93-.07-1.85-.11-2.78-.03-.91-.08-1.82-.1-2.74-.05-1.87-.07-3.74-.07-5.6s.02-3.74.07-5.6c.02-.92.06-1.83.1-2.74.03-.93.06-1.85.11-2.78.06-1.23.14-2.45.22-3.67.04-.59.07-1.18.11-1.76.1-1.44.23-2.88.36-4.31,0-.09.01-.19.02-.28-16.53,7.36-33.95,14.34-52.26,21.16,19.29,7.19,36.57,14.19,52.26,21.15,0-.1-.02-.2-.03-.3-.13-1.43-.26-2.87-.36-4.31Z"/>
      <path class="cls-1" d="m829.85,587.54c.04.59.07,1.18.11,1.76.08,1.22.16,2.44.22,3.67.05.93.07,1.85.11,2.78.03.91.08,1.82.1,2.74.05,1.87.07,3.74.07,5.6s-.02,3.74-.07,5.6c-.02.92-.06,1.83-.1,2.74-.03.93-.06,1.85-.11,2.78-.06,1.23-.14,2.45-.22,3.67-.04.59-.07,1.17-.11,1.76-.1,1.44-.23,2.88-.36,4.31,0,.09-.01.19-.02.28,16.53-7.36,33.95-14.34,52.26-21.16-19.29-7.19-36.57-14.19-52.26-21.15,0,.1.02.2.03.3.13,1.43.26,2.87.36,4.31Z"/>
      <path class="cls-1" d="m405.08,712.07c-.03-.06-.06-.12-.09-.17-.81-1.49-1.6-2.99-2.37-4.5-.1-.2-.2-.4-.3-.59-.7-1.37-1.38-2.74-2.05-4.12-.18-.37-.36-.75-.54-1.12-.57-1.21-1.14-2.41-1.69-3.63-.26-.58-.52-1.16-.78-1.74-.45-1.02-.9-2.03-1.34-3.05-.34-.8-.68-1.61-1.01-2.41-.33-.81-.67-1.61-.99-2.42-.41-1.03-.82-2.07-1.22-3.11-.23-.59-.45-1.18-.67-1.77-.47-1.25-.92-2.51-1.37-3.77-.14-.39-.27-.77-.41-1.16-.5-1.45-.99-2.91-1.47-4.37-.07-.21-.13-.41-.2-.62-.52-1.62-1.02-3.24-1.51-4.88-.02-.06-.03-.12-.05-.18-.24-.81-.49-1.61-.72-2.41-31.05-15.25-68.73-30.08-115.84-45.98l-47.33-15.97,47.33-15.97c47.11-15.9,84.79-30.74,115.84-45.98.23-.81.48-1.61.72-2.42.02-.06.03-.12.05-.18.48-1.63.99-3.26,1.51-4.87.07-.21.13-.41.2-.62.48-1.46.96-2.92,1.47-4.37.14-.39.27-.78.41-1.16.45-1.26.9-2.52,1.37-3.77.22-.59.45-1.18.67-1.78.4-1.04.8-2.08,1.22-3.11.32-.81.66-1.61.99-2.42.33-.81.67-1.61,1.01-2.41.44-1.02.88-2.04,1.34-3.05.26-.58.52-1.16.78-1.74.55-1.21,1.12-2.42,1.7-3.63.18-.37.35-.74.53-1.12.67-1.38,1.35-2.75,2.05-4.12.1-.2.2-.39.3-.59.77-1.51,1.57-3.01,2.38-4.5.03-.06.06-.12.09-.17.4-.74.79-1.48,1.2-2.21-4.1-12.01-8.87-24.62-14.36-37.96-66.19,55.42-152.98,99.97-287.77,148.15,134.79,48.18,221.58,92.72,287.77,148.15,5.49-13.34,10.26-25.95,14.36-37.96-.41-.73-.8-1.47-1.2-2.21Z"/>
      <path class="cls-2" d="m748.78,430c-.15-.12-.19-.16-.34-.29q.1.09,0,0c.15.12.19.16.34.29Z"/>
      <path class="cls-2" d="m778.45,459.72q-.08-.1,0,0c-.12-.14-.15-.18-.27-.32.12.14.15.18.27.32Z"/>
      <path class="cls-2" d="m778.17,748.79c.13-.15.17-.2.29-.35q-.09.11,0,0c-.13.15-.16.2-.29.35Z"/>
      <path class="cls-2" d="m748.46,778.45c.14-.12.18-.15.32-.27-.14.12-.18.15-.32.27q.1-.08,0,0Z"/>
      <path class="cls-2" d="m429.73,748.46c.12.14.15.18.27.32-.12-.14-.15-.18-.27-.32q.08.1,0,0Z"/>
      <path class="cls-2" d="m459.4,778.18c.15.12.19.16.33.28q-.1-.09,0,0c-.15-.12-.19-.16-.34-.28Z"/>
      <path d="m429.27,747.9c-1.02-1.24-2.03-2.49-3.02-3.75-.11-.14-.22-.28-.33-.42-1.07-1.37-2.13-2.74-3.17-4.13-.03-.04-.06-.07-.08-.11-6.07-8.12-11.54-16.54-16.39-25.22-4.1,12.01-8.87,24.62-14.36,37.96,9.25,7.74,18.1,15.7,26.61,23.9,3.99-9.33,7.75-18.54,11.24-27.63-.17-.2-.34-.4-.5-.6Z"/>
      <path d="m739.49,422.67s.07.06.11.08c1.39,1.04,2.76,2.09,4.13,3.17.14.11.28.22.42.33,1.26.99,2.51,2,3.75,3.02.2.16.39.33.59.49,8.83-3.4,18.02-7.14,27.63-11.25-8.2-8.51-16.14-17.35-23.88-26.59-13.34,5.49-25.95,10.26-37.96,14.36,8.68,4.84,17.1,10.31,25.22,16.39Z"/>
      <path d="m377.88,784.61c-6.31,13.88-13.29,28.53-21,44.1l-22.17,44.76,44.76-22.17c15.56-7.71,30.22-14.69,44.1-21-7.16-8.2-14.5-16.06-22.07-23.63-7.57-7.57-15.43-14.91-23.63-22.07Z"/>
      <path d="m778.41,459.67c.17.2.34.4.5.6,1.02,1.24,2.03,2.49,3.02,3.75.11.14.22.28.33.42,1.07,1.37,2.13,2.75,3.17,4.13.03.03.05.07.08.1,6.07,8.12,11.54,16.54,16.39,25.22,4.1-12.01,8.87-24.62,14.36-37.96-9.25-7.74-18.1-15.7-26.61-23.9-3.99,9.33-7.75,18.54-11.24,27.63Z"/>
      <path d="m423.57,377.88c-13.88-6.31-28.53-13.29-44.1-21l-44.76-22.17,22.17,44.76c7.71,15.56,14.69,30.22,21,44.1,8.2-7.16,16.06-14.5,23.63-22.07,7.57-7.57,14.91-15.43,22.07-23.63Z"/>
      <path d="m830.3,423.57c6.31-13.88,13.29-28.53,21-44.1l22.17-44.76-44.76,22.17c-15.56,7.71-30.22,14.69-44.1,21,7.16,8.2,14.5,16.06,22.07,23.63,7.57,7.57,15.42,14.91,23.63,22.07Z"/>
      <path d="m785.51,739.49s-.06.07-.08.11c-1.04,1.39-2.09,2.76-3.17,4.13-.11.14-.22.28-.33.42-.99,1.26-2,2.51-3.02,3.75-.16.2-.33.39-.49.59,3.4,8.83,7.14,18.02,11.25,27.62,8.51-8.2,17.35-16.14,26.59-23.88-5.49-13.34-10.26-25.95-14.36-37.96-4.84,8.68-10.31,17.1-16.38,25.22Z"/>
      <path d="m460.27,429.27c1.24-1.02,2.5-2.03,3.75-3.02.14-.11.28-.22.42-.33,1.37-1.07,2.75-2.13,4.13-3.17.03-.03.07-.05.1-.08,8.12-6.07,16.54-11.54,25.22-16.39-12.01-4.1-24.62-8.87-37.96-14.36-7.74,9.25-15.7,18.1-23.9,26.61,9.33,3.99,18.54,7.75,27.63,11.24.2-.17.4-.34.6-.5Z"/>
      <path d="m468.68,785.51s-.07-.05-.1-.08c-1.39-1.04-2.76-2.09-4.13-3.17-.14-.11-.28-.22-.42-.33-1.26-.99-2.51-2-3.75-3.02-.2-.16-.39-.33-.59-.49-8.83,3.4-18.02,7.14-27.62,11.25,8.2,8.51,16.14,17.35,23.88,26.59,13.34-5.49,25.95-10.26,37.96-14.36-8.68-4.84-17.1-10.31-25.22-16.39Z"/>
      <path d="m747.9,778.91c-1.24,1.02-2.49,2.03-3.75,3.02-.14.11-.28.22-.42.33-1.37,1.07-2.74,2.13-4.13,3.17-.04.03-.07.06-.11.08-8.12,6.07-16.54,11.54-25.22,16.39,12.01,4.1,24.62,8.87,37.96,14.36,7.74-9.25,15.7-18.1,23.9-26.61-9.33-3.99-18.54-7.75-27.63-11.24-.2.17-.4.34-.6.5Z"/>
      <path d="m422.67,468.68s.05-.07.08-.1c1.04-1.39,2.09-2.77,3.17-4.13.11-.14.22-.28.33-.42.99-1.26,2-2.51,3.02-3.75.16-.2.33-.39.49-.59-3.4-8.83-7.14-18.02-11.25-27.62-8.51,8.2-17.35,16.14-26.59,23.88,5.49,13.34,10.26,25.95,14.36,37.96,4.84-8.68,10.31-17.1,16.39-25.22Z"/>
      <path d="m784.61,830.3c13.88,6.31,28.53,13.29,44.1,21l44.76,22.17-22.17-44.76c-7.71-15.56-14.69-30.22-21-44.1-8.2,7.16-16.06,14.5-23.63,22.07-7.57,7.57-14.91,15.43-22.07,23.63Z"/>
      <path d="m748.49,429.76c-.2-.16-.39-.33-.59-.49.2.16.39.33.59.49h0Z"/>
      <path d="m460.27,429.27c-.2.17-.4.33-.6.5h0c.2-.17.4-.34.6-.5Z"/>
      <path d="m778.42,748.49c.16-.2.33-.39.49-.59-.16.2-.33.39-.49.59,0,0,0,0,0,0Z"/>
      <path d="m459.69,778.42c.2.16.39.33.59.49-.2-.16-.39-.33-.59-.49h0Z"/>
      <path d="m429.27,747.9c.17.2.34.4.5.6,0,0,0,0,0,0-.17-.2-.34-.4-.5-.6Z"/>
      <path d="m429.76,459.69c-.16.2-.33.39-.49.59.16-.2.33-.39.49-.58,0,0,0,0,0,0Z"/>
      <path d="m747.9,778.91c.2-.17.4-.34.6-.5h0c-.2.17-.4.34-.6.5Z"/>
      <path d="m778.91,460.27c-.17-.2-.34-.4-.5-.6,0,0,0,0,0,0,.17.2.34.4.5.6Z"/>
      <path d="m714.28,801.9c8.68-4.84,17.1-10.31,25.22-16.39-8.02,6-16.47,11.46-25.26,16.37.01,0,.03,0,.04.01Z"/>
      <path d="m801.9,493.9c-4.84-8.68-10.31-17.1-16.39-25.22,6,8.02,11.46,16.47,16.37,25.26,0-.01,0-.03.01-.04Z"/>
      <path d="m468.68,785.51c8.12,6.07,16.54,11.54,25.22,16.39.01,0,.03,0,.04-.01-8.8-4.91-17.24-10.37-25.26-16.37Z"/>
      <path d="m493.9,406.28c-8.68,4.84-17.11,10.31-25.22,16.39,8.02-6,16.47-11.46,25.26-16.37-.01,0-.03,0-.04-.01Z"/>
      <path d="m406.28,714.28c4.84,8.68,10.31,17.1,16.39,25.22-6-8.02-11.46-16.47-16.37-25.26,0,.01,0,.03-.01.04Z"/>
      <path d="m739.49,422.67c-8.12-6.07-16.54-11.54-25.22-16.39-.01,0-.03,0-.04.01,8.8,4.91,17.24,10.37,25.26,16.37Z"/>
      <path d="m422.67,468.68c-6.07,8.12-11.54,16.54-16.39,25.22,0,.01,0,.03.01.04,4.91-8.8,10.37-17.24,16.37-25.26Z"/>
      <path d="m785.51,739.49c6.07-8.12,11.54-16.54,16.38-25.22,0-.01,0-.03-.01-.04-4.91,8.8-10.37,17.24-16.37,25.26Z"/>
      <path d="m792.11,681.97c-10.74,6.28-20.57,12.71-29.67,19.38,1.25,4.35,2.58,8.76,4,13.23,3.43,10.78,7.4,22.03,11.98,33.91.16-.2.33-.39.49-.59,1.02-1.24,2.03-2.49,3.02-3.75.11-.14.22-.28.33-.42,1.07-1.37,2.13-2.74,3.17-4.13.03-.04.06-.07.08-.11,6-8.02,11.46-16.47,16.37-25.26-3.83-11.23-7.08-21.95-9.78-32.27Z"/>
      <path d="m762.48,506.86c9.09,6.66,18.91,13.08,29.63,19.35,2.7-10.32,5.94-21.03,9.78-32.27-4.91-8.8-10.37-17.24-16.37-25.26-.03-.03-.05-.07-.08-.1-1.04-1.39-2.09-2.77-3.17-4.13-.11-.14-.22-.28-.33-.42-.99-1.26-2-2.51-3.02-3.75-.17-.2-.34-.4-.5-.6-6.15,16.02-11.49,31.71-15.93,47.19Z"/>
      <path d="m681.97,416.07c6.28,10.74,12.71,20.57,19.38,29.67,4.35-1.25,8.76-2.58,13.23-4,10.78-3.43,22.03-7.4,33.91-11.98-.2-.16-.39-.33-.59-.49-1.24-1.02-2.49-2.03-3.75-3.02-.14-.11-.28-.22-.42-.33-1.37-1.07-2.74-2.13-4.13-3.17-.04-.03-.07-.06-.11-.08-8.02-6-16.47-11.46-25.26-16.37-11.23,3.83-21.95,7.08-32.27,9.78Z"/>
      <path d="m541.95,753.91c6.64,9.85,12.92,20.16,18.9,30.95,14.87-2.29,29.14-3.38,43.24-3.38s28.34,1.09,43.19,3.38c6.08-11,12.32-21.25,18.81-30.88-20.78-4.04-41.34-6.22-62-6.22s-40.83,2.01-62.14,6.16Z"/>
      <path d="m604.09,426.71c-14.09,0-28.34-1.09-43.19-3.38-6.08,11-12.32,21.25-18.81,30.88,20.78,4.04,41.34,6.22,61.99,6.22s40.83-2.01,62.14-6.16c-6.64-9.85-12.92-20.16-18.9-30.95-14.87,2.29-29.14,3.38-43.24,3.38Z"/>
      <path d="m454.27,541.95c-9.85,6.64-20.16,12.92-30.95,18.9,2.29,14.87,3.38,29.14,3.38,43.24s-1.09,28.34-3.38,43.19c11,6.08,21.25,12.32,30.88,18.81,4.04-20.78,6.22-41.34,6.22-62s-2.01-40.83-6.16-62.14Z"/>
      <path d="m753.91,666.23c9.85-6.64,20.16-12.92,30.95-18.9-2.29-14.87-3.38-29.14-3.38-43.24s1.09-28.34,3.38-43.19c-11-6.08-21.25-12.32-30.88-18.81-4.04,20.78-6.22,41.34-6.22,62s2.01,40.83,6.16,62.14Z"/>
      <path d="m506.86,445.7c6.66-9.09,13.08-18.91,19.35-29.63-10.32-2.7-21.03-5.94-32.27-9.78-8.8,4.91-17.24,10.37-25.26,16.37-.03.03-.07.05-.1.08-1.39,1.04-2.76,2.09-4.13,3.17-.14.11-.28.22-.42.33-1.26.99-2.51,2-3.75,3.02-.2.17-.4.34-.6.5,16.02,6.15,31.71,11.49,47.19,15.93Z"/>
      <path d="m445.7,701.32c-9.09-6.66-18.91-13.08-29.63-19.35-2.7,10.32-5.94,21.03-9.78,32.27,4.91,8.8,10.37,17.24,16.37,25.26.03.04.06.07.08.11,1.04,1.39,2.09,2.76,3.17,4.13.11.14.22.28.33.42.99,1.26,2,2.51,3.02,3.75.17.2.34.4.5.6,6.15-16.02,11.49-31.71,15.93-47.19Z"/>
      <path d="m701.32,762.48c-6.66,9.09-13.08,18.91-19.35,29.63,10.32,2.7,21.03,5.94,32.27,9.78,8.8-4.91,17.24-10.37,25.26-16.37.04-.03.07-.06.11-.08,1.39-1.04,2.76-2.09,4.13-3.17.14-.11.28-.22.42-.33,1.26-.99,2.51-2,3.75-3.02.2-.17.4-.34.6-.5-16.02-6.15-31.71-11.5-47.19-15.93Z"/>
      <path d="m416.07,526.21c10.74-6.28,20.57-12.71,29.67-19.38-1.25-4.36-2.58-8.76-4-13.23-3.43-10.78-7.4-22.03-11.98-33.91-.16.2-.33.39-.49.58-1.02,1.24-2.03,2.5-3.02,3.75-.11.14-.22.28-.33.42-1.07,1.37-2.13,2.75-3.17,4.13-.03.03-.05.07-.08.1-6,8.02-11.46,16.47-16.37,25.26,3.83,11.23,7.08,21.95,9.78,32.27Z"/>
      <path d="m526.21,792.11c-6.28-10.74-12.71-20.57-19.38-29.67-4.35,1.25-8.76,2.58-13.23,4-10.78,3.43-22.03,7.4-33.91,11.98.2.16.39.33.59.49,1.24,1.02,2.49,2.03,3.75,3.02.14.11.28.22.42.33,1.37,1.07,2.75,2.13,4.13,3.17.03.03.07.05.1.08,8.02,6,16.47,11.46,25.26,16.37,11.23-3.83,21.95-7.08,32.27-9.78Z"/>
      <path d="m666.23,454.27c11.39-2.22,23.04-5.05,35.12-8.53-6.67-9.1-13.1-18.93-19.38-29.67-12.02,3.14-23.5,5.54-34.64,7.25,5.98,10.78,12.26,21.1,18.9,30.95Z"/>
      <path d="m560.9,423.33c-11.16-1.72-22.65-4.11-34.69-7.26-6.27,10.72-12.69,20.54-19.35,29.63,11.85,3.39,23.58,6.25,35.23,8.51,6.49-9.62,12.73-19.87,18.81-30.88Z"/>
      <path d="m454.27,541.95c-2.22-11.39-5.05-23.04-8.53-35.12-9.1,6.67-18.93,13.1-29.67,19.38,3.14,12.02,5.54,23.5,7.25,34.64,10.78-5.98,21.1-12.26,30.95-18.9Z"/>
      <path d="m541.95,753.91c-11.39,2.22-23.04,5.05-35.12,8.53,6.67,9.1,13.1,18.93,19.38,29.67,12.02-3.14,23.5-5.54,34.64-7.25-5.98-10.78-12.26-21.1-18.9-30.95Z"/>
      <path d="m423.34,647.28c-1.72,11.15-4.11,22.65-7.26,34.69,10.72,6.27,20.54,12.69,29.63,19.35,3.39-11.85,6.25-23.58,8.51-35.23-9.62-6.49-19.87-12.73-30.88-18.81Z"/>
      <path d="m753.91,666.23c2.22,11.39,5.05,23.04,8.53,35.12,9.1-6.67,18.93-13.1,29.67-19.38-3.14-12.02-5.54-23.5-7.25-34.64-10.78,5.98-21.1,12.26-30.95,18.9Z"/>
      <path d="m647.28,784.84c11.16,1.72,22.65,4.11,34.69,7.26,6.27-10.72,12.69-20.54,19.35-29.63-11.85-3.39-23.58-6.25-35.23-8.51-6.49,9.62-12.73,19.87-18.81,30.88Z"/>
      <path d="m784.84,560.9c1.72-11.16,4.11-22.65,7.26-34.69-10.72-6.27-20.54-12.69-29.63-19.35-3.39,11.85-6.25,23.58-8.51,35.23,9.62,6.49,19.87,12.73,30.88,18.81Z"/>
      <path d="m683.27,629.49c-3.91,12.21-10.68,23.71-20.38,33.4-9.69,9.69-21.19,16.47-33.4,20.38,15,3.82,31.56,10.88,52.38,21.19l16.89,8.37c2.27-2.42,4.56-4.81,6.91-7.16,2.35-2.35,4.74-4.64,7.16-6.91l-8.37-16.9c-10.31-20.82-17.37-37.38-21.19-52.38Z"/>
      <path d="m629.49,524.91c12.22,3.91,23.71,10.68,33.4,20.38,9.69,9.69,16.47,21.19,20.38,33.4,3.82-15,10.88-31.56,21.19-52.38l8.37-16.89c-2.42-2.27-4.81-4.56-7.16-6.91-2.35-2.35-4.64-4.74-6.91-7.16l-16.9,8.37c-20.82,10.31-37.39,17.37-52.38,21.19Z"/>
      <path d="m578.69,683.27c-12.22-3.91-23.71-10.68-33.4-20.38-9.69-9.69-16.47-21.19-20.38-33.4-3.82,15-10.88,31.56-21.19,52.38l-8.37,16.89c2.42,2.27,4.81,4.56,7.16,6.91,2.35,2.35,4.64,4.74,6.9,7.16l16.9-8.37c20.82-10.31,37.39-17.37,52.38-21.19Z"/>
      <path d="m524.91,578.69c3.91-12.21,10.68-23.71,20.38-33.4,9.69-9.69,21.19-16.47,33.4-20.38-15-3.82-31.56-10.88-52.38-21.19l-16.89-8.37c-2.27,2.42-4.56,4.81-6.91,7.16-2.35,2.35-4.74,4.64-7.16,6.91l8.37,16.9c10.31,20.82,17.37,37.39,21.19,52.38Z"/>
      <path d="m712.83,509.42l13.81-27.87-27.87,13.8c2.27,2.42,4.56,4.81,6.91,7.16,2.34,2.34,4.74,4.64,7.16,6.91Z"/>
      <path d="m495.35,698.76l-13.81,27.87,27.87-13.8c-2.26-2.42-4.56-4.81-6.9-7.16-2.34-2.34-4.74-4.64-7.16-6.91Z"/>
      <path d="m698.76,712.83l27.87,13.8-13.8-27.87c-2.42,2.26-4.81,4.56-7.16,6.91-2.34,2.34-4.64,4.74-6.91,7.16Z"/>
      <path d="m509.42,495.35l-27.87-13.81,13.8,27.87c2.42-2.26,4.81-4.56,7.16-6.91,2.34-2.34,4.64-4.74,6.91-7.16Z"/>
      <path d="m524.91,578.69c4.51,17.66,4.51,33.14,0,50.8,3.91,12.21,10.7,23.71,20.41,33.4,9.71,9.69,21.23,16.47,33.47,20.38,17.69-4.5,33.2-4.5,50.89,0,12.24-3.91,23.75-10.68,33.47-20.38,9.71-9.69,16.5-21.19,20.41-33.4-4.51-17.66-4.51-33.14,0-50.8-3.91-12.21-10.7-23.71-20.41-33.4-9.71-9.69-21.23-16.47-33.47-20.38-17.69,4.5-33.2,4.5-50.89,0-12.24,3.91-23.75,10.68-33.47,20.38-9.71,9.69-16.5,21.19-20.41,33.4Zm26.72-27.1c38.13,13.82,67.07,13.81,105.2,0-13.84,38.06-13.84,66.95,0,105.01-19.06-6.91-35.83-10.36-52.6-10.36s-33.54,3.45-52.6,10.36c13.84-38.06,13.84-66.95,0-105.01Z"/>
      <path d="m789.65,432.04c3.42-8,7-16.08,10.75-24.28-8.4,3.84-16.48,7.41-24.28,10.75,2.22,2.3,4.46,4.58,6.71,6.84,2.25,2.25,4.52,4.48,6.81,6.69Z"/>
      <path d="m1208.18,604.09l-47.33-15.97c-163.11-55.05-259.79-102.79-330.55-164.54-5.12,11.28-9.8,22.05-14.04,32.37,66.19,55.42,152.98,99.97,287.77,148.15-134.79,48.18-221.58,92.72-287.77,148.15,4.24,10.32,8.92,21.09,14.04,32.37,70.76-61.75,167.44-109.49,330.55-164.54l47.33-15.97Z"/>
      <path d="m604.09,1104.03c-48.18-134.79-92.72-221.59-148.15-287.77-10.32,4.24-21.09,8.92-32.37,14.04,61.75,70.76,109.49,167.44,164.54,330.55l15.97,47.33,15.97-47.33c55.05-163.11,102.79-259.79,164.54-330.55-11.28-5.12-22.05-9.8-32.37-14.04-55.42,66.19-99.97,152.98-148.15,287.77Z"/>
      <path d="m418.53,776.14c-3.42,8-7,16.08-10.75,24.28,8.4-3.84,16.48-7.41,24.28-10.75-2.22-2.3-4.46-4.58-6.71-6.84-2.25-2.25-4.52-4.48-6.81-6.69Z"/>
      <path d="m776.14,789.65c8,3.42,16.08,7,24.28,10.75-3.84-8.4-7.41-16.48-10.75-24.28-2.3,2.22-4.58,4.46-6.84,6.71-2.25,2.25-4.48,4.52-6.69,6.82Z"/>
      <path d="m604.09,104.15c48.18,134.79,92.72,221.58,148.15,287.77,10.32-4.24,21.09-8.92,32.37-14.04-61.75-70.76-109.49-167.44-164.54-330.55l-15.97-47.33-15.97,47.33c-55.05,163.11-102.79,259.79-164.54,330.55,11.28,5.12,22.05,9.8,32.37,14.04,55.42-66.19,99.97-152.98,148.15-287.77Z"/>
      <path d="m432.04,418.53c-8-3.42-16.08-7-24.28-10.75,3.84,8.4,7.41,16.48,10.75,24.28,2.3-2.22,4.58-4.46,6.84-6.71,2.25-2.25,4.48-4.52,6.69-6.81Z"/>
      <path d="m104.15,604.09c134.79-48.18,221.58-92.72,287.77-148.15-4.24-10.32-8.92-21.09-14.04-32.37-70.76,61.75-167.44,109.49-330.55,164.54l-47.33,15.97,47.33,15.97c163.11,55.05,259.79,102.79,330.55,164.54,5.12-11.28,9.8-22.05,14.04-32.37-66.19-55.42-152.98-99.97-287.77-148.15Z"/>
      <path d="m432.06,789.67c-7.81,3.34-15.89,6.91-24.28,10.75,3.75-8.2,7.34-16.28,10.75-24.28-8.52-8.21-17.37-16.16-26.61-23.9-4.24,10.32-8.92,21.09-14.04,32.37,8.2,7.16,16.06,14.5,23.63,22.07,7.57,7.57,14.91,15.42,22.07,23.63,11.28-5.12,22.05-9.8,32.37-14.04-7.74-9.24-15.68-18.08-23.88-26.59Z"/>
      <path d="m776.12,418.51c7.81-3.34,15.89-6.91,24.28-10.75-3.75,8.2-7.34,16.28-10.75,24.28,8.52,8.21,17.37,16.16,26.61,23.9,4.24-10.32,8.92-21.09,14.04-32.37-8.2-7.16-16.06-14.5-23.63-22.07-7.57-7.57-14.91-15.43-22.07-23.63-11.28,5.12-22.05,9.8-32.37,14.04,7.74,9.24,15.68,18.08,23.88,26.59Z"/>
      <path d="m789.67,776.12c3.34,7.81,6.91,15.89,10.75,24.28-8.2-3.75-16.28-7.34-24.28-10.75-8.21,8.52-16.16,17.37-23.9,26.61,10.32,4.24,21.09,8.92,32.37,14.04,7.16-8.2,14.5-16.06,22.07-23.63,7.57-7.57,15.43-14.91,23.63-22.07-5.12-11.28-9.8-22.05-14.04-32.37-9.24,7.74-18.08,15.68-26.59,23.88Z"/>
      <path d="m418.51,432.06c-3.34-7.81-6.91-15.89-10.75-24.28,8.2,3.75,16.28,7.34,24.28,10.75,8.21-8.52,16.16-17.37,23.9-26.61-10.32-4.24-21.09-8.92-32.37-14.04-7.16,8.2-14.5,16.06-22.07,23.63-7.57,7.57-15.43,14.91-23.63,22.07,5.12,11.28,9.8,22.05,14.04,32.37,9.24-7.74,18.08-15.68,26.59-23.88Z"/>
    </g>
  </g>
</svg>