<?xml version="1.0" encoding="UTF-8"?>
<svg id="Layer_2" data-name="Layer 2" xmlns="http://www.w3.org/2000/svg" viewBox="0 0 1134.22 1134.22">
  <defs>
    <style>
      .cls-1 {
        fill: #231f20;
      }
    </style>
  </defs>
  <g id="Layer_1-2" data-name="Layer 1">
    <path class="cls-1" d="m1089.65,346.36c-28.56-67.53-69.45-128.18-121.53-180.26-52.08-52.08-112.72-92.96-180.26-121.53C717.93,15,643.66,0,567.11,0s-150.82,15-220.75,44.58c-67.53,28.56-128.18,69.45-180.26,121.53s-92.96,112.72-121.53,180.26C15,416.29,0,490.56,0,567.11s15,150.82,44.58,220.75c28.56,67.53,69.45,128.18,121.53,180.26,52.08,52.07,112.72,92.96,180.26,121.53,69.93,29.58,144.2,44.58,220.75,44.58s150.82-15,220.75-44.58c67.53-28.56,128.18-69.45,180.26-121.53,52.07-52.08,92.96-112.72,121.53-180.26,29.58-69.93,44.58-144.2,44.58-220.75s-15-150.82-44.58-220.75Zm-199.15,629.64c-1.11.88-1.48.58-2.21-.02l-131.15-107.77c21.09-13.37,40.97-28.9,59.21-46.78l74.65,152.42c.42.85.62,1.28-.49,2.16Zm-208.06,98.09c0,.95.01,1.42-1.38,1.73-1.38.31-1.58-.12-1.98-.98l-71.39-153.98c25.27-2.85,49.87-8.49,73.63-16.51l1.12,169.74Zm-233.38.8c-1.38-.32-1.38-.8-1.36-1.74l2.49-169.77c23.71,8.22,48.28,14.02,73.53,17.07l-72.67,153.48c-.4.85-.61,1.28-1.99.96Zm-208.62-101.5c-1.11-.89-.89-1.32-.47-2.16l75.81-151.7c18.09,18.01,37.86,33.67,58.82,47.19l-131.95,106.66c-.74.59-1.1.89-2.21,0Zm3.28-815.15c1.11-.88,1.48-.58,2.21.02l131.15,107.77c-21.09,13.37-40.97,28.9-59.21,46.78l-74.65-152.42c-.42-.85-.62-1.28.49-2.16Zm208.06-98.09c0-.95-.01-1.42,1.38-1.73,1.38-.31,1.59.12,1.98.98l71.39,153.98c-25.27,2.85-49.87,8.49-73.63,16.51l-1.12-169.74Zm233.38-.8c1.38.32,1.38.8,1.36,1.74l-2.49,169.77c-23.71-8.22-48.28-14.02-73.53-17.07l72.66-153.48c.41-.85.61-1.28,1.99-.96Zm208.62,101.5c1.11.89.89,1.31.47,2.16l-75.81,151.7c-18.09-18.01-37.86-33.67-58.82-47.19l131.95-106.66c.74-.59,1.1-.89,2.21,0Zm143.92,181.97c.61,1.28.24,1.57-.51,2.15l-134.29,103.91c-8.36-23.79-19.21-46.58-32.51-68.13l165.31-38.88c.92-.22,1.38-.33,1.99.96Zm50.72,226.39c0,1.42-.47,1.52-1.4,1.72l-165.96,35.33c1.4-12.92,2.28-25.96,2.28-39.14,0-12.2-.65-24.29-1.85-36.26l165.54,36.63c.92.2,1.39.31,1.38,1.73Zm-300.66,218.55c-58.94,58.94-137.3,91.4-220.65,91.4s-161.71-32.46-220.65-91.4c-58.94-58.94-91.4-137.3-91.4-220.65s32.46-161.71,91.4-220.65c58.94-58.94,137.3-91.4,220.65-91.4s161.71,32.46,220.65,91.4c58.94,58.94,91.4,137.3,91.4,220.65s-32.46,161.71-91.4,220.65ZM232.29,446.18l-133.45-104.99c-.74-.58-1.12-.88-.49-2.15.62-1.28,1.08-1.17,2-.94l164.96,40.2c-13.47,21.44-24.46,44.17-33.01,67.88Zm-186.48,118.84c0-1.42.47-1.52,1.39-1.72l165.96-35.33c-1.4,12.92-2.28,25.96-2.28,39.14,0,12.2.65,24.29,1.85,36.26l-165.55-36.63c-.92-.2-1.39-.31-1.38-1.73Zm32.5-183.75l127.34,100.18c.37.29.88.69.63,1.78-.25,1.09-.89,1.23-1.35,1.32l-158.42,33.72c4.34-47.05,15.01-92.9,31.81-137.01Zm125.96,265.5c.46.1,1.09.24,1.34,1.33.25,1.09-.27,1.49-.64,1.78l-128.2,99.19c-16.43-44.21-26.62-90.17-30.58-137.29l158.08,34.98Zm-107.75,144.65c-.61-1.28-.24-1.57.51-2.15l134.29-103.91c8.36,23.79,19.21,46.58,32.51,68.13l-165.31,38.88c-.92.21-1.38.32-1.99-.96Zm805.42-103.36l133.45,104.99c.74.59,1.12.88.5,2.16-.62,1.28-1.09,1.17-2,.94l-164.96-40.2c13.47-21.44,24.46-44.17,33.01-67.88Zm153.98,64.92l-127.34-100.18c-.37-.29-.88-.69-.63-1.78s.89-1.22,1.35-1.32l158.42-33.72c-4.34,47.05-15.01,92.9-31.81,137.01Zm-125.96-265.5c-.46-.1-1.09-.24-1.34-1.34-.25-1.09.27-1.49.64-1.78l128.2-99.19c16.43,44.21,26.62,90.17,30.58,137.29l-158.08-34.98Zm87.23-186.64l-157.72,37.1c-.46.11-1.09.26-1.78-.62-.69-.88-.4-1.46-.19-1.88l72.36-144.78c2.33,2.25,4.74,4.41,7.03,6.71,31.27,31.27,58.08,65.94,80.31,103.47Zm-160.09-168.93l-126.03,101.88c-.37.3-.87.7-1.88.21-1.01-.49-1-1.14-.99-1.61l2.37-161.99c13.5,4.45,26.89,9.31,40.07,14.89,30.4,12.86,59.25,28.47,86.45,46.62Zm-217.59-82.65l-69.31,146.39c-.2.43-.48,1.01-1.59,1.01h-.01c-1.12,0-1.39-.59-1.59-1.02l-68.11-146.9c22.48-2.92,45.22-4.54,68.21-4.54,24.42,0,48.57,1.77,72.4,5.06Zm-275.94,36.02c14.49-6.13,29.2-11.47,44.08-16.24l1.07,162.06c0,.47,0,1.12-1,1.6s-1.51.07-1.88-.23l-125.15-102.85c26.16-17.16,53.8-32.04,82.88-44.34Zm-166.22,112.08c3.29-3.29,6.71-6.42,10.08-9.61l71.19,145.35c.21.42.49,1.01-.21,1.88-.7.87-1.33.72-1.79.61l-157.49-38.38c21.81-36.15,47.96-69.57,78.23-99.84Zm-80.31,636.05l157.72-37.1c.46-.11,1.09-.26,1.79.62.69.88.4,1.46.19,1.88l-72.36,144.78c-2.33-2.25-4.74-4.41-7.03-6.71-31.27-31.27-58.08-65.94-80.31-103.47Zm160.09,168.93l126.03-101.88c.37-.3.87-.7,1.88-.21,1.01.49,1,1.14.99,1.61l-2.38,161.99c-13.5-4.45-26.89-9.32-40.07-14.89-30.4-12.86-59.25-28.47-86.45-46.62Zm217.58,82.65l69.31-146.4c.2-.43.48-1.01,1.59-1.01h.01c1.12,0,1.39.59,1.59,1.02l68.11,146.9c-22.48,2.92-45.22,4.54-68.21,4.54-24.42,0-48.57-1.77-72.4-5.06Zm275.94-36.02c-14.49,6.13-29.2,11.47-44.08,16.24l-1.07-162.06c0-.47,0-1.12,1-1.6,1.01-.48,1.51-.07,1.88.23l125.15,102.85c-26.16,17.16-53.8,32.04-82.88,44.34Zm166.23-112.08c-3.29,3.29-6.71,6.42-10.08,9.61l-71.18-145.35c-.21-.42-.49-1.01.21-1.88.7-.87,1.33-.72,1.79-.61l157.49,38.39c-21.81,36.15-47.96,69.57-78.23,99.84Z"/>
  </g>
</svg>