<?xml version="1.0" encoding="UTF-8"?>
<svg id="Layer_2" data-name="Layer 2" xmlns="http://www.w3.org/2000/svg" viewBox="0 0 1121.64 961.8">
  <defs>
    <style>
      .cls-1 {
        fill: #231f20;
      }
    </style>
  </defs>
  <g id="Layer_1-2" data-name="Layer 1">
    <g>
      <path class="cls-1" d="m1114,651.98c-7.52-21.73-20.7-47.18-38.13-73.61l-206.88-313.75-86.66,57.14,153.53,232.85L301.73,94.79l48.52-66.92L82.61,0l109.66,245.74,48.52-66.92,768.96,557.58c20,14.5,37.29,19.33,51.43,19.33,21.58,0,35.85-11.23,41.27-16.42,9.44-9.03,20.41-25.38,19.07-52.01-.54-10.68-3-22.23-7.53-35.32Z"/>
      <path class="cls-1" d="m820.79,785.25L108.21,283.93c-48.09-33.83-80.33-9.1-89.07-.71-20.81,19.97-24.68,49.96-11.5,89.14,7.74,23.01,21.19,49.73,38.92,77.26l204.34,317.37,87.28-56.19-162.62-252.57,585.51,411.92-47.56,67.6,268.01,24.05-113.16-244.15-47.56,67.6Z"/>
    </g>
  </g>
</svg>