<?xml version="1.0" encoding="UTF-8"?>
<svg id="Layer_2" data-name="Layer 2" xmlns="http://www.w3.org/2000/svg" viewBox="0 0 1176.92 1059.75">
  <defs>
    <style>
      .cls-1 {
        fill: #231f20;
      }
    </style>
  </defs>
  <g id="Layer_1-2" data-name="Layer 1">
    <g>
      <path class="cls-1" d="m1024.67,1059.75H370.36v-122.36h654.31c2.96,0,5.8-.37,8.42-1.11,2.4-.67,4.7-1.66,6.82-2.94,2.11-1.27,4.08-2.83,5.85-4.65,1.79-1.84,3.37-3.92,4.67-6.18,1.3-2.26,2.32-4.66,3.02-7.13.69-2.44,1.06-4.92,1.1-7.38.02-1.26-.04-2.51-.19-3.75-7.8-15.4-33.69-61.41-46.5-83.62l105.97-61.17c53.95,93.45,56.62,103.9,58.39,110.81,3.34,13.03,4.91,26.44,4.67,39.88-.23,12.95-2.13,25.89-5.67,38.43-3.45,12.25-8.44,24.07-14.83,35.13-6.38,11.05-14.13,21.28-23.01,30.4-9.1,9.34-19.35,17.45-30.45,24.13-11.52,6.92-23.93,12.27-36.87,15.89-13.35,3.74-27.29,5.64-41.4,5.64Z"/>
      <path class="cls-1" d="m941.39,703.87L614.23,137.22c-1.48-2.56-3.22-4.83-5.18-6.75-1.78-1.74-3.78-3.23-5.95-4.43-2.16-1.2-4.5-2.12-6.95-2.74-4.99-1.27-10.39-1.27-15.38,0-2.46.63-4.8,1.55-6.96,2.74-1.38.77-2.7,1.65-3.93,2.64-10.89,14.9-49.04,72.6-54.01,80.83l.25-.42-105.97-61.18c4.38-7.59,24.97-38.65,32.54-49.98,31.17-46.68,35.08-50.5,39.61-54.93,9.61-9.4,20.45-17.47,32.2-23.98,11.34-6.28,23.49-11.1,36.12-14.31,24.68-6.28,51-6.28,75.68,0,12.63,3.21,24.78,8.02,36.11,14.31,11.75,6.51,22.59,14.58,32.2,23.99,9.92,9.7,18.53,20.82,25.58,33.03l327.16,566.66-105.97,61.18ZM571.57,126.45s0,0,0,0c0,0,0,0,0,0Z"/>
      <path class="cls-1" d="m230.92,1059.75c-4.99,0-29.24-.3-53.6-.88-51.7-1.24-58.35-2.48-66.48-4.76-12.93-3.62-25.34-8.97-36.86-15.89-11.11-6.67-21.35-14.79-30.45-24.12-8.89-9.13-16.64-19.36-23.02-30.41-6.38-11.06-11.37-22.88-14.83-35.14-3.53-12.54-5.44-25.47-5.67-38.43-.24-13.43,1.34-26.85,4.67-39.87,3.45-13.46,8.77-26.47,15.82-38.68L347.67,264.92l105.97,61.18L126.48,892.75c-1.48,2.56-2.57,5.21-3.25,7.86-.62,2.4-.91,4.89-.86,7.37.04,2.46.41,4.95,1.1,7.39.7,2.48,1.71,4.88,3.02,7.14,1.3,2.26,2.88,4.34,4.68,6.19,1.76,1.81,3.73,3.37,5.84,4.64,1.14.69,2.33,1.29,3.56,1.8,18.44,1.21,78.26,2.25,90.36,2.25v122.36Z"/>
    </g>
  </g>
</svg>