<?xml version="1.0" encoding="UTF-8"?>
<svg id="Layer_2" data-name="Layer 2" xmlns="http://www.w3.org/2000/svg" viewBox="0 0 1129.53 1129.53">
  <defs>
    <style>
      .cls-1 {
        fill: #231f20;
      }
    </style>
  </defs>
  <g id="Layer_1-2" data-name="Layer 1">
    <g>
      <g>
        <path class="cls-1" d="m564.77,16.05c0,580.99-111.81,387.33,559.06,968.32-670.87-580.99-447.25-580.99-1118.12,0C676.58,403.38,564.77,597.04,564.77,16.05Z"/>
        <path class="cls-1" d="m1118.12,990.96c-98.2-85.04-180.76-154.44-247.09-210.19-104.68-87.98-175.98-147.92-224.31-197.97-29.67-16.96-55.97-25.45-81.95-25.45s-52.29,8.49-81.95,25.45c-48.33,50.05-119.63,109.98-224.31,197.97-66.34,55.76-148.9,125.15-247.09,210.2l-11.41-13.18c98.15-85,178.25-158.58,242.62-217.7,101.6-93.33,170.99-157.07,229.28-191.06,25.32-26.39,43.91-49.85,57.37-73.17,13.12-22.73,21.47-45.63,26.58-71.37-9.36-50.29-7.25-110.43-4.17-198.46,1.95-55.71,4.38-125.04,4.38-209.97h17.43c0,84.93,2.43,154.26,4.38,209.97,3.08,88.03,5.19,148.17-4.17,198.46,5.11,25.73,13.46,48.64,26.58,71.37,13.46,23.32,32.05,46.78,57.37,73.17,58.29,33.99,127.68,97.73,229.28,191.06,64.36,59.12,144.47,132.7,242.62,217.7l-11.41,13.18Zm-553.35-451.05c17.21,0,34.31,3.2,52.05,9.61-12.68-15.39-23.1-30.15-31.65-44.95-8.59-14.89-15.27-29.72-20.41-45.16-5.14,15.44-11.81,30.27-20.41,45.16-8.55,14.8-18.97,29.56-31.65,44.95,17.75-6.4,34.85-9.61,52.05-9.61Z"/>
      </g>
      <g>
        <path class="cls-1" d="m564.77,1113.48c0-580.99,111.81-387.33-559.06-968.32,670.87,580.99,447.25,580.99,1118.12,0-670.87,580.99-559.06,387.33-559.06,968.32Z"/>
        <path class="cls-1" d="m573.48,1113.48h-17.43c0-84.93-2.43-154.26-4.38-209.97-3.08-88.03-5.19-148.17,4.17-198.46-5.11-25.73-13.46-48.64-26.58-71.37-13.46-23.32-32.05-46.78-57.37-73.17-58.29-33.99-127.68-97.73-229.28-191.06C178.25,310.33,98.15,236.75,0,151.75l11.41-13.17c98.2,85.04,180.76,154.44,247.09,210.19,104.68,87.98,175.98,147.92,224.31,197.97,29.67,16.96,55.97,25.45,81.95,25.45s52.28-8.49,81.95-25.45c48.33-50.05,119.63-109.98,224.31-197.97,66.34-55.76,148.9-125.15,247.09-210.19l11.41,13.17c-98.15,85-178.25,158.58-242.62,217.7-101.6,93.33-170.99,157.07-229.28,191.06-25.32,26.39-43.91,49.85-57.37,73.17-13.12,22.73-21.47,45.64-26.58,71.37,9.36,50.29,7.25,110.44,4.17,198.47-1.95,55.71-4.38,125.04-4.38,209.97Zm-60.77-533.47c12.68,15.39,23.1,30.15,31.65,44.95,8.59,14.89,15.27,29.72,20.41,45.16,5.14-15.44,11.81-30.27,20.41-45.16,8.55-14.8,18.97-29.56,31.65-44.95-35.49,12.81-68.61,12.81-104.11,0Z"/>
      </g>
      <g>
        <path class="cls-1" d="m145.16,5.71c580.99,670.87,387.33,559.06,968.32,559.06-580.99,0-387.33-111.81-968.32,559.06,580.99-670.87,580.99-447.25,0-1118.12Z"/>
        <path class="cls-1" d="m151.75,1129.53l-13.17-11.41c85.04-98.2,154.44-180.76,210.19-247.09,87.98-104.68,147.92-175.98,197.97-224.31,16.96-29.67,25.45-55.97,25.45-81.95s-8.49-52.28-25.45-81.95c-50.05-48.33-109.98-119.63-197.97-224.31-55.76-66.34-125.15-148.9-210.19-247.09l13.17-11.41c85,98.15,158.58,178.25,217.7,242.62,93.33,101.6,157.07,170.99,191.06,229.28,26.39,25.32,49.85,43.91,73.17,57.37,22.73,13.12,45.64,21.47,71.37,26.58,50.29-9.36,110.44-7.25,198.46-4.17,55.71,1.95,125.04,4.38,209.97,4.38v17.43c-84.93,0-154.26,2.43-209.97,4.38-88.03,3.08-148.18,5.19-198.47-4.17-25.73,5.11-48.64,13.45-71.36,26.58-23.32,13.46-46.78,32.05-73.17,57.37-33.99,58.29-97.73,127.68-191.06,229.28-59.12,64.36-132.7,144.47-217.7,242.62Zm428.27-616.82c6.4,17.75,9.61,34.85,9.61,52.05s-3.2,34.31-9.61,52.05c15.39-12.68,30.15-23.1,44.95-31.65,14.89-8.59,29.72-15.27,45.16-20.41-15.44-5.14-30.27-11.81-45.16-20.41-14.8-8.55-29.56-18.97-44.95-31.65Z"/>
      </g>
      <g>
        <path class="cls-1" d="m984.37,1123.83C403.38,452.95,597.04,564.77,16.05,564.77c580.99,0,387.33,111.81,968.32-559.06-580.99,670.87-580.99,447.25,0,1118.12Z"/>
        <path class="cls-1" d="m977.78,1129.53c-85-98.15-158.58-178.25-217.7-242.62-93.33-101.6-157.07-170.99-191.06-229.28-26.39-25.32-49.85-43.91-73.17-57.37-22.73-13.12-45.64-21.47-71.37-26.58-50.29,9.36-110.44,7.25-198.46,4.17-55.71-1.95-125.04-4.38-209.97-4.38v-17.43c84.93,0,154.26-2.43,209.97-4.38,88.02-3.08,148.18-5.19,198.47,4.17,25.73-5.11,48.64-13.46,71.36-26.58,23.32-13.46,46.78-32.05,73.17-57.37,33.99-58.29,97.73-127.68,191.06-229.28,59.12-64.36,132.7-144.47,217.7-242.62l13.18,11.41c-85.04,98.2-154.44,180.76-210.19,247.09-87.99,104.68-147.92,175.98-197.97,224.31-16.96,29.67-25.45,55.97-25.45,81.95s8.49,52.29,25.45,81.95c50.05,48.33,109.98,119.63,197.97,224.31,55.76,66.34,125.15,148.9,210.19,247.09l-13.18,11.41ZM459.41,564.76c15.44,5.14,30.27,11.81,45.16,20.41,14.8,8.55,29.56,18.97,44.95,31.65-6.4-17.75-9.61-34.85-9.61-52.05s3.2-34.31,9.61-52.05c-15.39,12.68-30.15,23.1-44.95,31.65-14.89,8.59-29.72,15.27-45.16,20.41Z"/>
      </g>
      <g>
        <circle class="cls-1" cx="564.77" cy="564.77" r="29.53"/>
        <path class="cls-1" d="m564.77,603c-21.09,0-38.24-17.15-38.24-38.24s17.15-38.24,38.24-38.24,38.24,17.15,38.24,38.24-17.15,38.24-38.24,38.24Zm0-59.05c-11.48,0-20.81,9.34-20.81,20.81s9.34,20.81,20.81,20.81,20.81-9.34,20.81-20.81-9.34-20.81-20.81-20.81Z"/>
      </g>
    </g>
  </g>
</svg>