<?xml version="1.0" encoding="UTF-8"?>
<svg id="Layer_2" data-name="Layer 2" xmlns="http://www.w3.org/2000/svg" viewBox="0 0 1112.51 1112.51">
  <defs>
    <style>
      .cls-1 {
        fill: #231f20;
      }
    </style>
  </defs>
  <g id="Layer_1-2" data-name="Layer 1">
    <g>
      <path class="cls-1" d="m556.26,1112.51c-75.08,0-147.93-14.71-216.53-43.72-66.24-28.02-125.73-68.12-176.81-119.2-51.08-51.08-91.18-110.56-119.2-176.81C14.71,704.19,0,631.34,0,556.26s14.71-147.93,43.72-216.53c28.02-66.24,68.12-125.73,119.2-176.81,51.08-51.08,110.56-91.18,176.81-119.2C408.32,14.71,481.17,0,556.26,0s147.93,14.71,216.53,43.72c66.24,28.02,125.73,68.12,176.81,119.2,51.08,51.08,91.18,110.56,119.2,176.81,29.01,68.59,43.72,141.44,43.72,216.53s-14.71,147.93-43.72,216.53c-28.02,66.24-68.12,125.73-119.2,176.81-51.08,51.08-110.56,91.18-176.81,119.2-68.59,29.01-141.44,43.72-216.53,43.72Zm0-1064.56c-68.63,0-135.2,13.44-197.85,39.94-60.53,25.6-114.89,62.25-161.58,108.94-46.69,46.69-83.34,101.05-108.94,161.58-26.5,62.65-39.94,129.22-39.94,197.85s13.44,135.2,39.94,197.85c25.6,60.53,62.25,114.89,108.94,161.58,46.69,46.69,101.05,83.34,161.58,108.94,62.65,26.5,129.22,39.94,197.85,39.94s135.2-13.44,197.85-39.94c60.53-25.6,114.89-62.25,161.58-108.94,46.69-46.69,83.34-101.05,108.94-161.58,26.5-62.65,39.94-129.22,39.94-197.85s-13.44-135.2-39.94-197.85c-25.6-60.53-62.25-114.89-108.94-161.58-46.69-46.69-101.05-83.34-161.58-108.94-62.65-26.5-129.22-39.94-197.85-39.94Z"/>
      <g>
        <path class="cls-1" d="m562.51,562.43c667.19,658.52,119.18,450.01-5.09-1.94,124.27,451.95-240.09,911.33-3.38,4.27-236.7,907.06-330.13,328.22-.87-5.38-329.26,333.59-909.28,247.74-5.39-.8-903.89,248.54-449.31-121.79,4.22-3.44-453.53-118.35-669.19-663.59-2-5.06-667.19-658.52-119.18-450.01,5.09,1.94-124.27-451.95,240.09-911.33,3.38-4.27,236.7-907.06,330.13-328.22.87,5.38,329.26-333.59,909.28-247.74,5.39.8,903.89-248.54,449.31,121.79-4.22,3.44,453.53,118.35,669.19,663.59,2,5.06Z"/>
        <path class="cls-1" d="m493.45,1098.3c-6.15,0-10.74-2.47-13.08-4.09-10.13-7-16.3-22.53-18.85-47.47-2.44-23.93-1.62-56.49,2.45-96.78,2.53-25.08,6.25-52.68,11.12-82.7-10.42,28.58-20.66,54.47-30.71,77.59-16.13,37.14-31.32,65.95-45.15,85.64-14.41,20.52-27.38,31.05-39.64,32.21-5.02.46-17.48-.16-25.05-16.12-15.19-32.02-4.03-113.21,27.78-202.03,24.14-67.41,57.74-132.59,98.08-191.18-58.05,41.1-122.79,75.55-189.88,100.57-88.39,32.96-169.43,45.18-201.65,30.42-16.06-7.36-16.85-19.82-16.45-24.84.99-12.28,11.36-25.38,31.69-40.06,19.5-14.08,48.11-29.65,85.04-46.26,22.99-10.35,48.74-20.93,77.18-31.72-29.96,5.27-57.5,9.34-82.55,12.2-40.23,4.6-72.78,5.85-96.74,3.72-24.98-2.22-40.58-8.18-47.71-18.22-2.91-4.1-8.61-15.22,1.43-29.76,20.14-29.16,96.03-60.09,188.85-76.96,70.44-12.8,143.7-16.3,214.6-10.65-64.62-29.72-126.82-68.56-182.03-114.15-72.74-60.07-123.85-124.14-127.17-159.43-1.65-17.59,8.74-24.51,13.29-26.66,11.13-5.28,27.66-2.85,50.53,7.41,21.95,9.85,49.73,26.84,82.59,50.51,20.45,14.74,42.5,31.75,66.06,50.98-19.54-23.31-36.84-45.13-51.84-65.39-24.1-32.54-41.45-60.1-51.59-81.92-10.57-22.74-13.21-39.24-8.07-50.43,2.1-4.57,8.87-15.07,26.49-13.64,35.33,2.86,100.06,53.12,161.08,125.07,46.31,54.61,85.96,116.3,116.52,180.53-6.57-70.82-4.04-144.12,7.84-214.72,15.65-93.03,45.59-169.32,74.49-189.84,14.41-10.23,25.6-4.68,29.73-1.82,10.13,7,16.3,22.53,18.85,47.47,2.44,23.93,1.62,56.49-2.45,96.78-2.53,25.08-6.25,52.68-11.12,82.7,10.42-28.58,20.66-54.47,30.71-77.59,16.13-37.14,31.32-65.95,45.15-85.64,14.41-20.52,27.38-31.05,39.64-32.21,5.02-.47,17.48.16,25.05,16.12,15.19,32.02,4.03,113.21-27.78,202.03-24.14,67.41-57.74,132.59-98.08,191.18,58.05-41.1,122.79-75.55,189.88-100.57,88.39-32.96,169.43-45.18,201.65-30.42,16.06,7.36,16.85,19.82,16.45,24.84-.99,12.27-11.36,25.38-31.69,40.05-19.5,14.08-48.11,29.65-85.04,46.26-22.99,10.35-48.74,20.93-77.18,31.72,29.96-5.27,57.5-9.34,82.55-12.2,40.23-4.6,72.77-5.85,96.74-3.72,24.98,2.22,40.58,8.18,47.71,18.22,2.91,4.1,8.61,15.22-1.43,29.76-20.14,29.16-96.03,60.09-188.85,76.96-70.44,12.8-143.71,16.29-214.6,10.65,64.62,29.72,126.83,68.57,182.03,114.15,72.74,60.07,123.85,124.14,127.17,159.43,1.66,17.59-8.74,24.51-13.29,26.66-11.13,5.28-27.66,2.85-50.53-7.41-21.95-9.85-49.73-26.85-82.58-50.51-20.45-14.74-42.49-31.75-66.06-50.98,19.54,23.31,36.84,45.13,51.84,65.39,24.1,32.54,41.45,60.1,51.59,81.92,10.57,22.74,13.21,39.24,8.07,50.43-2.1,4.58-8.87,15.07-26.49,13.64-35.33-2.86-100.06-53.12-161.08-125.07-46.31-54.61-85.96-116.3-116.52-180.53,6.57,70.82,4.04,144.12-7.84,214.72-15.65,93.03-45.59,169.32-74.49,189.84-6.26,4.45-11.92,5.91-16.65,5.91Zm62.52-492.91c-36.4,143.88-59.94,264-68.35,349.07-9.77,98.86,3.89,117.47,6.1,119.77,1.38-.49,6.29-2.95,14.24-14.58,18.6-27.19,44.78-93.37,57.35-190.41,8.33-64.36,12.65-159.4-9.33-263.84Zm-23.47-6.13c-70.21,80.38-112.89,165.41-137.07,225.64-36.46,90.81-45.95,161.35-43.01,194.16,1.26,14.03,4.34,18.57,5.3,19.68,3.04-.92,24.06-10.48,63.84-101.51,34.23-78.34,72.38-194.64,110.93-337.96Zm49.13-.93c34.51,101,86.81,180.47,126.88,231.52,60.42,76.98,116.75,120.47,146.64,134.32,12.78,5.92,18.25,5.53,19.69,5.25.73-3.1,2.95-26.08-55.99-106.05-50.72-68.81-132.37-160.01-237.21-265.05Zm17.04-17.27c106.41,103.46,198.66,183.91,268.13,233.73,80.73,57.9,103.68,55.37,106.77,54.6.26-1.44.59-6.92-5.51-19.62-14.24-29.7-58.47-85.47-136.23-144.87-51.57-39.4-131.72-90.65-233.16-123.84ZM76.41,761.08c1.11.95,5.7,3.97,19.74,5.04,32.84,2.52,103.25-7.9,193.58-45.54,59.9-24.96,144.37-68.75,223.83-140-142.81,40.42-258.6,80.09-336.48,115.34-90.5,40.96-99.79,62.11-100.67,65.17Zm-37.27-135.53c2.32,2.18,21.11,15.6,119.83,4.54,84.96-9.52,204.75-34.63,348.15-72.91-104.72-20.62-199.7-15.06-263.94-5.88-96.87,13.83-162.71,40.88-189.65,59.83-11.52,8.1-13.92,13.04-14.39,14.43Zm566.24-70.23c104.72,20.62,199.7,15.06,263.94,5.88,96.87-13.83,162.71-40.88,189.65-59.83,11.52-8.1,13.92-13.04,14.39-14.43-2.32-2.18-21.11-15.6-119.83-4.53-84.96,9.52-204.75,34.63-348.14,72.91Zm-54.02,2.27l3.61,3.56,4.89-1.35,1.28-4.91-3.61-3.56-4.89,1.35-1.28,4.91Zm454.93-211.57c-35.98,0-101.54,11.74-183.51,45.9-59.9,24.96-144.37,68.75-223.83,140.01,142.8-40.42,258.6-80.09,336.48-115.34,90.5-40.97,99.79-62.11,100.67-65.17-1.11-.95-5.7-3.97-19.74-5.04-3.04-.23-6.4-.35-10.07-.35ZM138.95,243.11c-.26,1.44-.59,6.92,5.5,19.62,14.24,29.7,58.47,85.47,136.23,144.87,51.57,39.4,131.72,90.65,233.16,123.84-106.41-103.46-198.66-183.91-268.13-233.73-80.72-57.89-103.68-55.36-106.77-54.6Zm98.74-100.04c-.73,3.1-2.95,26.08,55.99,106.05,50.72,68.81,132.37,160,237.21,265.05-34.51-101-86.81-180.47-126.87-231.52-60.42-76.98-116.75-120.47-146.64-134.33-12.78-5.92-18.26-5.53-19.69-5.25Zm517.11-69.3c-3.04.92-24.06,10.48-63.84,101.51-34.23,78.34-72.38,194.63-110.93,337.96,70.21-80.38,112.89-165.41,137.07-225.64,36.46-90.81,45.95-161.35,43.01-194.16-1.26-14.03-4.34-18.57-5.3-19.68Zm-136-35.49c-1.38.49-6.29,2.95-14.24,14.58-18.6,27.19-44.78,93.37-57.35,190.41-8.33,64.36-12.65,159.4,9.33,263.84,36.4-143.88,59.94-264,68.35-349.07,9.77-98.86-3.89-117.47-6.1-119.76Z"/>
      </g>
    </g>
  </g>
</svg>