<?xml version="1.0" encoding="UTF-8"?>
<svg id="Layer_2" data-name="Layer 2" xmlns="http://www.w3.org/2000/svg" viewBox="0 0 766.55 1218.71">
  <g id="Layer_1-2" data-name="Layer 1">
    <path d="m754.87,641.96l-143.24-73.57c-6.24-3.2-8.06-11.27-3.8-16.84l89.6-117.29c5.56-7.27,5.9-17.28.86-24.91-5.04-7.63-14.38-11.24-23.24-8.99l-176.65,44.93c-6.38,1.62-12.79-2.56-13.87-9.06L414.99,17.98C413.28,7.66,404.45.1,393.99,0c-.05,0-.09,0-.13,0-10.4-.04-19.31,7.33-21.21,17.55l-79.32,423.59c-1.17,6.23-7.24,10.27-13.44,8.93l-175.6-38c-8.66-1.88-17.74,1.86-22.57,9.29-4.83,7.43-4.57,17.24.66,24.4l83.03,113.69c4.02,5.51,2.26,13.3-3.75,16.54L11.31,657.03c-8.39,4.52-12.76,13.83-10.88,23.17,1.88,9.34,9.51,16.23,19,17.16l177.96,17.31c6.85.67,11.51,7.28,9.82,13.96l-114.92,454.68c-2.63,10.4,2.64,20.96,12.54,25.1,9.89,4.15,21.12.5,26.69-8.68l238.71-393.38c4.47-7.37,15.24-7.18,19.44.35l224.03,400.97c3.9,6.98,11.06,11.02,18.62,11.04,2.54,0,5.14-.44,7.66-1.38,10.02-3.73,15.72-14.04,13.55-24.51l-97.68-471.89c-1.32-6.38,3.03-12.54,9.48-13.43l182.64-25.12h0c9.34-1.29,16.68-8.39,18.26-17.68,1.58-9.29-2.98-18.43-11.37-22.74Zm-227.96,29.22c-5.88.8-11.22,4.04-14.65,8.89-3.43,4.85-4.71,10.96-3.5,16.78l63.6,307.23c2.61,12.6-14.56,19-20.84,7.77l-151.8-271.7c-3.72-6.65-10.76-10.86-18.38-11-.1,0-.2,0-.3,0-7.5-.03-14.56,3.91-18.46,10.35l-159.19,262.34c-6.7,11.04-23.69,3.93-20.53-8.59l73.16-289.44c1.54-6.08.35-12.51-3.25-17.64-3.61-5.13-9.26-8.42-15.51-9.04l-112.6-10.95c-11.06-1.08-14.03-15.83-4.25-21.1l92.08-49.63c5.47-2.95,9.4-8.11,10.77-14.17,1.38-6.06.06-12.41-3.6-17.44l-55.94-76.6c-6.1-8.35,1.36-19.82,11.47-17.63l127.14,27.51c5.64,1.22,11.63.09,16.44-3.1,4.81-3.19,8.18-8.27,9.24-13.96l52.92-282.61c2.32-12.37,20.09-12.19,22.16.23l46.31,278.59c.99,5.92,4.44,11.19,9.46,14.47,5.03,3.28,11.24,4.31,17.05,2.83l122.99-31.28c10.34-2.63,18.19,9.26,11.71,17.73l-58.02,75.95c-3.87,5.07-5.29,11.56-3.89,17.78,1.41,6.23,5.47,11.47,11.15,14.4l88.85,45.64c9.78,5.02,7.29,19.66-3.61,21.15l-118.17,16.25Z"/>
  </g>
</svg>