<?xml version="1.0" encoding="UTF-8"?>
<svg id="Layer_2" data-name="Layer 2" xmlns="http://www.w3.org/2000/svg" viewBox="0 0 998.04 1225.4">
  <defs>
    <style>
      .cls-1 {
        fill: none;
      }
    </style>
  </defs>
  <g id="Layer_1-2" data-name="Layer 1">
    <g>
      <polygon class="cls-1" points="600.25 356.27 657.59 281.29 555.82 307.12 508.6 210.69 456.05 308.62 348.9 285.37 405.4 362.81 323.62 406.84 424.75 416.73 372.77 622 500.77 411.27 624.41 632.8 579.02 413.03 682.93 398.78 600.25 356.27"/>
      <path d="m998.04,452.67l-251.53-129.34,155.46-203.31-294.13,74.66L512.51,0l-106.93,199.25-283.42-61.47,140.54,192.63L0,471.85l304.05,29.72-181.89,718.25,375.1-617.49,347.75,623.07-150.97-731.05,304.02-41.68Zm-373.63,180.13l-123.64-221.53-128.01,210.73,51.99-205.28-101.13-9.88,81.77-44.03-56.5-77.44,107.15,23.24,52.55-97.92,47.22,96.43,101.77-25.83-57.33,74.98,82.68,42.51-103.9,14.24,45.39,219.77Z"/>
    </g>
  </g>
</svg>