<?xml version="1.0" encoding="UTF-8"?>
<svg id="Layer_2" data-name="Layer 2" xmlns="http://www.w3.org/2000/svg" viewBox="0 0 1126.27 1128.28">
  <defs>
    <style>
      .cls-1 {
        fill: #231f20;
      }
    </style>
  </defs>
  <g id="Layer_1-2" data-name="Layer 1">
    <path class="cls-1" d="m1121.31,512.14c-3.39-17.89-8.54-35.5-15.3-52.36-6.89-17.18-15.53-33.75-25.68-49.25-10.39-15.87-22.47-30.78-35.92-44.33-13.45-13.55-28.27-25.75-44.06-36.26-15.42-10.26-31.92-19.03-49.05-26.05-16.8-6.89-34.38-12.17-52.24-15.7-17.31-3.42-35.03-5.17-52.7-5.31,0-.16.02-.31.02-.47.02-18.03-1.69-36.13-5.09-53.82-3.44-17.87-8.63-35.47-15.44-52.32-6.94-17.16-15.62-33.71-25.81-49.18-10.43-15.84-22.55-30.72-36.04-44.24-13.49-13.52-28.34-25.68-44.15-36.14-15.44-10.22-31.97-18.94-49.12-25.92-16.83-6.85-34.42-12.08-52.28-15.56-17.67-3.44-35.78-5.2-53.81-5.22h-.35c-17.91,0-35.9,1.72-53.46,5.09-17.88,3.44-35.48,8.63-52.32,15.44-17.16,6.94-33.71,15.62-49.18,25.81-15.84,10.43-30.72,22.56-44.24,36.04-13.52,13.49-25.68,28.34-36.15,44.15-10.22,15.44-18.94,31.97-25.92,49.12-6.84,16.82-12.08,34.41-15.56,52.28-3.42,17.56-5.16,35.53-5.2,53.45-.24,0-.47-.03-.71-.03-18.03.03-36.13,1.8-53.8,5.25-17.86,3.49-35.45,8.74-52.27,15.6-17.15,6.99-33.66,15.72-49.11,25.95-15.81,10.48-30.65,22.65-44.13,36.17-13.48,13.53-25.6,28.42-36.01,44.26-10.18,15.47-18.85,32.03-25.77,49.2-6.8,16.85-11.98,34.45-15.41,52.33C1.67,527.79-.03,545.89,0,563.92c0,.12,0,.23,0,.35.06,17.91,1.82,35.89,5.25,53.45,3.49,17.87,8.74,35.45,15.6,52.27,6.99,17.14,15.72,33.66,25.95,49.1,10.48,15.81,22.65,30.65,36.17,44.13,13.53,13.48,28.42,25.6,44.26,36.01,15.47,10.18,32.03,18.85,49.2,25.78,16.84,6.79,34.45,11.98,52.33,15.41,17.63,3.38,35.68,5.07,53.65,5.05,0,1.14-.14,2.29-.13,3.43.17,18.03,2.08,36.11,5.67,53.76,3.63,17.84,9.01,35.38,16,52.15,7.12,17.09,15.98,33.54,26.33,48.9,10.6,15.72,22.88,30.47,36.51,43.85,13.63,13.37,28.62,25.37,44.54,35.67,15.55,10.06,32.17,18.6,49.39,25.39,16.9,6.67,34.54,11.71,52.45,15,17.71,3.25,35.83,4.82,53.86,4.64.12,0,.23,0,.35,0,17.91-.19,35.88-2.1,53.41-5.67,17.84-3.63,35.38-9.01,52.15-16,17.09-7.12,33.54-15.98,48.9-26.33,15.73-10.6,30.48-22.88,43.85-36.51s25.37-28.62,35.67-44.54c10.06-15.55,18.6-32.17,25.39-49.39,6.66-16.89,11.71-34.54,15-52.44,3.05-16.63,4.48-33.62,4.52-50.56,16.98-.12,34.01-1.65,50.67-4.81,17.88-3.39,35.5-8.54,52.36-15.3,17.18-6.89,33.75-15.53,49.25-25.68,15.86-10.39,30.78-22.47,44.33-35.92,13.56-13.45,25.76-28.28,36.26-44.06,10.26-15.42,19.03-31.92,26.05-49.05,6.89-16.81,12.17-34.38,15.7-52.24,3.49-17.66,5.3-35.76,5.36-53.79,0-.12,0-.23,0-.35.05-17.91-1.62-35.9-4.95-53.48Zm-700.13-230.24c.01-9.19.91-18.4,2.66-27.4,1.77-9.06,4.42-17.97,7.88-26.49,3.52-8.66,7.92-17,13.09-24.8,5.31-8.03,11.51-15.59,18.42-22.48,6.91-6.89,14.49-13.07,22.53-18.37,7.81-5.14,16.16-9.53,24.82-13.03,8.52-3.44,17.44-6.07,26.51-7.82,9-1.73,18.22-2.59,27.4-2.59,9.19.01,18.4.91,27.4,2.66,9.06,1.77,17.97,4.42,26.49,7.88,8.65,3.52,16.99,7.92,24.79,13.08,8.03,5.31,15.59,11.51,22.48,18.42,6.89,6.91,13.07,14.49,18.37,22.53,5.14,7.81,9.52,16.16,13.03,24.83,3.45,8.52,6.08,17.44,7.82,26.51,1.73,9,2.6,18.22,2.59,27.4-.01,9.18-.9,18.4-2.66,27.39-1.77,9.06-4.42,17.98-7.88,26.49-3.52,8.65-7.92,17-13.08,24.79-5.32,8.03-11.51,15.6-18.42,22.49-6.91,6.89-14.49,13.07-22.53,18.37-7.8,5.14-16.15,9.52-24.82,13.02-8.52,3.44-17.44,6.07-26.5,7.82-8.94,1.72-18.1,2.59-27.22,2.59h-.18l-.16,134.37c-.23-16.92-1.86-33.89-5.1-50.48-3.49-17.86-8.74-35.45-15.6-52.27-6.99-17.15-15.72-33.67-25.95-49.1-10.48-15.81-22.65-30.65-36.17-44.13-13.52-13.48-28.42-25.59-44.26-36.02-15.47-10.18-32.03-18.85-49.19-25.77-16.84-6.8-34.45-11.98-52.33-15.41-14.83-2.84-29.97-4.22-45.09-4.66l130.9.16Zm286.29,562.94c.09,9.19-.71,18.41-2.36,27.42-1.67,9.08-4.22,18.02-7.6,26.57-3.43,8.69-7.74,17.08-12.82,24.93-5.23,8.08-11.34,15.71-18.17,22.68-6.83,6.96-14.35,13.22-22.33,18.61-7.75,5.23-16.06,9.7-24.68,13.29-8.48,3.54-17.37,6.26-26.42,8.1-8.98,1.83-18.19,2.79-27.37,2.89-9.19.09-18.41-.71-27.43-2.36-9.08-1.67-18.02-4.22-26.57-7.6-8.69-3.43-17.08-7.74-24.93-12.82-8.08-5.23-15.72-11.34-22.68-18.17-6.97-6.83-13.23-14.35-18.61-22.33-5.23-7.75-9.7-16.06-13.29-24.69-3.54-8.49-6.26-17.38-8.1-26.42-1.83-8.98-2.8-18.19-2.89-27.37s.71-18.41,2.36-27.42c1.67-9.08,4.23-18.02,7.6-26.58,3.43-8.69,7.74-17.08,12.81-24.93,5.23-8.09,11.34-15.72,18.18-22.68,6.83-6.96,14.35-13.22,22.33-18.61,7.75-5.22,16.05-9.69,24.68-13.29,8.49-3.54,17.38-6.26,26.42-8.1,8.92-1.82,18.07-2.79,27.19-2.88.06,0,.12,0,.18,0l-1.33-138.93c-.12,0-.24,0-.36,0-17.91.19-35.87,2.1-53.41,5.67-17.84,3.63-35.38,9.01-52.15,16-17.09,7.12-33.55,15.98-48.9,26.33-15.73,10.6-30.48,22.88-43.85,36.51-13.37,13.63-25.37,28.61-35.67,44.54-10.06,15.55-18.6,32.17-25.39,49.39-6.67,16.9-11.71,34.54-15,52.45-2.79,15.21-4.08,30.72-4.35,46.21l-.24-134.71c-9.19.02-18.41-.85-27.41-2.58-9.07-1.74-17.99-4.36-26.51-7.8-8.67-3.5-17.02-7.87-24.83-13.01-8.04-5.29-15.63-11.46-22.54-18.35-6.91-6.89-13.11-14.45-18.43-22.48-5.17-7.79-9.57-16.13-13.1-24.79-3.47-8.51-6.13-17.42-7.9-26.48-1.76-8.99-2.64-18.21-2.67-27.4-.02-9.19.85-18.41,2.58-27.41,1.74-9.06,4.36-17.98,7.8-26.51,3.5-8.66,7.87-17.02,13.01-24.83,5.29-8.04,11.46-15.63,18.35-22.54,6.89-6.91,14.45-13.12,22.47-18.43,7.79-5.16,16.13-9.57,24.79-13.1,8.51-3.47,17.42-6.13,26.48-7.9,8.99-1.76,18.21-2.66,27.39-2.68,9.18-.02,18.41.85,27.4,2.57,9.07,1.74,17.99,4.36,26.52,7.8,8.67,3.49,17.02,7.87,24.83,13.01,8.05,5.29,15.63,11.47,22.54,18.35,6.91,6.89,13.11,14.45,18.43,22.48,5.16,7.79,9.57,16.13,13.1,24.78,3.47,8.51,6.13,17.42,7.9,26.48,1.75,8.94,2.65,18.09,2.67,27.21,0,.06,0,.12,0,.18l138.78-.25v.91s-1.86,0-1.86,0c0,.12,0,.24,0,.36-.05,17.91,1.62,35.9,4.95,53.48,3.39,17.88,8.54,35.5,15.3,52.36,6.89,17.19,15.53,33.76,25.67,49.25,10.39,15.87,22.47,30.78,35.92,44.33,13.45,13.55,28.27,25.75,44.06,36.27,15.42,10.26,31.92,19.03,49.05,26.05,16.8,6.89,34.38,12.17,52.24,15.7,5.17,1.02,10.43,1.59,15.65,2.32l-97.51.93Zm277.13-252.01c-1.79,9.06-4.46,17.96-7.95,26.47-3.54,8.64-7.97,16.97-13.15,24.76-5.34,8.01-11.55,15.56-18.48,22.43-6.93,6.87-14.52,13.03-22.58,18.31-7.82,5.12-16.19,9.48-24.86,12.96-8.53,3.42-17.46,6.03-26.53,7.75-9,1.71-18.23,2.56-27.41,2.52-9.18-.04-18.4-.95-27.39-2.73-9.06-1.79-17.96-4.47-26.47-7.96-8.65-3.54-16.98-7.97-24.76-13.15-8.02-5.34-15.56-11.55-22.44-18.48-6.87-6.93-13.03-14.52-18.31-22.58-5.12-7.82-9.48-16.18-12.96-24.86-3.42-8.53-6.03-17.46-7.75-26.52-1.7-8.95-2.54-18.11-2.52-27.23v-.18l-130.34-.5c15.79-.36,31.6-1.81,47.09-4.79,17.87-3.44,35.48-8.63,52.32-15.44,17.17-6.94,33.72-15.62,49.18-25.8,15.84-10.43,30.72-22.56,44.24-36.04,13.52-13.49,25.68-28.34,36.15-44.16,10.22-15.44,18.94-31.97,25.92-49.12,6.85-16.82,12.08-34.41,15.56-52.28,1.87-9.62,3.14-19.37,4.01-29.16l-.44,114.7c9.19.04,18.4.95,27.39,2.73,9.06,1.79,17.96,4.46,26.47,7.95,8.65,3.54,16.98,7.97,24.76,13.15,8.01,5.34,15.56,11.55,22.43,18.48,6.87,6.93,13.03,14.52,18.31,22.58,5.12,7.82,9.48,16.19,12.96,24.86,3.42,8.53,6.03,17.46,7.75,26.53,1.71,9,2.54,18.23,2.52,27.41-.04,9.19-.95,18.4-2.73,27.39Z"/>
  </g>
</svg>