<?xml version="1.0" encoding="UTF-8"?>
<svg id="Layer_2" data-name="Layer 2" xmlns="http://www.w3.org/2000/svg" viewBox="0 0 1026.96 1014.02">
  <defs>
    <style>
      .cls-1 {
        fill: #231f20;
      }
    </style>
  </defs>
  <g id="Layer_1-2" data-name="Layer 1">
    <path class="cls-1" d="m1021.56,669.51c-3.58-18.29-8.96-36.29-15.99-53.51-7.16-17.55-16.11-34.46-26.59-50.26-10.73-16.18-23.2-31.37-37.06-45.17-7.05-7.01-14.47-13.64-22.18-19.89,2.73-2.52,5.65-4.84,8.28-7.47,13.84-13.8,26.29-29.01,37.01-45.2,10.47-15.81,19.4-32.73,26.54-50.28,7.01-17.22,12.37-35.23,15.94-53.52,3.53-18.1,5.33-36.63,5.35-55.08.02-18.46-1.73-36.99-5.21-55.1-3.52-18.3-8.84-36.32-15.8-53.56-7.1-17.57-15.99-34.51-26.42-50.35-10.68-16.21-23.09-31.45-36.89-45.29-13.81-13.84-29.01-26.29-45.2-37.01-15.81-10.47-32.73-19.4-50.28-26.54-17.22-7.01-35.23-12.37-53.52-15.94-18.09-3.53-36.63-5.33-55.08-5.35h-.36c-18.34,0-36.75,1.75-54.74,5.21-18.3,3.52-36.32,8.84-53.56,15.8-17.57,7.1-34.51,15.99-50.35,26.41-16.21,10.67-31.45,23.09-45.29,36.89-4.82,4.81-9.24,9.99-13.7,15.12-4.71-5.4-9.4-10.83-14.49-15.87-13.89-13.75-29.17-26.11-45.43-36.73-15.87-10.37-32.85-19.19-50.45-26.23-17.27-6.9-35.31-12.15-53.62-15.6C324.34,1.6,305.81-.08,287.34,0c-18.46.09-36.98,1.96-55.06,5.55-18.28,3.63-36.26,9.06-53.46,16.14-17.53,7.21-34.42,16.2-50.18,26.73-16.15,10.78-31.31,23.29-45.07,37.18-13.75,13.89-26.11,29.18-36.72,45.43-10.37,15.87-19.19,32.85-26.23,50.45-6.9,17.27-12.15,35.31-15.6,53.62C1.6,253.21-.09,271.75,0,290.21c.09,18.45,1.96,36.98,5.55,55.06,3.63,18.28,9.06,36.26,16.13,53.46,7.21,17.53,16.2,34.42,26.73,50.19,10.78,16.15,23.29,31.31,37.17,45.06,6.67,6.61,13.7,12.84,20.97,18.77-2.32,2.16-4.82,4.11-7.06,6.34-13.88,13.77-26.37,28.94-37.13,45.1-10.51,15.78-19.49,32.68-26.68,50.21-7.06,17.21-12.47,35.2-16.08,53.48-3.58,18.09-5.43,36.61-5.5,55.07-.07,18.45,1.63,36.99,5.06,55.11,3.47,18.31,8.74,36.34,15.66,53.6,7.06,17.6,15.9,34.56,26.28,50.42,10.64,16.25,23.01,31.52,36.77,45.39,13.77,13.88,28.94,26.37,45.1,37.13,15.78,10.51,32.68,19.48,50.21,26.68,17.2,7.05,35.19,12.46,53.48,16.08,18.08,3.57,36.61,5.42,55.07,5.5.37,0,.75,0,1.12,0,18.09,0,36.24-1.7,53.98-5.06,18.31-3.47,36.35-8.74,53.61-15.66,17.6-7.06,34.56-15.9,50.42-26.28,16.25-10.64,31.52-23.01,45.39-36.77,4.83-4.79,9.26-9.96,13.75-15.08,4.69,5.41,9.37,10.85,14.45,15.91,13.85,13.79,29.1,26.19,45.33,36.85,15.85,10.41,32.8,19.28,50.38,26.37,17.25,6.95,35.27,12.25,53.57,15.75,17.89,3.42,36.2,5.16,54.45,5.16.22,0,.43,0,.65,0,18.45-.04,36.98-1.86,55.08-5.41,18.28-3.58,36.28-8.96,53.5-15.99,17.55-7.16,34.46-16.11,50.26-26.59,16.18-10.74,31.37-23.2,45.16-37.05,13.79-13.85,26.19-29.11,36.85-45.33,10.41-15.85,19.28-32.8,26.36-50.38,6.95-17.25,12.25-35.28,15.75-53.58,3.46-18.11,5.2-36.65,5.16-55.11-.04-18.45-1.86-36.98-5.41-55.07Zm-139.45,83.46c-1.77,9.28-4.46,18.41-7.98,27.14-3.57,8.87-8.05,17.43-13.31,25.43-5.41,8.24-11.73,16-18.78,23.08-7.05,7.08-14.78,13.43-23,18.88-7.97,5.29-16.51,9.81-25.36,13.42-8.72,3.56-17.84,6.28-27.11,8.1-9.21,1.8-18.65,2.73-28.05,2.75h-.33c-9.3,0-18.62-.88-27.73-2.62-9.28-1.78-18.42-4.46-27.15-7.98-8.87-3.57-17.43-8.05-25.42-13.31-8.24-5.41-16.01-11.73-23.09-18.78-7.08-7.05-13.43-14.78-18.88-23-5.29-7.97-9.81-16.5-13.42-25.37-3.56-8.71-6.28-17.83-8.1-27.11-1.8-9.2-2.73-18.64-2.75-28.04h-.02c0-.12.02-.24.02-.36l-142.23-.56c-.04,9.4-.98,18.84-2.8,28.04-1.83,9.27-4.57,18.38-8.14,27.09-3.63,8.85-8.16,17.38-13.47,25.34-5.47,8.21-11.83,15.93-18.92,22.97-7.09,7.03-14.87,13.34-23.12,18.74-8.01,5.24-16.57,9.7-25.45,13.27-8.73,3.5-17.87,6.17-27.15,7.93-9.22,1.75-18.65,2.62-28.06,2.58-9.41-.04-18.84-.98-28.04-2.8-9.27-1.83-18.39-4.58-27.1-8.14-8.85-3.63-17.38-8.16-25.35-13.47-8.2-5.46-15.93-11.83-22.97-18.92-7.03-7.09-13.34-14.87-18.74-23.11-5.24-8.01-9.7-16.57-13.27-25.45-3.5-8.74-6.17-17.87-7.93-27.16-1.75-9.22-2.61-18.66-2.58-28.06.04-9.4.98-18.84,2.8-28.04,1.83-9.27,4.57-18.38,8.14-27.09,3.63-8.85,8.16-17.38,13.46-25.34,5.47-8.21,11.83-15.93,18.92-22.97,7.09-7.03,14.87-13.34,23.12-18.74,8.01-5.24,16.57-9.7,25.45-13.26,8.73-3.5,17.87-6.17,27.16-7.93,9.22-1.75,18.63-2.63,28.06-2.58l.56-142.23c-4.84-.03-9.68.41-14.52.63v-.63c-9.38.04-18.85-.81-28.07-2.55-9.29-1.75-18.43-4.41-27.17-7.9-8.88-3.55-17.45-8.01-25.46-13.24-8.25-5.39-16.04-11.69-23.14-18.72-7.1-7.03-13.47-14.75-18.94-22.95-5.31-7.96-9.85-16.48-13.49-25.33-3.58-8.7-6.33-17.82-8.17-27.09-1.83-9.2-2.78-18.63-2.83-28.04-.05-9.4.81-18.84,2.55-28.06,1.75-9.29,4.41-18.43,7.9-27.17,3.55-8.88,8.01-17.45,13.24-25.46,5.39-8.25,11.69-16.04,18.71-23.13,7.03-7.1,14.75-13.47,22.95-18.94,7.96-5.31,16.48-9.85,25.33-13.49,8.7-3.58,17.82-6.33,27.09-8.17,9.2-1.83,18.64-2.78,28.04-2.83,9.39-.05,18.84.81,28.06,2.55,9.29,1.75,18.43,4.41,27.17,7.9,8.88,3.55,17.45,8.01,25.46,13.24,8.25,5.39,16.04,11.69,23.13,18.71,7.1,7.03,13.47,14.75,18.95,22.95,5.31,7.96,9.85,16.49,13.49,25.33,3.58,8.7,6.33,17.82,8.17,27.09,1.83,9.2,2.78,18.64,2.83,28.04h.02c0,.12-.02.24-.02.36l142.23.18c.01-9.41.93-18.84,2.72-28.05,1.81-9.28,4.52-18.4,8.07-27.12,3.61-8.86,8.11-17.4,13.4-25.38,5.44-8.22,11.79-15.96,18.86-23.01,7.07-7.05,14.83-13.38,23.07-18.8,8-5.27,16.55-9.75,25.42-13.33,8.72-3.52,17.85-6.22,27.14-8,9.21-1.77,18.65-2.65,28.05-2.65,9.41.01,18.84.93,28.05,2.72,9.27,1.81,18.4,4.52,27.12,8.07,8.86,3.61,17.4,8.11,25.38,13.4,8.22,5.44,15.96,11.78,23.01,18.86,7.06,7.07,13.38,14.84,18.8,23.07,5.26,7.99,9.75,16.55,13.33,25.42,3.53,8.73,6.22,17.86,8,27.14,1.77,9.21,2.66,18.65,2.65,28.05s-.93,18.84-2.72,28.05c-1.81,9.28-4.53,18.4-8.07,27.12-3.61,8.86-8.11,17.4-13.4,25.38-5.44,8.22-11.79,15.96-18.86,23.02-7.07,7.05-14.83,13.38-23.07,18.8-7.99,5.26-16.54,9.75-25.41,13.33-8.73,3.52-17.86,6.22-27.13,8-9.16,1.76-18.53,2.65-27.87,2.65h-.19l-.18,142.24h.36c4.59,0,9.18-.44,13.77-.65v1.81c9.43,0,18.85.86,28.06,2.62,9.28,1.78,18.42,4.46,27.15,7.98,8.87,3.57,17.43,8.05,25.43,13.31,8.24,5.41,16,11.73,23.08,18.77,7.08,7.05,13.43,14.79,18.88,23,5.29,7.98,9.81,16.51,13.42,25.37,3.56,8.71,6.28,17.83,8.1,27.1,1.8,9.21,2.73,18.65,2.75,28.05.02,9.4-.86,18.84-2.63,28.06Z"/>
  </g>
</svg>