<?xml version="1.0" encoding="UTF-8"?>
<svg id="Layer_2" data-name="Layer 2" xmlns="http://www.w3.org/2000/svg" viewBox="0 0 1299.92 634.36">
  <defs>
    <style>
      .cls-1 {
        fill: #231f20;
      }
    </style>
  </defs>
  <g id="Layer_1-2" data-name="Layer 1">
    <g>
      <ellipse class="cls-1" cx="649.96" cy="549.44" rx="649.96" ry="84.91"/>
      <ellipse class="cls-1" cx="649.96" cy="369.51" rx="649.96" ry="65.11"/>
      <path class="cls-1" d="m649.96,177.89C291,177.89,0,199.13,0,225.34s291,47.45,649.96,47.45,649.96-21.24,649.96-47.45-291-47.45-649.96-47.45Z"/>
      <path class="cls-1" d="m649.96,98.82C291,98.82,0,109.44,0,122.54s291,23.72,649.96,23.72,649.96-10.62,649.96-23.72-291-23.72-649.96-23.72Z"/>
      <path class="cls-1" d="m0,55.34c0,6.55,291,11.86,649.96,11.86s649.96-5.31,649.96-11.86-291-11.86-649.96-11.86S0,48.79,0,55.34Z"/>
      <path class="cls-1" d="m1299.92,5.93c0-3.27-291-5.93-649.96-5.93S0,2.66,0,5.93s291,5.93,649.96,5.93,649.96-2.66,649.96-5.93Z"/>
    </g>
  </g>
</svg>